<?xml version="1.0" encoding="UTF-8" standalone="no"?>
<!-- Created with Inkscape (http://www.inkscape.org/) -->

<svg
   xmlns:dc="http://purl.org/dc/elements/1.1/"
   xmlns:cc="http://creativecommons.org/ns#"
   xmlns:rdf="http://www.w3.org/1999/02/22-rdf-syntax-ns#"
   xmlns:svg="http://www.w3.org/2000/svg"
   xmlns="http://www.w3.org/2000/svg"
   xmlns:sodipodi="http://sodipodi.sourceforge.net/DTD/sodipodi-0.dtd"
   xmlns:inkscape="http://www.inkscape.org/namespaces/inkscape"
   id="svg2"
   version="1.1"
   inkscape:version="0.48.3.1 r9886"
   width="80"
   height="80"
   xml:space="preserve"
   sodipodi:docname="browser.eps"><metadata
     id="metadata8"><rdf:RDF><cc:Work
         rdf:about=""><dc:format>image/svg+xml</dc:format><dc:type
           rdf:resource="http://purl.org/dc/dcmitype/StillImage" /><dc:title></dc:title></cc:Work></rdf:RDF></metadata><defs
     id="defs6" /><sodipodi:namedview
     pagecolor="#ffffff"
     bordercolor="#666666"
     borderopacity="1"
     objecttolerance="10"
     gridtolerance="10"
     guidetolerance="10"
     inkscape:pageopacity="0"
     inkscape:pageshadow="2"
     inkscape:window-width="640"
     inkscape:window-height="480"
     id="namedview4"
     showgrid="false"
     inkscape:zoom="3.5261719"
     inkscape:cx="40"
     inkscape:cy="40"
     inkscape:window-x="0"
     inkscape:window-y="0"
     inkscape:window-maximized="0"
     inkscape:current-layer="g10" /><g
     id="g10"
     inkscape:groupmode="layer"
     inkscape:label="ink_ext_XXXXXX"
     transform="matrix(1.25,0,0,-1.25,0,80)"><g
       id="g12"
       transform="scale(0.1,0.1)"><path
         d="M 640,320 C 640,143.27 496.73,0 320,0 143.27,0 0,143.27 0,320 0,496.73 143.27,640 320,640 496.73,640 640,496.73 640,320"
         style="fill:#7db6d8;fill-opacity:1;fill-rule:nonzero;stroke:none"
         id="path14" /><path
         d="m 480,120 -320,0 c -22.09,0 -40,17.91 -40,40 l 0,300 0,-280 c 0,-22.09 17.906,-40 40,-40 l 320,0 c 22.094,0 40,17.91 40,40 l 0,-20 c 0,-22.09 -17.91,-40 -40,-40"
         style="fill:#6594b2;fill-opacity:1;fill-rule:nonzero;stroke:none"
         id="path16" /><path
         d="m 120,425 0,-245 c 0,-22.09 17.906,-40 40,-40 l 320,0 c 22.094,0 40,17.91 40,40 l 0,245 -400,0"
         style="fill:#ffffff;fill-opacity:1;fill-rule:nonzero;stroke:none"
         id="path18" /><path
         d="m 520,460 c 0,22.09 -17.91,40 -40,40 22.094,0 40,-17.906 40,-40 m -400,0 c 0,22.094 17.906,40 40,40 -22.09,0 -40,-17.91 -40,-40"
         style="fill:#6594b2;fill-opacity:1;fill-rule:nonzero;stroke:none"
         id="path20" /><path
         d="m 520,425 -400,0 0,35 c 0,22.09 17.91,40 40,40 l 320,0 0,0 c 22.09,0 40,-17.91 40,-40 l 0,-35"
         style="fill:#567a95;fill-opacity:1;fill-rule:nonzero;stroke:none"
         id="path22" /><path
         d="m 120,400 400,0 0,25 -400,0 0,-25 z"
         style="fill:#d4d3d1;fill-opacity:1;fill-rule:nonzero;stroke:none"
         id="path24" /><path
         d="m 520,480 c 0,22.094 -17.906,40 -40,40 l -320,0 c -22.094,0 -40,-17.906 -40,-40 l 0,-60 400,0 0,60"
         style="fill:#e1e3cc;fill-opacity:1;fill-rule:nonzero;stroke:none"
         id="path26" /><path
         d="m 250,470 c 0,11.047 -8.953,20 -20,20 -11.047,0 -20,-8.953 -20,-20 0,-11.047 8.953,-20 20,-20 11.047,0 20,8.953 20,20"
         style="fill:#e08e4c;fill-opacity:1;fill-rule:nonzero;stroke:none"
         id="path28" /><path
         d="m 310,470 c 0,11.047 -8.953,20 -20,20 -11.047,0 -20,-8.953 -20,-20 0,-11.047 8.953,-20 20,-20 11.047,0 20,8.953 20,20"
         style="fill:#77caa9;fill-opacity:1;fill-rule:nonzero;stroke:none"
         id="path30" /><path
         d="m 190,470 c 0,11.047 -8.953,20 -20,20 -11.047,0 -20,-8.953 -20,-20 0,-11.047 8.953,-20 20,-20 11.047,0 20,8.953 20,20"
         style="fill:#c84755;fill-opacity:1;fill-rule:nonzero;stroke:none"
         id="path32" /><path
         d="m 160,180 120,0 0,180 -120,0 0,-180 z"
         style="fill:#495672;fill-opacity:1;fill-rule:nonzero;stroke:none"
         id="path34" /><path
         d="m 320,340 160,0 0,20 -160,0 0,-20 z"
         style="fill:#e1e3cc;fill-opacity:1;fill-rule:nonzero;stroke:none"
         id="path36" /><path
         d="m 320,300 160,0 0,20 -160,0 0,-20 z"
         style="fill:#e1e3cc;fill-opacity:1;fill-rule:nonzero;stroke:none"
         id="path38" /><path
         d="m 320,260 160,0 0,20 -160,0 0,-20 z"
         style="fill:#e1e3cc;fill-opacity:1;fill-rule:nonzero;stroke:none"
         id="path40" /><path
         d="m 320,220 160,0 0,20 -160,0 0,-20 z"
         style="fill:#e1e3cc;fill-opacity:1;fill-rule:nonzero;stroke:none"
         id="path42" /><path
         d="m 320,180 160,0 0,20 -160,0 0,-20 z"
         style="fill:#e1e3cc;fill-opacity:1;fill-rule:nonzero;stroke:none"
         id="path44" /></g></g></svg>