<?xml version="1.0" encoding="UTF-8"?>
<!DOCTYPE svg PUBLIC "-//W3C//DTD SVG 1.1//EN" "http://www.w3.org/Graphics/SVG/1.1/DTD/svg11.dtd">
<!-- Creator: CorelDRAW X7 -->
<svg xmlns="http://www.w3.org/2000/svg" xml:space="preserve" width="0.833331in" height="0.833331in" version="1.1" style="shape-rendering:geometricPrecision; text-rendering:geometricPrecision; image-rendering:optimizeQuality; fill-rule:evenodd; clip-rule:evenodd"
viewBox="0 0 833 833"
 xmlns:xlink="http://www.w3.org/1999/xlink">
 <defs>
  <style type="text/css">
   <![CDATA[
    .fil4 {fill:#F7D187}
    .fil3 {fill:#A43F4A}
    .fil1 {fill:#A43F4A;fill-rule:nonzero}
    .fil0 {fill:#C84755;fill-rule:nonzero}
    .fil2 {fill:#E1E3CC;fill-rule:nonzero}
   ]]>
  </style>
 </defs>
 <g id="Слой_x0020_1">
  <metadata id="CorelCorpID_0Corel-Layer"/>
  <path id="path14" class="fil0" d="M833 417c0,230 -186,416 -416,416 -230,0 -417,-186 -417,-416 0,-230 187,-417 417,-417 230,0 416,187 416,417z"/>
  <g>
   <path id="path16" class="fil1" d="M417 729c-159,0 -287,-128 -287,-286 0,-158 128,-287 287,-287 158,0 286,129 286,287 0,158 -128,286 -286,286l0 0zm0 -521c-130,0 -235,105 -235,235 0,129 105,234 235,234 129,0 234,-105 234,-234 0,-130 -105,-235 -234,-235z"/>
  </g>
  <path id="path20" class="fil2" d="M417 130c-159,0 -287,128 -287,287 0,158 128,286 287,286 158,0 286,-128 286,-286 0,-159 -128,-287 -286,-287zm0 52c129,0 234,105 234,235 0,129 -105,234 -234,234 -130,0 -235,-105 -235,-234 0,-130 105,-235 235,-235z"/>
  <path class="fil3" d="M368 552l-100 -101c-13,-13 -13,-32 0,-45l100 -101c13,-13 33,-13 46,0 12,12 11,33 -1,45 -15,15 -30,30 -46,45l177 0c8,0 17,4 23,10 14,16 11,43 -8,54 -4,2 -10,4 -15,4l-177 0c-3,-3 45,45 46,45 12,12 13,33 1,45 -13,12 -33,12 -46,-1z"/>
  <path class="fil4" d="M368 540l-101 -101c-13,-13 -13,-32 0,-45l101 -101c13,-13 33,-13 46,0 12,12 11,33 -1,45 -16,15 -31,30 -46,45l176 0c9,0 18,4 24,11 14,15 11,43 -8,53 -5,2 -10,4 -16,4l-176 0c-3,-3 45,45 46,45 12,12 13,33 1,45 -13,12 -33,12 -46,-1z"/>
 </g>
</svg>
