<?xml version="1.0" encoding="UTF-8"?>
<!DOCTYPE svg PUBLIC "-//W3C//DTD SVG 1.1//EN" "http://www.w3.org/Graphics/SVG/1.1/DTD/svg11.dtd">
<!-- Creator: CorelDRAW X7 -->
<svg xmlns="http://www.w3.org/2000/svg" xml:space="preserve" width="0.8in" height="0.8in" version="1.1" style="shape-rendering:geometricPrecision; text-rendering:geometricPrecision; image-rendering:optimizeQuality; fill-rule:evenodd; clip-rule:evenodd"
viewBox="0 0 198 198"
 xmlns:xlink="http://www.w3.org/1999/xlink">
 <defs>
  <style type="text/css">
   <![CDATA[
    .str0 {stroke:#E1E1D2;stroke-width:7.29831;stroke-linecap:round}
    .fil2 {fill:none}
    .fil1 {fill:#9C4D4F}
    .fil0 {fill:#C75C5C}
    .fil4 {fill:#E1E1D2}
    .fil3 {fill:#E1E1D2;fill-rule:nonzero}
   ]]>
  </style>
 </defs>
 <g id="Слой_x0020_1">
  <metadata id="CorelCorpID_0Corel-Layer"/>
  <circle class="fil0" cx="99" cy="99" r="99"/>
  <polygon class="fil1" points="76,122 57,122 57,128 129,128 129,122 "/>
  <polyline class="fil2 str0" points="124,138 129,132 129,122 55,122 55,75 66,75 66,65 60,59 "/>
  <polygon class="fil1" points="141,122 137,122 137,128 154,128 154,122 "/>
  <polyline class="fil2 str0" points="79,59 74,64 74,75 152,75 152,121 137,121 137,133 141,139 "/>
  <path class="fil3" d="M130 139l0 8 -3 0 6 9 5 -9 -3 0 0 -8 -5 0zm0 4m-1 4m1 5m5 0m2 -5m-2 -4m-2 -4"/>
  <path class="fil3" d="M67 43l0 9 -2 0 5 8 5 -8 -2 0 0 -9 -6 0zm0 4m-1 5m1 4m6 0m1 -4m-1 -5m-3 -4"/>
  <line id="svg_2" class="fil2" x1="113" y1="89" x2="113" y2= "89" />
  <g id="svg_14">
   <g id="layer1">
    <g>
     <g id="g2290">
      <path id="path4850" class="fil4" d="M74 89l0 4c0,0 0,0 0,0l0 0c-1,0 -1,0 -2,1l-3 -2c0,1 0,1 0,1 0,0 -1,0 -1,0 0,1 0,1 0,1 0,0 0,0 0,0l1 3c0,0 0,0 0,0l0 0c0,0 0,1 0,1l6 2c0,0 0,0 0,0 0,0 0,-1 0,-1 0,0 0,0 1,0 0,0 0,0 0,-1 0,0 0,0 1,0 0,0 0,0 0,0 0,0 0,0 1,0 0,0 0,0 0,0 0,0 1,0 1,0 0,0 0,0 0,0 0,0 0,0 1,0 0,0 0,0 0,0 0,0 0,0 0,0 0,0 0,0 0,0 0,0 0,0 0,0 0,0 0,0 0,0 0,0 0,0 0,0 0,0 0,0 0,0 1,0 1,0 1,0 0,0 1,1 1,1 1,1 1,3 1,4l5 3c1,-1 1,-1 1,-1l3 -1c0,0 0,0 0,0 0,0 0,-1 0,-1 0,0 0,0 0,0 0,-1 0,-1 0,-1 0,0 0,0 0,-1l-3 -1c0,0 0,0 0,0l0 0c0,0 0,0 0,-1 0,0 0,0 -1,-1l3 -2c0,0 0,0 -1,0 0,-1 0,-1 0,-1 0,0 0,0 0,-1 0,0 0,0 -1,0 0,0 0,0 0,0l-3 1c0,0 0,0 0,0l0 0c0,-1 0,-1 -1,-1 0,0 0,0 0,-1l0 0c0,0 0,0 0,0l0 -3c0,0 0,0 -1,0 0,0 0,0 0,0 0,0 0,0 -1,-1 0,0 0,0 0,0 0,0 0,0 0,0 0,0 -1,0 -1,0l-2 3c0,0 -1,0 -2,0l-2 -3c0,0 0,0 0,0 0,0 0,0 0,0 -1,0 -1,0 -1,0 0,0 0,0 -1,0 0,0 0,0 0,0l0 0zm11 7c0,0 0,0 0,0 0,1 0,1 0,1 -1,1 -1,1 -1,0 0,0 0,0 0,-1 0,0 0,0 1,0l0 0zm-11 0c0,0 0,0 0,0 1,0 1,1 0,1 0,0 -1,0 -1,0 0,-1 0,-1 0,-1 0,0 1,0 1,0z"/>
      <path id="path3767" class="fil4" d="M83 114l1 -3c0,0 0,0 0,0l0 0c0,-1 1,-1 1,-1l3 1c1,0 1,0 1,0 0,-1 0,-1 0,-1 0,0 1,0 1,0 0,-1 0,-1 0,-1l-2 -3c0,0 0,0 0,0l0 0c0,0 0,0 0,-1l-5 -2c0,0 0,1 0,1 0,0 -1,0 -1,0 0,0 0,1 0,1 0,0 0,0 0,0 -1,0 -1,0 -1,0 0,0 0,1 -1,1 0,0 0,0 0,0 0,0 0,0 -1,0 0,0 0,0 0,0 0,0 0,0 -1,0 0,0 0,0 0,0 0,0 0,0 0,0 0,0 0,0 0,0 0,0 0,0 0,0 0,0 -1,0 -1,0 0,0 0,0 0,0 0,0 0,0 0,0 0,0 0,0 0,0 0,0 0,-1 0,-1 -1,0 -1,0 -1,-1 -2,-1 -2,-2 -1,-4l-6 -2c0,0 0,1 0,1l-3 1c0,0 0,0 0,0 0,0 -1,0 -1,0 0,0 0,1 0,1 0,0 0,0 0,1 0,0 0,0 0,0l4 1c0,0 0,0 0,0l0 0c0,1 0,1 0,1 0,1 0,1 0,1l-2 3c0,0 0,0 0,0 0,0 0,0 0,0 1,1 1,1 1,1 0,0 0,0 0,1 0,0 0,0 0,0l3 -1c1,0 1,0 1,0l0 0c0,0 0,0 0,1 1,0 1,0 1,0l0 0c0,0 0,0 0,0l0 3c0,0 0,0 0,1 0,0 1,0 1,0 0,0 0,0 0,0 0,0 0,0 0,0 1,0 1,0 1,0 0,0 0,0 0,0l2 -2c1,0 2,0 2,0l2 3c0,0 0,0 0,0 1,0 1,0 1,0 0,-1 0,-1 1,-1 0,0 0,0 0,0 0,0 0,0 0,0l0 0zm-10 -7c0,0 0,0 0,0 -1,0 0,-1 0,-1 0,0 1,0 1,0 0,0 0,1 0,1 0,0 -1,0 -1,0zm11 1c-1,0 -1,0 -1,0 0,-1 0,-1 0,-1 1,-1 1,-1 1,0 1,0 1,0 0,1 0,0 0,0 0,0l0 0z"/>
     </g>
     <g>
      <path id="path2327" class="fil4" d="M81 96c-3,-1 -7,0 -8,3 -1,4 0,7 4,9 3,1 6,-1 8,-4 1,-3 -1,-7 -4,-8zm0 1c2,1 3,4 2,6 -1,3 -3,4 -6,3 -2,-1 -4,-4 -3,-6 1,-3 4,-4 7,-3z"/>
      <path id="path3500" class="fil4" d="M81 96c-3,-1 -7,0 -8,3 -1,4 0,7 4,8 3,2 6,0 8,-3 1,-3 -1,-7 -4,-8zm0 1c2,1 4,4 3,7 -1,2 -4,3 -7,2 -3,-1 -4,-4 -3,-6 1,-3 4,-4 7,-3z"/>
     </g>
    </g>
   </g>
   <g>
    <circle id="svg_6" class="fil4" transform="matrix(0.0536615 0.0207781 -0.0207781 0.0536615 84.3584 96.9915)" r="20"/>
    <circle id="svg_11" class="fil4" transform="matrix(0.0536615 0.0207781 -0.0207781 0.0536615 73.9563 96.451)" r="20"/>
    <circle id="svg_12" class="fil4" transform="matrix(0.0536615 0.0207781 -0.0207781 0.0536615 73.2128 106.63)" r="20"/>
    <circle id="svg_13" class="fil4" transform="matrix(0.0536615 0.0207781 -0.0207781 0.0536615 84.1201 107.364)" r="20"/>
   </g>
  </g>
  <circle id="svg_15" class="fil2" transform="matrix(0.0536615 0.0207781 -0.0207781 0.0536615 78.7845 101.736)" r="107"/>
  <g id="svg_19">
   <g id="svg_20">
    <g id="svg_21">
     <path id="svg_22" class="fil4" d="M97 80l0 3c0,0 0,0 0,0l0 0c-1,1 -1,1 -2,1l-3 -1c0,0 0,0 0,0 -1,1 -1,1 -1,1 0,0 0,0 0,0 0,1 -1,1 -1,1l2 3c0,0 0,0 0,0l0 0c0,0 0,0 0,1l5 2c1,0 1,-1 1,-1 0,0 0,0 0,0 0,0 0,-1 0,-1 1,0 1,0 1,0 0,0 0,0 0,0 0,0 1,-1 1,-1 0,0 0,0 0,0 1,0 1,0 1,0 0,0 0,0 0,0 1,0 1,0 1,0 0,0 0,0 0,0 0,0 0,0 1,0 0,0 0,0 0,0 0,0 0,0 0,0 0,0 0,0 0,0 0,0 0,0 0,0 0,0 0,0 0,0 0,0 0,0 0,0 0,1 0,1 1,1 0,0 0,0 1,1 1,1 1,2 1,4l5 2c0,0 0,0 1,-1l3 -1c0,0 0,0 0,0 0,0 0,0 0,0 0,0 0,-1 0,-1 0,0 0,0 0,-1 0,0 0,0 0,0l-3 -1c0,0 0,0 0,0l0 0c0,-1 0,-1 0,-1 -1,0 -1,-1 -1,-1l2 -3c0,0 0,0 0,0 0,0 0,0 0,0 0,-1 0,-1 0,-1 -1,0 -1,0 -1,0 0,-1 0,-1 0,-1l-3 1c0,0 0,0 0,0l0 0c0,0 -1,0 -1,0 0,-1 0,-1 -1,-1l0 0c0,0 0,0 0,0l1 -3c-1,0 -1,0 -1,0 0,-1 0,-1 0,-1 -1,0 -1,0 -1,0 0,0 0,0 0,0 0,0 0,0 -1,0 0,0 0,0 0,0l-2 2c-1,0 -1,0 -2,0l-2 -3c0,0 0,0 0,0 0,0 0,0 -1,1 0,0 0,0 0,0 0,0 -1,0 -1,0 0,0 0,0 0,0l0 0zm10 7c0,0 1,0 1,0 0,0 0,1 0,1 -1,0 -1,0 -1,0 -1,0 -1,-1 0,-1 0,0 0,0 0,0zm-10 -1c0,0 0,0 0,0 0,1 0,1 0,1 0,1 -1,1 -1,0 0,0 0,0 0,-1 0,0 1,0 1,0z"/>
     <path id="svg_23" class="fil4" d="M106 105l0 -4c0,0 0,0 0,0l0 0c1,0 2,0 2,-1l3 2c0,-1 0,-1 1,-1 0,0 0,0 0,0 0,0 0,-1 0,-1 1,0 1,0 1,0l-2 -3c0,0 0,0 0,0l0 0c0,0 0,-1 0,-1l-5 -2c0,0 -1,0 -1,0 0,1 0,1 0,1 0,0 0,0 0,0 0,0 -1,1 -1,1 0,0 0,0 0,0 0,0 -1,0 -1,0 0,0 0,0 0,0 -1,0 -1,0 -1,1 0,0 0,0 0,0 -1,0 -1,0 -1,0 0,-1 0,-1 0,-1 0,0 0,0 0,0 0,0 0,0 0,0 -1,0 -1,0 -1,0 0,0 0,0 0,0 0,0 0,0 0,0 0,0 0,0 0,0 0,0 0,0 0,0 0,0 0,0 0,0 -1,0 -1,-1 -2,-1 -1,-1 -1,-3 0,-4l-6 -2c0,0 0,0 0,0l-4 1c0,0 0,0 0,0 0,0 0,1 0,1 0,0 0,0 0,0 0,1 0,1 0,1 0,0 0,0 0,1l3 1c0,0 0,0 0,0l0 0c0,0 1,1 1,1 0,0 0,0 0,1l-2 2c0,0 0,0 0,1 0,0 0,0 0,0 0,0 0,0 1,1 0,0 0,0 0,0 0,0 0,0 0,0l3 -1c0,0 0,0 0,0l0 0c1,1 1,1 1,1 0,0 1,0 1,1l0 0c0,0 0,0 0,0l0 3c0,0 0,0 0,0 0,0 0,0 1,0 0,0 0,1 0,1 0,0 0,0 0,0 0,0 1,0 1,0 0,0 0,0 0,0l2 -3c1,0 1,0 2,0l2 3c0,0 0,0 0,0 0,0 1,0 1,0 0,0 0,0 0,0 1,0 1,0 1,0 0,0 0,0 0,0l0 0zm-10 -7c0,0 0,0 0,0 -1,-1 -1,-1 0,-1 0,-1 0,-1 1,0 0,0 0,0 0,1 -1,0 -1,0 -1,0l0 0zm10 0c0,0 0,0 0,0 0,0 0,0 0,-1 0,0 1,0 1,0 0,1 0,1 0,1 0,0 0,1 -1,0z"/>
    </g>
    <g>
     <path id="svg_24" class="fil4" d="M104 86c-3,-1 -7,1 -8,4 -2,3 0,7 3,8 4,1 7,0 8,-3 2,-4 0,-7 -3,-9zm-1 2c3,1 4,4 3,6 -1,3 -4,4 -6,3 -3,-1 -4,-4 -3,-7 1,-2 4,-3 6,-2z"/>
     <path id="svg_25" class="fil4" d="M104 87c-3,-2 -7,0 -8,3 -1,3 0,7 3,8 4,1 7,0 8,-4 2,-3 0,-6 -3,-7zm-1 1c3,1 4,3 3,6 -1,3 -4,4 -6,3 -3,-1 -4,-4 -3,-7 1,-2 4,-4 6,-2z"/>
    </g>
   </g>
   <g>
    <circle id="svg_26" class="fil4" transform="matrix(0.0536615 0.0207781 -0.0207781 0.0536615 107.134 87.5741)" r="20"/>
    <circle id="svg_27" class="fil4" transform="matrix(0.0536615 0.0207781 -0.0207781 0.0536615 96.7324 87.0353)" r="20"/>
    <circle id="svg_28" class="fil4" transform="matrix(0.0536615 0.0207781 -0.0207781 0.0536615 95.9882 97.2129)" r="20"/>
    <circle id="svg_29" class="fil4" transform="matrix(0.0536615 0.0207781 -0.0207781 0.0536615 106.896 97.9477)" r="20"/>
   </g>
  </g>
  <circle id="svg_30" class="fil2" transform="matrix(0.0536615 0.0207781 -0.0207781 0.0536615 101.561 92.3206)" r="107"/>
  <g id="svg_32">
   <g id="svg_33">
    <g>
     <g id="svg_34">
      <path id="svg_35" class="fil4" d="M117 91l1 3c0,0 0,0 0,0l0 0c-1,1 -1,1 -2,2l-3 0c0,0 0,0 0,0 0,0 0,0 0,1 0,0 -1,0 -1,0 0,0 0,1 0,1l3 2c0,0 0,0 0,0l0 0c0,0 0,1 0,1l6 1c0,-1 0,-1 0,-1 0,0 0,0 0,-1 0,0 0,0 0,0 0,0 0,0 0,-1 1,0 1,0 1,0 0,0 0,0 0,0 0,-1 1,-1 1,-1 0,0 0,0 0,0 0,0 1,0 1,0 0,0 0,0 0,0 0,0 0,0 1,0 0,0 0,0 0,0 0,0 0,0 0,0 0,0 0,0 0,0 0,0 0,0 0,0 0,0 0,0 0,0 0,0 0,0 0,0 0,0 0,0 0,0 1,0 1,0 1,0 0,0 1,0 1,0 2,1 2,3 2,4l6 1c0,0 0,-1 0,-1l3 -2c0,0 0,0 0,0 0,0 0,0 0,0 0,-1 0,-1 0,-1 0,0 0,0 0,-1 0,0 0,0 0,0l-4 0c0,0 0,0 0,0l0 0c0,-1 0,-1 0,-1 0,0 0,-1 -1,-1l2 -3c0,0 0,0 -1,0 0,0 0,-1 0,-1 0,0 0,0 0,0 -1,0 -1,0 -1,-1 0,0 0,0 0,0l-3 2c0,0 0,0 0,0l0 0c0,0 -1,0 -1,0 0,0 -1,-1 -1,-1l0 0c0,0 0,0 0,0l0 -3c-1,0 -1,0 -1,0 0,0 0,0 -1,0 0,0 0,0 0,0 0,0 0,0 0,0 0,0 -1,0 -1,0 0,0 0,0 0,0l-1 3c-1,0 -2,0 -2,0l-3 -2c0,0 0,0 0,0 0,0 0,0 -1,0 0,1 0,1 0,1 0,0 -1,0 -1,0 0,0 0,0 0,0l0 0 0 0zm12 4c0,0 0,0 0,0 1,0 1,1 1,1 -1,0 -1,1 -1,0 -1,0 -1,0 -1,-1 0,0 1,0 1,0l0 0zm-10 2c0,0 0,0 0,0 0,1 0,1 0,1 0,1 0,1 -1,1 0,-1 0,-1 0,-1 0,-1 0,-1 1,-1l0 0z"/>
      <path id="svg_36" class="fil4" d="M133 112l-1 -3c0,0 0,0 0,0l0 0c1,0 1,-1 1,-1l4 0c0,0 0,0 0,0 0,0 0,-1 0,-1 0,0 0,0 1,-1 0,0 0,0 0,0l-3 -2c0,0 0,0 0,0l0 0c0,-1 0,-1 0,-1l-6 -1c0,0 0,1 0,1 0,0 0,0 0,0 0,1 0,1 0,1 0,0 0,0 -1,0 0,1 0,1 0,1 0,0 0,0 0,0 -1,0 -1,0 -1,1 0,0 0,0 0,0 -1,0 -1,0 -1,0 0,0 0,0 0,0 0,0 -1,0 -1,0 0,0 0,0 0,0 0,0 0,0 0,0 0,0 0,0 0,0 0,0 0,0 0,0 0,0 0,0 0,0 0,0 0,0 -1,0 0,0 0,0 0,0 0,0 0,0 0,0 0,0 -1,0 -1,-1 -2,0 -3,-2 -2,-4l-6 0c0,0 0,1 0,1l-3 1c0,0 0,0 0,0 0,1 0,1 0,1 0,0 0,1 0,1 0,0 0,0 0,0 0,1 0,1 0,1l4 0c0,0 0,0 0,0l0 0c0,0 0,1 0,1 0,0 0,1 1,1l-2 3c0,0 0,0 0,0 1,0 1,0 1,0 0,1 0,1 0,1 1,0 1,0 1,0 0,0 0,0 0,0l3 -1c0,0 0,0 0,0l0 0c0,0 1,0 1,0 0,0 0,0 1,0l0 0c0,0 0,0 0,0l0 4c1,0 1,0 1,0 0,0 0,0 0,0 1,0 1,0 1,0 0,0 0,0 0,0 0,0 1,0 1,0 0,0 0,0 0,0l1 -3c1,0 2,0 2,-1l3 3c0,0 0,0 0,0 0,0 0,-1 1,-1 0,0 0,0 0,0 0,0 0,0 1,0 0,0 0,0 0,-1l0 0zm-12 -3c0,0 0,0 0,0 -1,-1 -1,-1 -1,-1 1,-1 1,-1 1,-1 1,1 1,1 1,1 -1,1 -1,1 -1,1l0 0zm10 -3c0,0 0,0 0,0 0,0 -1,0 0,-1 0,0 0,0 1,0 0,0 0,1 0,1 0,0 -1,0 -1,0l0 0z"/>
     </g>
     <g>
      <path id="svg_37" class="fil4" d="M126 96c-4,-1 -7,2 -7,5 -1,4 2,7 5,7 4,0 7,-2 7,-6 1,-3 -2,-6 -5,-6zm-1 1c3,0 5,3 5,5 0,3 -3,5 -5,5 -3,-1 -5,-3 -5,-6 0,-2 3,-4 5,-4z"/>
      <path id="svg_38" class="fil4" d="M126 96c-4,-1 -7,2 -7,5 0,4 2,7 5,7 4,0 7,-2 7,-6 0,-3 -2,-6 -5,-6zm-1 1c3,0 5,2 5,5 0,3 -3,5 -6,5 -2,0 -4,-3 -4,-6 0,-2 3,-5 5,-4z"/>
     </g>
    </g>
   </g>
   <g>
    <circle id="svg_39" class="fil4" transform="matrix(0.0572967 0.00532659 -0.00532659 0.0572967 129.016 95.7964)" r="20"/>
    <circle id="svg_40" class="fil4" transform="matrix(0.0572967 0.00532659 -0.00532659 0.0572967 118.862 98.12)" r="20"/>
    <circle id="svg_41" class="fil4" transform="matrix(0.0572967 0.00532659 -0.00532659 0.0572967 120.928 108.113)" r="20"/>
    <circle id="svg_42" class="fil4" transform="matrix(0.0572967 0.00532659 -0.00532659 0.0572967 131.621 105.84)" r="20"/>
   </g>
  </g>
  <circle id="svg_43" class="fil2" transform="matrix(0.0572967 0.00532659 -0.00532659 0.0572967 124.95 101.885)" r="107"/>
 </g>
</svg>
