<?xml version="1.0" encoding="UTF-8" standalone="no"?>
<!-- Created with Inkscape (http://www.inkscape.org/) -->

<svg
   xmlns:dc="http://purl.org/dc/elements/1.1/"
   xmlns:cc="http://creativecommons.org/ns#"
   xmlns:rdf="http://www.w3.org/1999/02/22-rdf-syntax-ns#"
   xmlns:svg="http://www.w3.org/2000/svg"
   xmlns="http://www.w3.org/2000/svg"
   xmlns:sodipodi="http://sodipodi.sourceforge.net/DTD/sodipodi-0.dtd"
   xmlns:inkscape="http://www.inkscape.org/namespaces/inkscape"
   id="svg2"
   version="1.1"
   inkscape:version="0.48.3.1 r9886"
   width="80"
   height="80"
   xml:space="preserve"
   sodipodi:docname="Elegant_circle-icons_3.ai"><metadata
     id="metadata8"><rdf:RDF><cc:Work
         rdf:about=""><dc:format>image/svg+xml</dc:format><dc:type
           rdf:resource="http://purl.org/dc/dcmitype/StillImage" /><dc:title></dc:title></cc:Work></rdf:RDF></metadata><defs
     id="defs6"><clipPath
       clipPathUnits="userSpaceOnUse"
       id="clipPath16"><path
         d="M 0,64 64,64 64,0 0,0 0,64 z"
         id="path18" /></clipPath><clipPath
       clipPathUnits="userSpaceOnUse"
       id="clipPath28"><path
         d="m 9,44.3637 46,0 L 55,16 9,16 9,44.3637 z"
         id="path30" /></clipPath></defs><sodipodi:namedview
     pagecolor="#ffffff"
     bordercolor="#666666"
     borderopacity="1"
     objecttolerance="10"
     gridtolerance="10"
     guidetolerance="10"
     inkscape:pageopacity="0"
     inkscape:pageshadow="2"
     inkscape:window-width="640"
     inkscape:window-height="480"
     id="namedview4"
     showgrid="false"
     inkscape:zoom="3.5261719"
     inkscape:cx="40"
     inkscape:cy="40"
     inkscape:window-x="0"
     inkscape:window-y="0"
     inkscape:window-maximized="0"
     inkscape:current-layer="g10" /><g
     id="g10"
     inkscape:groupmode="layer"
     inkscape:label="Elegant_circle-icons_3"
     transform="matrix(1.25,0,0,-1.25,0,80)"><g
       id="g12"><g
         id="g14"
         clip-path="url(#clipPath16)"><g
           id="g20"
           transform="translate(64,32)"><path
             d="m 0,0 c 0,-17.673 -14.327,-32 -32,-32 -17.673,0 -32,14.327 -32,32 0,17.673 14.327,32 32,32 C -14.327,32 0,17.673 0,0"
             style="fill:#76c2af;fill-opacity:1;fill-rule:nonzero;stroke:none"
             id="path22" /></g><g
           id="g24"><g
             id="g26" /><g
             id="g32"><g
               clip-path="url(#clipPath28)"
               opacity="0.199997"
               id="g34"><g
                 transform="translate(32,24.2005)"
                 id="g36"><path
                   d="m 0,0 c 9.2,0 9.55,-3.051 13,-6.102 3.45,-3.052 10,-4.064 10,6.102 0,10.166 -4.6,16.273 -4.6,16.273 0,0 -4.4,7.526 -10.4,1.642 -4.274,-4.192 -11.726,-4.192 -16,0 -6,5.884 -10.4,-1.642 -10.4,-1.642 0,0 -4.6,-6.107 -4.6,-16.273 0,-10.166 6.55,-9.154 10,-6.102 C -9.55,-3.051 -9.2,0 0,0"
                   style="fill:#231f20;fill-opacity:1;fill-rule:nonzero;stroke:none"
                   id="path38" /></g></g></g></g><g
           id="g40"
           transform="translate(32,27.2005)"><path
             d="m 0,0 c 9.2,0 9.55,-3.051 13,-6.102 3.45,-3.052 10,-4.064 10,6.102 0,10.166 -4.6,16.273 -4.6,16.273 0,0 -4.4,7.526 -10.4,1.642 -4.274,-4.192 -11.726,-4.192 -16,0 -6,5.884 -10.4,-1.642 -10.4,-1.642 0,0 -4.6,-6.107 -4.6,-16.273 0,-10.166 6.55,-9.154 10,-6.102 C -9.55,-3.051 -9.2,0 0,0"
             style="fill:#4f5d73;fill-opacity:1;fill-rule:nonzero;stroke:none"
             id="path42" /></g><g
           id="g44"
           transform="translate(46,30)"><path
             d="m 0,0 c 0,-1.105 -0.895,-2 -2,-2 -1.105,0 -2,0.895 -2,2 0,1.105 0.895,2 2,2 1.105,0 2,-0.895 2,-2"
             style="fill:#e0e0d1;fill-opacity:1;fill-rule:nonzero;stroke:none"
             id="path46" /></g><g
           id="g48"
           transform="translate(50,35)"><path
             d="m 0,0 c 0,-1.105 -0.895,-2 -2,-2 -1.105,0 -2,0.895 -2,2 0,1.105 0.895,2 2,2 1.105,0 2,-0.895 2,-2"
             style="fill:#e0e0d1;fill-opacity:1;fill-rule:nonzero;stroke:none"
             id="path50" /></g><g
           id="g52"
           transform="translate(19,28.5046)"><path
             d="M 0,0 C 0,-0.831 -0.672,-1.505 -1.5,-1.505 -2.328,-1.505 -3,-0.831 -3,0 l 0,6.991 c 0,0.831 0.672,1.504 1.5,1.504 0.828,0 1.5,-0.673 1.5,-1.504 L 0,0 z"
             style="fill:#e0e0d1;fill-opacity:1;fill-rule:nonzero;stroke:none"
             id="path54" /></g><g
           id="g56"
           transform="translate(14.0046,30.5)"><path
             d="M 0,0 C -0.831,0 -1.505,0.672 -1.505,1.5 -1.505,2.328 -0.831,3 0,3 L 6.991,3 C 7.822,3 8.495,2.328 8.495,1.5 8.495,0.672 7.822,0 6.991,0 L 0,0 z"
             style="fill:#e0e0d1;fill-opacity:1;fill-rule:nonzero;stroke:none"
             id="path58" /></g></g></g></g></svg>