<?xml version="1.0" encoding="UTF-8" standalone="no"?>
<!-- Created with Inkscape (http://www.inkscape.org/) -->

<svg
   xmlns:dc="http://purl.org/dc/elements/1.1/"
   xmlns:cc="http://creativecommons.org/ns#"
   xmlns:rdf="http://www.w3.org/1999/02/22-rdf-syntax-ns#"
   xmlns:svg="http://www.w3.org/2000/svg"
   xmlns="http://www.w3.org/2000/svg"
   xmlns:sodipodi="http://sodipodi.sourceforge.net/DTD/sodipodi-0.dtd"
   xmlns:inkscape="http://www.inkscape.org/namespaces/inkscape"
   id="svg2"
   version="1.1"
   inkscape:version="0.48.3.1 r9886"
   width="80"
   height="80"
   xml:space="preserve"
   sodipodi:docname="play.eps"><metadata
     id="metadata8"><rdf:RDF><cc:Work
         rdf:about=""><dc:format>image/svg+xml</dc:format><dc:type
           rdf:resource="http://purl.org/dc/dcmitype/StillImage" /><dc:title></dc:title></cc:Work></rdf:RDF></metadata><defs
     id="defs6" /><sodipodi:namedview
     pagecolor="#ffffff"
     bordercolor="#666666"
     borderopacity="1"
     objecttolerance="10"
     gridtolerance="10"
     guidetolerance="10"
     inkscape:pageopacity="0"
     inkscape:pageshadow="2"
     inkscape:window-width="640"
     inkscape:window-height="480"
     id="namedview4"
     showgrid="false"
     inkscape:zoom="3.5261719"
     inkscape:cx="40"
     inkscape:cy="40"
     inkscape:window-x="0"
     inkscape:window-y="0"
     inkscape:window-maximized="0"
     inkscape:current-layer="g10" /><g
     id="g10"
     inkscape:groupmode="layer"
     inkscape:label="ink_ext_XXXXXX"
     transform="matrix(1.25,0,0,-1.25,0,80)"><g
       id="g12"
       transform="scale(0.1,0.1)"><path
         d="M 640,320 C 640,143.27 496.73,0 320,0 143.27,0 0,143.27 0,320 0,496.73 143.27,640 320,640 496.73,640 640,496.73 640,320"
         style="fill:#c84755;fill-opacity:1;fill-rule:nonzero;stroke:none"
         id="path14" /><path
         d="m 320,80 c -121.504,0 -220,98.496 -220,220 0,121.504 98.496,220 220,220 121.504,0 220,-98.496 220,-220 C 540,178.496 441.504,80 320,80 m 0,400 c -99.254,0 -180,-80.746 -180,-180 0,-99.254 80.746,-180 180,-180 99.254,0 180,80.746 180,180 0,99.254 -80.746,180 -180,180"
         style="fill:#a43f4a;fill-opacity:1;fill-rule:nonzero;stroke:none"
         id="path16" /><path
         d="m 280,193.812 c -3.453,0 -6.902,0.895 -10,2.68 -6.188,3.57 -10,10.18 -10,17.32 l 0,172.376 c 0,7.14 3.812,13.75 10,17.32 3.094,1.785 6.547,2.68 10,2.68 3.453,0 6.902,-0.895 10,-2.68 L 410,317.32 c 6.188,-3.57 10,-10.175 10,-17.32 0,-7.145 -3.812,-13.75 -10,-17.32 L 290,196.492 c -3.098,-1.785 -6.547,-2.68 -10,-2.68"
         style="fill:#a43f4a;fill-opacity:1;fill-rule:nonzero;stroke:none"
         id="path18" /><path
         d="m 320,540 c -121.504,0 -220,-98.496 -220,-220 0,-121.504 98.496,-220 220,-220 121.504,0 220,98.496 220,220 0,121.504 -98.496,220 -220,220 z m 0,-40 c 99.254,0 180,-80.746 180,-180 0,-99.254 -80.746,-180 -180,-180 -99.254,0 -180,80.746 -180,180 0,99.254 80.746,180 180,180"
         style="fill:#e1e3cc;fill-opacity:1;fill-rule:nonzero;stroke:none"
         id="path20" /><path
         d="m 280,213.812 c -3.453,0 -6.902,0.895 -10,2.68 -6.188,3.57 -10,10.18 -10,17.32 l 0,172.376 c 0,7.14 3.812,13.75 10,17.32 6.191,3.57 13.809,3.57 20,0 L 410,337.32 c 6.188,-3.57 10,-10.175 10,-17.32 0,-7.145 -3.812,-13.75 -10,-17.32 L 290,216.492 c -3.098,-1.785 -6.547,-2.68 -10,-2.68"
         style="fill:#f3cc70;fill-opacity:1;fill-rule:nonzero;stroke:none"
         id="path22" /></g></g></svg>