<?xml version="1.0" encoding="UTF-8" standalone="no"?>
<!-- Created with Inkscape (http://www.inkscape.org/) -->

<svg
   xmlns:dc="http://purl.org/dc/elements/1.1/"
   xmlns:cc="http://creativecommons.org/ns#"
   xmlns:rdf="http://www.w3.org/1999/02/22-rdf-syntax-ns#"
   xmlns:svg="http://www.w3.org/2000/svg"
   xmlns="http://www.w3.org/2000/svg"
   xmlns:sodipodi="http://sodipodi.sourceforge.net/DTD/sodipodi-0.dtd"
   xmlns:inkscape="http://www.inkscape.org/namespaces/inkscape"
   id="svg2"
   version="1.1"
   inkscape:version="0.48.3.1 r9886"
   width="80"
   height="80"
   xml:space="preserve"
   sodipodi:docname="profle.svg"><metadata
     id="metadata8"><rdf:RDF><cc:Work
         rdf:about=""><dc:format>image/svg+xml</dc:format><dc:type
           rdf:resource="http://purl.org/dc/dcmitype/StillImage" /><dc:title /></cc:Work></rdf:RDF></metadata><defs
     id="defs6" /><sodipodi:namedview
     pagecolor="#ffffff"
     bordercolor="#666666"
     borderopacity="1"
     objecttolerance="10"
     gridtolerance="10"
     guidetolerance="10"
     inkscape:pageopacity="0"
     inkscape:pageshadow="2"
     inkscape:window-width="1366"
     inkscape:window-height="735"
     id="namedview4"
     showgrid="false"
     inkscape:zoom="7.7272751"
     inkscape:cx="6.2604807"
     inkscape:cy="40"
     inkscape:window-x="0"
     inkscape:window-y="0"
     inkscape:window-maximized="1"
     inkscape:current-layer="g12" /><g
     id="g10"
     inkscape:groupmode="layer"
     inkscape:label="ink_ext_XXXXXX"
     transform="matrix(1.25,0,0,-1.25,0,80)"><g
       id="g12"
       transform="scale(0.1,0.1)"><path
         d="M 640,320 C 640,143.27 496.73,0 320,0 143.27,0 0,143.27 0,320 0,496.73 143.27,640 320,640 496.73,640 640,496.73 640,320"
         style="fill:#dcb137;fill-opacity:1;fill-rule:nonzero;stroke:none"
         id="path14" /><path
         d="m 320,60 -0.25,0.0078 -0.988,0.0234 c -69.645,0.3555 -152.266,30.3555 -195.891,78.0468 17.031,8.684 56.496,17.113 78.082,26.492 39.977,17.371 53.43,44.836 56.969,67.758 -23.82,20.578 -43.129,51.11 -55,84.383 -16.707,18.176 -26.629,38.066 -26.629,54.477 0,11.64 5.094,19.406 13.934,24.691 3.425,79.984 60.734,143.691 131.253,144.086 l 0.645,0.035 1.648,-0.094 c 70.969,-1.008 128.356,-66.086 130.387,-147.14 6.074,-5.125 9.547,-12.032 9.547,-21.578 0,-13.95 -7.219,-30.411 -19.605,-46.204 -12.047,-38.168 -33.957,-73.582 -61.481,-95.726 4.258,-22.266 18.215,-48.082 56.426,-64.688 21.586,-9.379 61.051,-17.808 78.082,-26.492 C 473.246,90.1016 390.141,60 320,60"
         style="fill:#404a5f;fill-opacity:1;fill-rule:nonzero;stroke:none"
         id="path16" /><path
         d="m 439.047,184.57 c -38.211,16.606 -52.168,42.422 -56.426,64.688 27.524,22.144 49.434,57.558 61.481,95.726 12.386,15.793 19.605,32.254 19.605,46.204 0,9.546 -3.473,16.453 -9.547,21.578 -2.031,81.054 -59.418,146.132 -130.387,147.14 L 322.125,560 321.48,559.961 C 250.961,559.57 193.652,495.863 190.227,415.875 c -8.84,-5.281 -13.934,-13.047 -13.934,-24.687 0,-16.411 9.922,-36.301 26.629,-54.477 11.871,-33.273 31.18,-63.805 55,-84.383 -3.539,-22.922 -16.992,-50.387 -56.969,-67.758 -21.586,-9.379 -61.051,-17.808 -78.082,-26.492 43.625,-47.691 126.246,-77.6913 195.891,-78.0468 L 319.75,80.0078 320,80 c 70.141,0 153.246,30.102 197.129,78.078 -17.031,8.684 -56.496,17.113 -78.082,26.492"
         style="fill:#ffffff;fill-opacity:1;fill-rule:nonzero;stroke:none"
         id="path18" /></g></g></svg>