<?xml version="1.0" encoding="UTF-8" standalone="no"?>
<!-- Created with Inkscape (http://www.inkscape.org/) -->

<svg
   xmlns:dc="http://purl.org/dc/elements/1.1/"
   xmlns:cc="http://creativecommons.org/ns#"
   xmlns:rdf="http://www.w3.org/1999/02/22-rdf-syntax-ns#"
   xmlns:svg="http://www.w3.org/2000/svg"
   xmlns="http://www.w3.org/2000/svg"
   xmlns:sodipodi="http://sodipodi.sourceforge.net/DTD/sodipodi-0.dtd"
   xmlns:inkscape="http://www.inkscape.org/namespaces/inkscape"
   id="svg2"
   version="1.1"
   inkscape:version="0.48.3.1 r9886"
   width="80"
   height="80"
   xml:space="preserve"
   sodipodi:docname="Elegant_circle-icons_2.ai"><metadata
     id="metadata8"><rdf:RDF><cc:Work
         rdf:about=""><dc:format>image/svg+xml</dc:format><dc:type
           rdf:resource="http://purl.org/dc/dcmitype/StillImage" /><dc:title></dc:title></cc:Work></rdf:RDF></metadata><defs
     id="defs6"><clipPath
       clipPathUnits="userSpaceOnUse"
       id="clipPath16"><path
         d="M 0,64 64,64 64,0 0,0 0,64 z"
         id="path18" /></clipPath><clipPath
       clipPathUnits="userSpaceOnUse"
       id="clipPath28"><path
         d="m 21,47.2655 5,0 0,-38.53097 -5,0 0,38.53097 z"
         id="path30" /></clipPath><clipPath
       clipPathUnits="userSpaceOnUse"
       id="clipPath44"><path
         d="m 38,47.2655 5,0 0,-38.53097 -5,0 0,38.53097 z"
         id="path46" /></clipPath><clipPath
       clipPathUnits="userSpaceOnUse"
       id="clipPath72"><path
         d="m 18,31 16.5628,0 0,-20 L 18,11 18,31 z"
         id="path74" /></clipPath><clipPath
       clipPathUnits="userSpaceOnUse"
       id="clipPath88"><path
         d="M 29.4372,31 46,31 l 0,-20 -16.5628,0 0,20 z"
         id="path90" /></clipPath><clipPath
       clipPathUnits="userSpaceOnUse"
       id="clipPath104"><path
         d="M 27,47 37,47 37,7 27,7 27,47 z"
         id="path106" /></clipPath><clipPath
       clipPathUnits="userSpaceOnUse"
       id="clipPath120"><path
         d="m 18,35 16.5628,0 0,-20 L 18,15 18,35 z"
         id="path122" /></clipPath><clipPath
       clipPathUnits="userSpaceOnUse"
       id="clipPath136"><path
         d="M 29.4372,35 46,35 l 0,-20 -16.5628,0 0,20 z"
         id="path138" /></clipPath><clipPath
       clipPathUnits="userSpaceOnUse"
       id="clipPath152"><path
         d="m 25,49 14,0 0,-38.0133 -14,0 L 25,49 z"
         id="path154" /></clipPath></defs><sodipodi:namedview
     pagecolor="#ffffff"
     bordercolor="#666666"
     borderopacity="1"
     objecttolerance="10"
     gridtolerance="10"
     guidetolerance="10"
     inkscape:pageopacity="0"
     inkscape:pageshadow="2"
     inkscape:window-width="640"
     inkscape:window-height="480"
     id="namedview4"
     showgrid="false"
     inkscape:zoom="3.5261719"
     inkscape:cx="40"
     inkscape:cy="40"
     inkscape:window-x="0"
     inkscape:window-y="0"
     inkscape:window-maximized="0"
     inkscape:current-layer="g10" /><g
     id="g10"
     inkscape:groupmode="layer"
     inkscape:label="Elegant_circle-icons_2"
     transform="matrix(1.25,0,0,-1.25,0,80)"><g
       id="g12"><g
         id="g14"
         clip-path="url(#clipPath16)"><g
           id="g20"
           transform="translate(64,32)"><path
             d="m 0,0 c 0,-17.673 -14.327,-32 -32,-32 -17.673,0 -32,14.327 -32,32 0,17.673 14.327,32 32,32 C -14.327,32 0,17.673 0,0"
             style="fill:#4f5d73;fill-opacity:1;fill-rule:nonzero;stroke:none"
             id="path22" /></g><g
           id="g24"><g
             id="g26" /><g
             id="g32"><g
               clip-path="url(#clipPath28)"
               opacity="0.199997"
               id="g34"><g
                 transform="translate(26,11.2655)"
                 id="g36"><path
                   d="M 0,0 C 0,-1.398 -1.119,-2.531 -2.5,-2.531 -3.881,-2.531 -5,-1.398 -5,0 l 0,33.469 C -5,34.867 -3.881,36 -2.5,36 -1.119,36 0,34.867 0,33.469 L 0,0 z"
                   style="fill:#231f20;fill-opacity:1;fill-rule:nonzero;stroke:none"
                   id="path38" /></g></g></g></g><g
           id="g40"><g
             id="g42" /><g
             id="g48"><g
               clip-path="url(#clipPath44)"
               opacity="0.199997"
               id="g50"><g
                 transform="translate(43,11.2655)"
                 id="g52"><path
                   d="M 0,0 C 0,-1.398 -1.119,-2.531 -2.5,-2.531 -3.881,-2.531 -5,-1.398 -5,0 l 0,33.469 C -5,34.867 -3.881,36 -2.5,36 -1.119,36 0,34.867 0,33.469 L 0,0 z"
                   style="fill:#231f20;fill-opacity:1;fill-rule:nonzero;stroke:none"
                   id="path54" /></g></g></g></g><g
           id="g56"
           transform="translate(26,13)"><path
             d="M 0,0 C 0,-1.398 -1.119,-2.531 -2.5,-2.531 -3.881,-2.531 -5,-1.398 -5,0 l 0,33.469 C -5,34.867 -3.881,37 -2.5,37 -1.119,37 0,34.867 0,33.469 L 0,0 z"
             style="fill:#e0e0d1;fill-opacity:1;fill-rule:nonzero;stroke:none"
             id="path58" /></g><g
           id="g60"
           transform="translate(43,13)"><path
             d="M 0,0 C 0,-1.398 -1.119,-2.531 -2.5,-2.531 -3.881,-2.531 -5,-1.398 -5,0 l 0,33.469 C -5,34.867 -3.881,37 -2.5,37 -1.119,37 0,34.867 0,33.469 L 0,0 z"
             style="fill:#e0e0d1;fill-opacity:1;fill-rule:nonzero;stroke:none"
             id="path62" /></g><g
           id="g64"
           transform="translate(38,20.9691)"><path
             d="m 0,0 c 0,-3.297 -2.686,-5.969 -6,-5.969 -3.314,0 -6,2.672 -6,5.969 l 0,27.031 c 0,3.297 2.686,9 6,9 3.314,0 6,-5.703 6,-9 L 0,0 z"
             style="fill:#e0995e;fill-opacity:1;fill-rule:nonzero;stroke:none"
             id="path66" /></g><g
           id="g68"><g
             id="g70" /><g
             id="g76"><g
               clip-path="url(#clipPath72)"
               opacity="0.199997"
               id="g78"><g
                 transform="translate(34.5628,13)"
                 id="g80"><path
                   d="m 0,0 c 0,-1.105 -0.895,-2 -2,-2 l -11.563,0 c -1.104,0 -3,0.895 -3,2 l 0,3 c 0,1.105 1.823,2.216 3,3 6,4 6,12 6,12 C -6.458,18 0,13.105 0,12 L 0,0 z"
                   style="fill:#231f20;fill-opacity:1;fill-rule:nonzero;stroke:none"
                   id="path82" /></g></g></g></g><g
           id="g84"><g
             id="g86" /><g
             id="g92"><g
               clip-path="url(#clipPath88)"
               opacity="0.199997"
               id="g94"><g
                 transform="translate(29.4372,13)"
                 id="g96"><path
                   d="m 0,0 c 0,-1.105 0.895,-2 2,-2 l 11.563,0 c 1.104,0 3,0.895 3,2 l 0,3 c 0,1.105 -1.823,2.216 -3,3 -6,4 -6,12 -6,12 C 6.458,18 0,13.105 0,12 L 0,0 z"
                   style="fill:#231f20;fill-opacity:1;fill-rule:nonzero;stroke:none"
                   id="path98" /></g></g></g></g><g
           id="g100"><g
             id="g102" /><g
             id="g108"><g
               clip-path="url(#clipPath104)"
               opacity="0.199997"
               id="g110"><g
                 transform="translate(37,9.5309)"
                 id="g112"><path
                   d="m 0,0 c 0,-1.398 -2.239,-2.531 -5,-2.531 -2.761,0 -5,1.133 -5,2.531 l 0,30.469 c 0,1.398 2.239,7 5,7 2.761,0 5,-5.602 5,-7 L 0,0 z"
                   style="fill:#231f20;fill-opacity:1;fill-rule:nonzero;stroke:none"
                   id="path114" /></g></g></g></g><g
           id="g116"><g
             id="g118" /><g
             id="g124"><g
               clip-path="url(#clipPath120)"
               opacity="0.199997"
               id="g126"><g
                 transform="translate(34.5628,17)"
                 id="g128"><path
                   d="m 0,0 c 0,-1.105 -0.895,-2 -2,-2 l -11.563,0 c -1.104,0 -3,0.895 -3,2 l 0,3 c 0,1.105 1.823,2.216 3,3 6,4 6,12 6,12 C -6.458,18 0,13.105 0,12 L 0,0 z"
                   style="fill:#231f20;fill-opacity:1;fill-rule:nonzero;stroke:none"
                   id="path130" /></g></g></g></g><g
           id="g132"><g
             id="g134" /><g
             id="g140"><g
               clip-path="url(#clipPath136)"
               opacity="0.199997"
               id="g142"><g
                 transform="translate(29.4372,17)"
                 id="g144"><path
                   d="m 0,0 c 0,-1.105 0.895,-2 2,-2 l 11.563,0 c 1.104,0 3,0.895 3,2 l 0,3 c 0,1.105 -1.823,2.216 -3,3 -6,4 -6,12 -6,12 C 6.458,18 0,13.105 0,12 L 0,0 z"
                   style="fill:#231f20;fill-opacity:1;fill-rule:nonzero;stroke:none"
                   id="path146" /></g></g></g></g><g
           id="g148"><g
             id="g150" /><g
             id="g156"><g
               clip-path="url(#clipPath152)"
               opacity="0.199997"
               id="g158"><g
                 transform="translate(26,13)"
                 id="g160"><path
                   d="M 0,0 0,33.469 C 0,34.294 -0.396,35.538 -1,36 L -1,-2.013 C -0.396,-1.551 0,-0.825 0,0"
                   style="fill:#231f20;fill-opacity:1;fill-rule:nonzero;stroke:none"
                   id="path162" /></g><g
                 transform="translate(38,46.4691)"
                 id="g164"><path
                   d="m 0,0 0,-33.469 c 0,-0.825 0.396,-1.551 1,-2.013 L 1,2.531 C 0.396,2.069 0,0.825 0,0"
                   style="fill:#231f20;fill-opacity:1;fill-rule:nonzero;stroke:none"
                   id="path166" /></g></g></g></g><g
           id="g168"
           transform="translate(34.5628,15)"><path
             d="m 0,0 c 0,-1.105 -0.895,-2 -2,-2 l -11.563,0 c -1.104,0 -3,0.895 -3,2 l 0,3 c 0,1.105 1.823,2.216 3,3 6,4 6,12 6,12 C -6.458,18 0,13.105 0,12 L 0,0 z"
             style="fill:#e0e0d1;fill-opacity:1;fill-rule:nonzero;stroke:none"
             id="path170" /></g><g
           id="g172"
           transform="translate(29.4372,15)"><path
             d="m 0,0 c 0,-1.105 0.895,-2 2,-2 l 11.563,0 c 1.104,0 3,0.895 3,2 l 0,3 c 0,1.105 -1.823,2.216 -3,3 -6,4 -6,12 -6,12 C 6.458,18 0,13.105 0,12 L 0,0 z"
             style="fill:#e0e0d1;fill-opacity:1;fill-rule:nonzero;stroke:none"
             id="path174" /></g><g
           id="g176"
           transform="translate(37,11.5309)"><path
             d="m 0,0 c 0,-1.398 -2.239,-2.531 -5,-2.531 -2.761,0 -5,1.133 -5,2.531 l 0,30.469 c 0,1.398 2.239,7 5,7 2.761,0 5,-5.602 5,-7 L 0,0 z"
             style="fill:#ffffff;fill-opacity:1;fill-rule:nonzero;stroke:none"
             id="path178" /></g></g></g></g></svg>