<?xml version="1.0" encoding="UTF-8" standalone="no"?>
<!-- Created with Inkscape (http://www.inkscape.org/) -->

<svg
   xmlns:dc="http://purl.org/dc/elements/1.1/"
   xmlns:cc="http://creativecommons.org/ns#"
   xmlns:rdf="http://www.w3.org/1999/02/22-rdf-syntax-ns#"
   xmlns:svg="http://www.w3.org/2000/svg"
   xmlns="http://www.w3.org/2000/svg"
   xmlns:sodipodi="http://sodipodi.sourceforge.net/DTD/sodipodi-0.dtd"
   xmlns:inkscape="http://www.inkscape.org/namespaces/inkscape"
   id="svg2"
   version="1.1"
   inkscape:version="0.48.3.1 r9886"
   width="80"
   height="80"
   xml:space="preserve"
   sodipodi:docname="Elegant_circle-icons.ai"><metadata
     id="metadata8"><rdf:RDF><cc:Work
         rdf:about=""><dc:format>image/svg+xml</dc:format><dc:type
           rdf:resource="http://purl.org/dc/dcmitype/StillImage" /><dc:title></dc:title></cc:Work></rdf:RDF></metadata><defs
     id="defs6"><clipPath
       clipPathUnits="userSpaceOnUse"
       id="clipPath16"><path
         d="M 0,64 64,64 64,0 0,0 0,64 z"
         id="path18" /></clipPath><clipPath
       clipPathUnits="userSpaceOnUse"
       id="clipPath28"><path
         d="m 11,51.1014 42,0 0,-40.2028 -42,0 0,40.2028 z"
         id="path30" /></clipPath></defs><sodipodi:namedview
     pagecolor="#ffffff"
     bordercolor="#666666"
     borderopacity="1"
     objecttolerance="10"
     gridtolerance="10"
     guidetolerance="10"
     inkscape:pageopacity="0"
     inkscape:pageshadow="2"
     inkscape:window-width="640"
     inkscape:window-height="480"
     id="namedview4"
     showgrid="false"
     inkscape:zoom="3.5261719"
     inkscape:cx="40"
     inkscape:cy="40"
     inkscape:window-x="0"
     inkscape:window-y="0"
     inkscape:window-maximized="0"
     inkscape:current-layer="g10" /><g
     id="g10"
     inkscape:groupmode="layer"
     inkscape:label="Elegant_circle-icons"
     transform="matrix(1.25,0,0,-1.25,0,80)"><g
       id="g12"><g
         id="g14"
         clip-path="url(#clipPath16)"><g
           id="g20"
           transform="translate(64,32)"><path
             d="m 0,0 c 0,-17.673 -14.327,-32 -32,-32 -17.673,0 -32,14.327 -32,32 0,17.673 14.327,32 32,32 C -14.327,32 0,17.673 0,0"
             style="fill:#c75c5c;fill-opacity:1;fill-rule:nonzero;stroke:none"
             id="path22" /></g><g
           id="g24"><g
             id="g26" /><g
             id="g32"><g
               clip-path="url(#clipPath28)"
               opacity="0.199997"
               id="g34"><g
                 transform="translate(52.8722,35.937)"
                 id="g36"><path
                   d="m 0,0 c -0.31,0.951 -1.133,1.645 -2.121,1.79 l -11.327,1.645 -5.067,10.263 c -0.444,0.899 -1.356,1.466 -2.358,1.466 -1.001,0 -1.913,-0.567 -2.357,-1.466 L -28.295,3.435 -39.622,1.79 C -40.613,1.645 -41.435,0.951 -41.743,0 c -0.31,-0.951 -0.052,-1.995 0.665,-2.694 l 8.197,-7.989 -1.934,-11.283 c -0.168,-0.986 0.236,-1.982 1.046,-2.57 0.455,-0.334 0.996,-0.502 1.543,-0.502 0.418,0 0.838,0.099 1.222,0.302 l 10.131,5.327 10.132,-5.327 c 0.383,-0.203 0.804,-0.302 1.222,-0.302 0.544,0 1.088,0.168 1.545,0.502 0.81,0.588 1.214,1.584 1.046,2.57 l -1.934,11.283 8.197,7.989 C 0.05,-1.997 0.307,-0.951 0,0"
                   style="fill:#231f20;fill-opacity:1;fill-rule:nonzero;stroke:none"
                   id="path38" /></g></g></g></g><g
           id="g40"
           transform="translate(52.8722,37.937)"><path
             d="m 0,0 c -0.31,0.951 -1.133,1.645 -2.121,1.79 l -11.327,1.645 -5.067,10.263 c -0.444,0.899 -1.356,1.466 -2.358,1.466 -1.001,0 -1.913,-0.567 -2.357,-1.466 L -28.295,3.435 -39.622,1.79 C -40.613,1.645 -41.435,0.951 -41.743,0 c -0.31,-0.951 -0.052,-1.995 0.665,-2.694 l 8.197,-7.989 -1.934,-11.283 c -0.168,-0.986 0.236,-1.982 1.046,-2.57 0.455,-0.334 0.996,-0.502 1.543,-0.502 0.418,0 0.838,0.099 1.222,0.302 l 10.131,5.327 10.132,-5.327 c 0.383,-0.203 0.804,-0.302 1.222,-0.302 0.544,0 1.088,0.168 1.545,0.502 0.81,0.588 1.214,1.584 1.046,2.57 l -1.934,11.283 8.197,7.989 C 0.05,-1.997 0.307,-0.951 0,0"
             style="fill:#f5cf87;fill-opacity:1;fill-rule:nonzero;stroke:none"
             id="path42" /></g></g></g></g></svg>