<?xml version="1.0" encoding="UTF-8"?>
<!DOCTYPE svg PUBLIC "-//W3C//DTD SVG 1.1//EN" "http://www.w3.org/Graphics/SVG/1.1/DTD/svg11.dtd">
<!-- Creator: CorelDRAW X7 -->
<svg xmlns="http://www.w3.org/2000/svg" xml:space="preserve" width="8.5in" height="11in" version="1.1" style="shape-rendering:geometricPrecision; text-rendering:geometricPrecision; image-rendering:optimizeQuality; fill-rule:evenodd; clip-rule:evenodd"
viewBox="0 0 8500 11000"
 xmlns:xlink="http://www.w3.org/1999/xlink">
 <defs>
  <style type="text/css">
   <![CDATA[
    .str0 {stroke:#2B2A29;stroke-width:196.85}
    .fil0 {fill:#FEFEFE}
   ]]>
  </style>
 </defs>
 <g id="Слой_x0020_1">
  <metadata id="CorelCorpID_0Corel-Layer"/>
  <path class="fil0 str0" d="M2910 7602l-2512 -2513c-322,-322 -322,-798 0,-1121l2512 -2512c322,-322 812,-335 1134,-13 309,309 271,825 -26,1134 -378,373 -756,747 -1133,1121l4393 0c219,0 438,90 580,257 360,387 270,1070 -194,1327 -116,65 -257,104 -386,104l-4394 0c-90,-78 1121,1120 1134,1120 297,297 335,825 26,1121 -309,310 -812,297 -1134,-25z"/>
  <g id="_2100823902640">
  </g>
  <g id="_2100823904464">
  </g>
  <g id="_2100823902928">
  </g>
  <g id="_2100823900528">
  </g>
  <g id="_2100823902384">
  </g>
  <g id="_2100823901072">
  </g>
  <g id="_2100823901552">
  </g>
  <g id="_2100823902224">
  </g>
  <g id="_2100823901680">
  </g>
  <g id="_2100823900336">
  </g>
  <g id="_2100823900272">
  </g>
  <g id="_2100823899632">
  </g>
  <g id="_2100823899056">
  </g>
  <g id="_2100823900176">
  </g>
  <g id="_2100823899344">
  </g>
 </g>
</svg>
