<?xml version="1.0" encoding="UTF-8"?>
<!DOCTYPE svg PUBLIC "-//W3C//DTD SVG 1.1//EN" "http://www.w3.org/Graphics/SVG/1.1/DTD/svg11.dtd">
<!-- Creator: CorelDRAW X7 -->
<svg xmlns="http://www.w3.org/2000/svg" xml:space="preserve" width="8.5in" height="11in" version="1.1" style="shape-rendering:geometricPrecision; text-rendering:geometricPrecision; image-rendering:optimizeQuality; fill-rule:evenodd; clip-rule:evenodd"
viewBox="0 0 8500 11000"
 xmlns:xlink="http://www.w3.org/1999/xlink">
 <defs>
  <style type="text/css">
   <![CDATA[
    .str0 {stroke:#2B2A29;stroke-width:29.5276}
    .fil3 {fill:none}
    .fil2 {fill:#2B2A29}
    .fil1 {fill:#6BBA70}
    .fil0 {fill:#6BBA70;fill-rule:nonzero}
   ]]>
  </style>
 </defs>
 <g id="Слой_x0020_2">
  <metadata id="CorelCorpID_0Corel-Layer"/>
  <g id="_2202077249088">
   <path class="fil0 str0" d="M3425 3799c-64,-283 -129,-566 -194,-849 -86,-377 677,-551 763,-174 65,283 129,565 194,848 -254,58 -509,116 -763,175z"/>
   <rect class="fil1 str0" transform="matrix(30.0307 -6.86791 2.45717 10.7442 3926.83 3637.36)" width="5.12598" height="20.5"/>
   <rect class="fil1 str0" transform="matrix(30.0307 -6.86791 2.45717 10.7442 3504.64 3733.83)" width="5.12598" height="20.5"/>
   <rect class="fil1 str0" transform="matrix(15.3937 -3.52048 3.52048 15.3937 3223.93 3796.13)" width="74.3268" height="5.98031"/>
  </g>
  <path class="fil0 str0" d="M4541 3835c-64,-283 -129,-565 -194,-848 -86,-377 677,-552 763,-175 65,283 129,566 194,849 -254,58 -509,116 -763,174z"/>
  <rect class="fil1 str0" transform="matrix(30.0307 -6.86791 2.45717 10.7442 4620.68 3770.43)" width="5.12598" height="20.5"/>
  <g id="_2202077245536">
   <path class="fil0 str0" d="M4218 3287c-64,-282 -129,-565 -194,-848 -86,-377 677,-551 763,-174 65,282 130,565 194,848 -254,58 -508,116 -763,174z"/>
   <rect class="fil1 str0" transform="matrix(30.0307 -6.86791 2.45717 10.7442 4720.06 3126.15)" width="5.12598" height="20.5"/>
   <rect class="fil1 str0" transform="matrix(30.0307 -6.86791 2.45717 10.7442 4297.87 3222.62)" width="5.12598" height="20.5"/>
   <rect class="fil1 str0" transform="matrix(15.3937 -3.52048 3.52048 15.3937 4017.16 3284.93)" width="74.3268" height="5.98031"/>
  </g>
  <path class="fil0 str0" d="M3249 4460c-65,-282 -129,-565 -194,-848 -86,-377 676,-551 763,-174 64,282 129,565 194,848 -255,58 -509,116 -763,174z"/>
  <rect class="fil1 str0" transform="matrix(30.0307 -6.86791 2.45717 10.7442 3750.49 4299.26)" width="5.12598" height="20.5"/>
  <rect class="fil1 str0" transform="matrix(30.0307 -6.86791 2.45717 10.7442 3328.3 4395.73)" width="5.12598" height="20.5"/>
  <path class="fil0 str0" d="M3778 4546c-102,-421 -203,-841 -304,-1262 -136,-562 1000,-835 1135,-274 102,421 203,842 304,1263 -378,91 -757,182 -1135,273z"/>
  <rect class="fil1 str0" transform="matrix(44.7052 -10.7702 3.85333 15.9944 3927.02 4554.77)" width="5.12598" height="20.5"/>
  <path class="fil0 str0" d="M5094 3631c-102,-421 -203,-841 -305,-1262 -135,-562 1001,-835 1136,-274 53,220 107,441 159,661 19,78 -683,780 -990,875z"/>
  <path class="fil0 str0" d="M3566 5797c-102,-421 -203,-842 -305,-1263 -135,-561 1001,-835 1136,-274 40,165 164,330 119,493 -170,616 -179,567 -383,907 -100,167 -378,91 -567,137z"/>
 </g>
 <g id="Слой_x0020_3">
  <metadata id="CorelCorpID_1Corel-Layer"/>
  <g id="_2202077240832">
   <path class="fil2" d="M2565 7220c264,577 669,919 1266,1139 536,198 1055,0 1596,-76 648,-92 1219,-240 1816,-525 177,-85 259,-136 415,-250 36,-27 62,-19 107,-16 -42,0 -69,-5 -100,22 -148,130 -226,189 -398,290 -580,342 -1150,544 -1800,694 -625,144 -1092,389 -1746,211 -749,-204 -1260,-593 -1641,-1263l485 -226z"/>
  </g>
  <path class="fil3" d="M2323 7333c201,431 530,765 959,988 1005,524 1231,213 2368,34 475,-74 1635,-492 2011,-844 30,-28 66,-19 104,-19"/>
  <g id="_2202077240672">
   <path class="fil2" d="M4955 8385c136,-613 91,-1364 -69,-1969 -135,-512 444,-372 720,-395 168,-14 381,-58 561,-77 108,-11 806,-122 846,57 10,44 31,375 42,458 49,373 118,767 194,1136 -141,-463 -306,-1046 -376,-1526 -123,-8 -367,36 -468,54 -263,47 -521,125 -764,169 -80,14 -303,23 -422,40 244,591 338,1539 261,2156l-525 -103z"/>
  </g>
  <path class="fil3" d="M5218 8436c106,-541 30,-1533 -172,-2079 -106,-286 346,-125 720,-229 109,-30 1168,-213 1175,-108 32,478 308,1580 308,1575"/>
  <g id="_2202077241504">
   <path class="fil2" d="M3379 8308c205,-800 -153,-1007 251,-2072 504,-1331 945,-2662 2198,-3487 859,-566 1955,-530 2497,417 278,486 263,916 -46,1378 -338,505 -987,998 -862,1658 55,291 528,1665 439,1823 -190,335 -3097,1596 -3513,1539 -370,-52 -1482,-667 -1772,-934 -155,-142 -145,-167 -337,-312 197,141 186,165 345,303 290,253 1418,841 1779,879 410,43 3018,-1206 3346,-1547 0,-246 -423,-1352 -497,-1705 -175,-842 575,-1329 927,-1982 285,-529 -110,-1231 -607,-1439 -1148,-480 -2244,759 -2709,1671 -228,446 -837,2034 -886,2496 -59,560 124,749 -37,1457l-516 -143z"/>
  </g>
  <path class="fil3" d="M3637 8380c220,-798 -176,-1031 217,-2058 345,-902 643,-1948 1296,-2701 608,-700 1466,-1368 2442,-942 515,224 1032,1027 659,1656 -448,757 -943,965 -961,1733 -7,281 566,1774 492,1919 -144,282 -3087,1623 -3431,1545 -437,-100 -1531,-635 -1843,-972 -81,-87 -166,-189 -274,-242"/>
  <g id="_2202077239040">
   <path class="fil2" d="M1930 7958c-165,-697 -494,-1237 -453,-1982 10,-183 -159,-385 -200,-663 -67,-446 68,-882 143,-1316 44,-250 103,-461 337,-600l167 -73c-163,94 -250,129 -335,309 -68,143 -113,771 -125,965 -59,972 298,895 330,1393 42,651 436,1218 651,1823l-515 144z"/>
  </g>
  <path class="fil3" d="M2187 7886c-164,-591 -581,-1274 -552,-1902 18,-384 -454,-380 -196,-1745 54,-286 -12,-727 485,-915"/>
  <g id="_2202077239616">
   <path class="fil2" d="M1932 7950c343,-1392 322,-2004 -23,-3383 -240,-956 185,-2058 1009,-2606 418,-278 1600,-608 2101,-556 645,68 1072,479 1239,1093 -80,-243 -163,-417 -345,-603 -502,-512 -1093,-444 -1716,-259 -863,254 -1476,513 -1853,1398 -235,550 -242,992 -61,1552 422,1302 426,2151 171,3480l-522 -116z"/>
  </g>
  <path class="fil3" d="M2193 8008c299,-1341 286,-2182 -117,-3493 -269,-874 177,-1963 901,-2471 351,-246 1460,-598 1917,-598 654,0 1199,409 1364,1052"/>
  <g id="_2202077239488">
   <path class="fil2" d="M2523 2559c-576,3 -1496,307 -1786,842 -289,530 -287,948 -338,1529 -55,618 343,606 473,1316 191,1043 -291,1340 611,2343 151,167 646,-145 772,-251 -115,110 -232,190 -377,258 -302,142 -357,114 -538,-81 -737,-800 -505,-1025 -619,-1944 -122,-979 -640,-829 -617,-1666 17,-634 -4,-1072 274,-1670 341,-734 1380,-1160 2145,-1211l0 535z"/>
  </g>
  <path class="fil3" d="M2523 2292c-629,0 -1688,425 -1966,1026 -317,687 -241,826 -306,1600 -71,844 580,517 580,2022 0,857 73,1040 632,1667 152,169 677,-143 792,-269"/>
  <g id="_2202077237120">
   <path class="fil2" d="M2036 2604c-649,798 -1157,1727 -955,2793 81,429 245,235 250,915 4,521 -65,1254 319,1674 89,97 339,266 460,146 -37,43 -37,48 -96,46 -739,-27 -827,-1146 -861,-1691 -53,-848 -178,-465 -335,-1031 -320,-1148 154,-2243 793,-3178l425 326z"/>
  </g>
  <path class="fil3" d="M1824 2441c-646,842 -1125,1864 -875,2986 126,565 294,70 294,1263 0,484 156,1464 771,1483 61,2 54,5 96,-41"/>
  <g id="_2202077237472">
   <path class="fil2" d="M2270 2205c149,-413 74,-436 8,-855 -111,-707 1125,-627 1571,-619 110,2 844,-8 888,102 109,275 147,354 159,654 -58,-343 -92,-324 -234,-609 -5,-1 -8,-1 -16,-2 -298,-35 -1871,136 -1988,357l2 2c3,-2 1,-2 5,-2 169,511 226,608 111,1145l-506 -173z"/>
  </g>
  <path class="fil3" d="M2523 2292c327,-957 -680,-1184 689,-1419 112,-19 1457,-103 1483,-26 78,234 201,329 201,640"/>
  <g id="_2202077237728">
   <path class="fil2" d="M6448 4156c-104,136 -220,274 -291,432 168,109 904,349 1020,268 49,-34 211,-337 323,-544 -304,44 -655,-174 -871,-332 -122,-90 -160,-101 -257,-223 65,65 52,59 130,107 354,214 693,423 1094,243 138,-62 201,8 152,120 -87,196 -267,724 -387,838 -236,224 -785,71 -1085,4 -844,-188 -610,-643 -269,-1216l441 303zm-303 423c-2,-3 -4,-6 -6,-8l-3 1c2,2 5,4 9,7z"/>
  </g>
  <path class="fil3" d="M6228 4005c-517,749 -394,760 543,985 614,147 533,-99 846,-704 200,-386 -82,312 -977,-323 -91,-65 -202,-109 -268,-206"/>
  <g id="_2202077236064">
   <path class="fil2" d="M2455 7886c-15,714 116,569 733,928 544,316 810,633 1513,539 653,-87 2091,-775 2768,-1084 -495,279 -1023,587 -1529,837 -1027,508 -1572,813 -2662,210 -291,-161 -443,-207 -730,-338 -535,-244 -592,-534 -628,-1092l535 0z"/>
  </g>
  <path class="fil3" d="M2187 7886c0,971 376,741 1193,1274 1014,661 1661,256 2725,-207 59,-26 1363,-683 1364,-684"/>
  <g id="_2202077235712">
   <path class="fil2" d="M3408 7064c17,-758 59,-1751 -282,-2444 -243,-493 -252,-945 -62,-1451 323,-861 1050,-1349 1943,-1476 -605,137 -1089,402 -1450,919 -377,541 -515,1245 -160,1836 455,757 494,1745 546,2607l-535 9z"/>
  </g>
  <path class="fil3" d="M3676 7059c-18,-1038 -84,-2002 -415,-2525 -561,-889 87,-2586 1746,-2841"/>
 </g>
</svg>
