<?xml version="1.0" encoding="UTF-8"?>
<!DOCTYPE svg PUBLIC "-//W3C//DTD SVG 1.1//EN" "http://www.w3.org/Graphics/SVG/1.1/DTD/svg11.dtd">
<!-- Creator: CorelDRAW X7 -->
<svg xmlns="http://www.w3.org/2000/svg" xml:space="preserve" width="8.5in" height="11in" version="1.1" style="shape-rendering:geometricPrecision; text-rendering:geometricPrecision; image-rendering:optimizeQuality; fill-rule:evenodd; clip-rule:evenodd"
viewBox="0 0 8500 11000"
 xmlns:xlink="http://www.w3.org/1999/xlink">
 <defs>
  <style type="text/css">
   <![CDATA[
    .str0 {stroke:#6BBA70;stroke-width:333.335}
    .fil2 {fill:none}
    .fil1 {fill:#6BBA70}
    .fil0 {fill:#6BBA70;fill-rule:nonzero}
   ]]>
  </style>
 </defs>
 <g id="Слой_x0020_1">
  <metadata id="CorelCorpID_0Corel-Layer"/>
  <path class="fil0" d="M2584 8372c0,-1171 0,-2342 0,-3514 0,-1561 3160,-1561 3160,0 0,1172 0,2343 0,3514 -1053,0 -2107,0 -3160,0z"/>
  <rect class="fil1" x="1794" y="8181" width="4739" height="381"/>
  <rect class="fil1" x="2955" y="8189" width="638" height="912"/>
  <rect class="fil1" x="4704" y="8189" width="638" height="912"/>
  <path class="fil2 str0" d="M2117 5291c-137,-664 38,-1212 525,-1645"/>
  <path class="fil2 str0" d="M1310 5533c-198,-979 62,-1786 781,-2420"/>
  <path class="fil2 str0" d="M454 5720c-225,-1111 11,-2051 708,-2815 89,-98 276,-294 381,-387"/>
  <path class="fil2 str0" d="M6179 5318c137,-664 -38,-1212 -524,-1645"/>
  <path class="fil2 str0" d="M6987 5559c198,-979 -63,-1785 -781,-2420"/>
  <path class="fil2 str0" d="M7843 5747c225,-1112 -11,-2051 -708,-2815 -90,-99 -276,-294 -382,-387"/>
 </g>
</svg>
