<?xml version="1.0" encoding="UTF-8"?>
<!DOCTYPE svg PUBLIC "-//W3C//DTD SVG 1.1//EN" "http://www.w3.org/Graphics/SVG/1.1/DTD/svg11.dtd">
<!-- Creator: CorelDRAW X7 -->
<svg xmlns="http://www.w3.org/2000/svg" xml:space="preserve" width="1.30146in" height="1.30147in" version="1.1" style="shape-rendering:geometricPrecision; text-rendering:geometricPrecision; image-rendering:optimizeQuality; fill-rule:evenodd; clip-rule:evenodd"
viewBox="0 0 1301 1301"
 xmlns:xlink="http://www.w3.org/1999/xlink">
 <defs>
  <style type="text/css">
   <![CDATA[
    .str0 {stroke:#2B2A29;stroke-width:19.685}
    .fil0 {fill:#FEFEFE}
   ]]>
  </style>
 </defs>
 <g id="Слой_x0020_1">
  <metadata id="CorelCorpID_0Corel-Layer"/>
  <g id="_2100762640368">
   <path class="fil0 str0" d="M1274 124l-89 -88c-24,-24 -63,-24 -88,0l-442 442 -450 -450c-24,-24 -64,-24 -89,0l-88 88c-24,24 -24,64 0,89l449 449 -441 443c-24,24 -24,63 0,88l89 89c24,24 63,24 88,0l442 -442 442 442c24,24 63,24 88,0l89 -89c24,-24 24,-63 0,-88l-443 -442 442 -442c25,-25 25,-64 1,-89z"/>
  </g>
  <g id="_2100762639984">
  </g>
  <g id="_2100762639184">
  </g>
  <g id="_2100762639440">
  </g>
  <g id="_2100762640336">
  </g>
  <g id="_2100762641456">
  </g>
  <g id="_2100762641840">
  </g>
  <g id="_2100762642192">
  </g>
  <g id="_2100762641008">
  </g>
  <g id="_2100762642480">
  </g>
  <g id="_2100762640688">
  </g>
  <g id="_2100762643760">
  </g>
  <g id="_2100762643280">
  </g>
  <g id="_2100762643696">
  </g>
  <g id="_2100762643056">
  </g>
  <g id="_2100762643952">
  </g>
 </g>
</svg>
