<?xml version="1.0" encoding="UTF-8"?>
<!DOCTYPE svg PUBLIC "-//W3C//DTD SVG 1.1//EN" "http://www.w3.org/Graphics/SVG/1.1/DTD/svg11.dtd">
<!-- Creator: CorelDRAW X7 -->
<svg xmlns="http://www.w3.org/2000/svg" xml:space="preserve" width="8.5in" height="11in" version="1.1" style="shape-rendering:geometricPrecision; text-rendering:geometricPrecision; image-rendering:optimizeQuality; fill-rule:evenodd; clip-rule:evenodd"
viewBox="0 0 8500 11000"
 xmlns:xlink="http://www.w3.org/1999/xlink">
 <defs>
  <style type="text/css">
   <![CDATA[
    .str0 {stroke:#2B2A29;stroke-width:118.11}
    .str2 {stroke:#2B2A29;stroke-width:118.11}
    .str1 {stroke:#2B2A29;stroke-width:6.94488}
    .fil0 {fill:none}
    .fil1 {fill:#2B2A29}
    .fil2 {fill:#FEFEFE}
   ]]>
  </style>
 </defs>
 <g id="Слой_x0020_1">
  <metadata id="CorelCorpID_0Corel-Layer"/>
  <line class="fil0 str0" x1="6087" y1="2115" x2="6087" y2= "4658" />
  <path class="fil1 str1" d="M6087 3862l-1584 0c-146,0 -291,-60 -386,-171 -239,-257 -179,-711 129,-883 77,-42 171,-68 257,-68l1584 0 0 -625 -1027 0 0 -1011c0,-145 -112,-257 -257,-257l-4094 0 2304 1182c162,86 274,266 274,454l0 51 0 1671 0 2637 1516 0c145,0 257,-111 257,-256l0 -2039 1027 0 0 -685z"/>
 </g>
 <g id="Слой_x0020_1_0">
  <metadata id="CorelCorpID_1Corel-Layer"/>
  <g id="_2561669411712">
   <path class="fil2 str2" d="M6087 2106l0 -1773c0,-282 -231,-514 -514,-514l-6337 0c-283,0 -514,232 -514,514l0 334 0 6698 0 231c0,188 111,368 274,454l3905 2021c172,86 377,-34 377,-231l0 -1970 2295 0c283,0 514,-231 514,-514l0 -2809 -1027 0 0 2039c0,145 -112,256 -257,256l-1516 0 0 -2637 0 -1671 0 -51c0,-188 -112,-368 -274,-454l-2304 -1182 4094 0c145,0 257,112 257,257l0 1011 1027 0 0 -9z"/>
   <path class="fil2 str2" d="M7406 1267l1670 1670c215,214 215,531 0,745l-1670 1670c-214,214 -539,223 -754,9 -205,-206 -179,-548 18,-754l753 -745 -2920 0c-146,0 -291,-60 -386,-171 -239,-257 -179,-711 129,-883 77,-42 171,-68 257,-68l2920 0c0,0 -745,-745 -753,-745 -197,-197 -223,-548 -17,-745 205,-206 539,-197 753,17z"/>
  </g>
  <g id="_2561669409312">
  </g>
  <g id="_2561669410240">
  </g>
  <g id="_2561669409792">
  </g>
  <g id="_2561669410336">
  </g>
  <g id="_2561669409280">
  </g>
  <g id="_2561669410528">
  </g>
  <g id="_2561669408384">
  </g>
  <g id="_2561669407712">
  </g>
  <g id="_2561669406624">
  </g>
  <g id="_2561669408000">
  </g>
  <g id="_2561669407232">
  </g>
  <g id="_2561669408576">
  </g>
  <g id="_2561669407008">
  </g>
  <g id="_2561669404896">
  </g>
  <g id="_2561669405504">
  </g>
 </g>
</svg>
