<?xml version="1.0" encoding="UTF-8"?>
<!DOCTYPE svg PUBLIC "-//W3C//DTD SVG 1.1//EN" "http://www.w3.org/Graphics/SVG/1.1/DTD/svg11.dtd">
<!-- Creator: CorelDRAW X7 -->
<svg xmlns="http://www.w3.org/2000/svg" xml:space="preserve" width="8.5in" height="11in" version="1.1" style="shape-rendering:geometricPrecision; text-rendering:geometricPrecision; image-rendering:optimizeQuality; fill-rule:evenodd; clip-rule:evenodd"
viewBox="0 0 8500 11000"
 xmlns:xlink="http://www.w3.org/1999/xlink">
 <defs>
  <style type="text/css">
   <![CDATA[
    .str0 {stroke:#2B2A29;stroke-width:118.11}
    .str2 {stroke:#2B2A29;stroke-width:118.11}
    .str1 {stroke:#2B2A29;stroke-width:6.94488}
    .fil0 {fill:none}
    .fil1 {fill:#2B2A29}
    .fil2 {fill:#FEFEFE}
   ]]>
  </style>
 </defs>
 <g id="Слой_x0020_1">
  <metadata id="CorelCorpID_0Corel-Layer"/>
  <line class="fil0 str0" x1="8723" y1="4397" x2="8726" y2= "3305" />
  <path class="fil0 str0" d="M8724 4976c0,-462 35,-1071 11,-1664 -91,-2269 -276,-2565 -1416,-2622 -52,-3 -114,5 -170,3"/>
  <path class="fil1 str1" d="M9089 1394c427,440 394,1154 -40,1588l-315 315 -8 8 -3 1092 0 4660c0,690 -560,1250 -1250,1250l-7115 0c-690,0 -1250,-560 -1250,-1249l0 -7115c0,-690 560,-1250 1250,-1250l6791 0 39 0c44,-1 91,-5 131,-3 505,25 822,97 1027,367 3,0 6,0 9,0 267,16 532,127 734,337z"/>
 </g>
 <g id="Слой_x0020_1_0">
  <metadata id="CorelCorpID_1Corel-Layer"/>
  <g id="_2334409124256">
   <path class="fil2 str2" d="M358 10307l7115 0c690,0 1250,-560 1250,-1250l0 -4865 -1250 1250 0 3615 -7115 0 0 -7114 5701 0 1003 -1003c95,-95 199,-177 310,-247l-7014 0c-690,0 -1250,560 -1250,1250l0 7115c0,689 560,1249 1250,1249z"/>
   <path class="fil2 str2" d="M9089 1394c-202,-210 -467,-321 -734,-337 -22,-1 -43,-2 -65,-2 -284,0 -569,109 -787,326l-3479 3479c-117,-126 -844,-858 -844,-858 -217,-217 -503,-326 -787,-326 -284,0 -569,108 -786,326 -435,434 -435,1139 0,1573l852 852 786 787c208,208 492,326 787,326 294,0 578,-117 786,-326l4231 -4232c434,-434 467,-1148 40,-1588z"/>
  </g>
  <g id="_2334409125440">
  </g>
  <g id="_2334409124448">
  </g>
  <g id="_2334409125184">
  </g>
  <g id="_2334409123712">
  </g>
  <g id="_2334409122048">
  </g>
  <g id="_2334409123968">
  </g>
  <g id="_2334409123936">
  </g>
  <g id="_2334409124032">
  </g>
  <g id="_2334409122080">
  </g>
  <g id="_2334409122752">
  </g>
  <g id="_2334409123744">
  </g>
  <g id="_2334409154304">
  </g>
  <g id="_2334409153888">
  </g>
  <g id="_2334409153824">
  </g>
  <g id="_2334409152864">
  </g>
 </g>
</svg>
