<?xml version="1.0" encoding="UTF-8"?>
<!DOCTYPE svg PUBLIC "-//W3C//DTD SVG 1.1//EN" "http://www.w3.org/Graphics/SVG/1.1/DTD/svg11.dtd">
<!-- Creator: CorelDRAW X7 -->
<svg xmlns="http://www.w3.org/2000/svg" xml:space="preserve" width="10.7818in" height="11.0807in" version="1.1" style="shape-rendering:geometricPrecision; text-rendering:geometricPrecision; image-rendering:optimizeQuality; fill-rule:evenodd; clip-rule:evenodd"
viewBox="0 0 10761 11059"
 xmlns:xlink="http://www.w3.org/1999/xlink">
 <defs>
  <style type="text/css">
   <![CDATA[
    .str0 {stroke:#2B2A29;stroke-width:196.456}
    .fil0 {fill:#FEFEFE}
    .fil1 {fill:#2B2A29;fill-rule:nonzero}
   ]]>
  </style>
 </defs>
 <g id="Слой_x0020_1">
  <metadata id="CorelCorpID_0Corel-Layer"/>
  <path class="fil0 str0" d="M6766 6621c-529,-563 -1013,-1218 -1441,-1948 -180,-304 -366,-632 -513,-988 -18,-46 -36,-91 -53,-135l-898 0c-178,0 -322,143 -322,321l0 5861c0,179 144,321 322,321l3040 0c178,0 321,-142 321,-321l0 -2810c-21,-8 -43,-16 -64,-25 -148,-63 -282,-155 -392,-276l0 0z"/>
  <path class="fil0 str0" d="M346 9085l2233 879c109,43 227,-39 227,-155l0 -5995c0,-159 -98,-304 -246,-362l-2224 -876c-114,-44 -238,39 -238,161l0 5985c0,161 99,305 248,363z"/>
  <path class="fil0 str0" d="M9732 4991c-366,587 -796,1141 -1279,1642 -112,117 -243,206 -388,268 -37,15 -73,28 -110,40l0 2771c0,160 98,302 246,362l2224 876c114,42 238,-40 238,-161l0 -5989c0,-159 -99,-302 -247,-362l-291 -113c-126,233 -261,455 -393,666l0 0z"/>
  <path class="fil0 str0" d="M7250 6165c101,107 233,161 365,161 121,0 244,-46 340,-135 7,-6 13,-13 18,-19 450,-466 851,-982 1196,-1532 111,-179 226,-366 334,-560 278,-509 506,-1064 506,-1634 0,-3791 -6204,-2682 -4530,1105 122,270 272,533 420,787 376,643 816,1254 1324,1800 8,7 19,18 27,27l0 0z"/>
  <path class="fil1" d="M1335 7814l426 0 0 179 418 0 0 406 -921 0c-101,0 -191,-17 -263,-51 -92,-46 -167,-114 -227,-205 -58,-92 -88,-187 -88,-285l0 -44 425 0c1,10 1,16 1,20 0,51 18,90 51,118 33,27 80,41 141,41l37 0 0 -179 0 0z"/>
  <path id="_1" class="fil1" d="M1097 7230l1082 0 0 405 -1082 0 0 -405zm-481 201c0,-56 20,-103 57,-142 39,-41 86,-61 138,-61 57,0 104,19 139,56 36,39 53,87 53,147 0,58 -17,107 -53,146 -35,38 -82,56 -139,56 -52,0 -99,-19 -138,-60 -37,-39 -57,-88 -57,-142z"/>
  <path id="_2" class="fil1" d="M2179 6029l0 406 -611 0c-63,0 -92,25 -92,76 0,49 29,76 92,76l611 0 0 405 -603 0c-140,0 -259,-47 -355,-140 -97,-93 -146,-207 -146,-342 0,-154 56,-279 169,-371 87,-73 208,-110 364,-110l571 0 0 0z"/>
  <path id="_3" class="fil1" d="M1774 5192l419 0c5,33 8,63 8,91 0,162 -54,296 -161,405 -106,110 -240,162 -402,162 -156,0 -289,-53 -399,-164 -110,-108 -164,-241 -164,-399 0,-174 51,-313 153,-413 103,-100 244,-150 420,-150l531 0 0 405 -501 0c-58,0 -103,14 -137,42 -33,27 -50,65 -50,112 0,40 14,78 45,108 32,30 69,47 111,47 45,0 82,-14 111,-42 29,-29 43,-64 43,-106 0,-35 -9,-68 -27,-98l0 0z"/>
  <polygon id="_4" class="fil1" points="699,4082 2179,4082 2179,4488 699,4488 "/>
 </g>
</svg>
