<?xml version="1.0" encoding="UTF-8" standalone="no"?>
<!-- Generator: Adobe Illustrator 16.0.0, SVG Export Plug-In . SVG Version: 6.00 Build 0)  -->

<svg
   xmlns:dc="http://purl.org/dc/elements/1.1/"
   xmlns:cc="http://creativecommons.org/ns#"
   xmlns:rdf="http://www.w3.org/1999/02/22-rdf-syntax-ns#"
   xmlns:svg="http://www.w3.org/2000/svg"
   xmlns="http://www.w3.org/2000/svg"
   xmlns:sodipodi="http://sodipodi.sourceforge.net/DTD/sodipodi-0.dtd"
   xmlns:inkscape="http://www.inkscape.org/namespaces/inkscape"
   version="1.1"
   id="Capa_1"
   x="0px"
   y="0px"
   width="120px"
   height="120px"
   viewBox="0 0 120 120"
   style="enable-background:new 0 0 120 120;"
   xml:space="preserve"
   inkscape:version="0.48.3.1 r9886"
   sodipodi:docname="list-of-three-items-with-squares-and-lines.svg"><metadata
   id="metadata3067"><rdf:RDF><cc:Work
       rdf:about=""><dc:format>image/svg+xml</dc:format><dc:type
         rdf:resource="http://purl.org/dc/dcmitype/StillImage" /></cc:Work></rdf:RDF></metadata><defs
   id="defs3065" /><sodipodi:namedview
   pagecolor="#ffffff"
   bordercolor="#666666"
   borderopacity="1"
   objecttolerance="10"
   gridtolerance="10"
   guidetolerance="10"
   inkscape:pageopacity="0"
   inkscape:pageshadow="2"
   inkscape:window-width="806"
   inkscape:window-height="480"
   id="namedview3063"
   showgrid="false"
   inkscape:zoom="1.9666667"
   inkscape:cx="60"
   inkscape:cy="60"
   inkscape:window-x="94"
   inkscape:window-y="96"
   inkscape:window-maximized="0"
   inkscape:current-layer="g3019" />
<g
   id="g3019">
	<path
   d="M114,0H43c-3.3,0-6,2.7-6,6v12c0,3.3,2.7,6,6,6h71c3.3,0,6-2.7,6-6V6C120,2.7,117.3,0,114,0z"
   id="path3021"
   style="fill:#ffffff;fill-opacity:1" />
	<path
   d="M114,48H43c-3.3,0-6,2.7-6,6v12c0,3.3,2.7,6,6,6h71c3.3,0,6-2.7,6-6V54C120,50.7,117.3,48,114,48z"
   id="path3023"
   style="fill:#ffffff;fill-opacity:1" />
	<path
   d="M114,96H43c-3.3,0-6,2.7-6,6v12c0,3.3,2.7,6,6,6h71c3.3,0,6-2.7,6-6v-12C120,98.7,117.3,96,114,96z"
   id="path3025"
   style="fill:#ffffff;fill-opacity:1" />
	<path
   d="M18,0H6C2.7,0,0,2.7,0,6v12c0,3.3,2.7,6,6,6h12c3.3,0,6-2.7,6-6V6C24,2.7,21.3,0,18,0z"
   id="path3027"
   style="fill:#ffffff;fill-opacity:1" />
	<path
   d="M18,48H6c-3.3,0-6,2.7-6,6v12c0,3.3,2.7,6,6,6h12c3.3,0,6-2.7,6-6V54C24,50.7,21.3,48,18,48z"
   id="path3029"
   style="fill:#ffffff;fill-opacity:1" />
	<path
   d="M18,96H6c-3.3,0-6,2.7-6,6v12c0,3.3,2.7,6,6,6h12c3.3,0,6-2.7,6-6v-12C24,98.7,21.3,96,18,96z"
   id="path3031"
   style="fill:#ffffff;fill-opacity:1" />
</g>
<g
   id="g3033">
</g>
<g
   id="g3035">
</g>
<g
   id="g3037">
</g>
<g
   id="g3039">
</g>
<g
   id="g3041">
</g>
<g
   id="g3043">
</g>
<g
   id="g3045">
</g>
<g
   id="g3047">
</g>
<g
   id="g3049">
</g>
<g
   id="g3051">
</g>
<g
   id="g3053">
</g>
<g
   id="g3055">
</g>
<g
   id="g3057">
</g>
<g
   id="g3059">
</g>
<g
   id="g3061">
</g>
</svg>