<?xml version="1.0" encoding="UTF-8" standalone="no"?>
<!-- Generator: Adobe Illustrator 16.0.0, SVG Export Plug-In . SVG Version: 6.00 Build 0)  -->

<svg
   xmlns:dc="http://purl.org/dc/elements/1.1/"
   xmlns:cc="http://creativecommons.org/ns#"
   xmlns:rdf="http://www.w3.org/1999/02/22-rdf-syntax-ns#"
   xmlns:svg="http://www.w3.org/2000/svg"
   xmlns="http://www.w3.org/2000/svg"
   xmlns:sodipodi="http://sodipodi.sourceforge.net/DTD/sodipodi-0.dtd"
   xmlns:inkscape="http://www.inkscape.org/namespaces/inkscape"
   version="1.1"
   id="Capa_1"
   x="0px"
   y="0px"
   width="124px"
   height="124px"
   viewBox="0 0 124 124"
   style="enable-background:new 0 0 124 124;"
   xml:space="preserve"
   inkscape:version="0.48.3.1 r9886"
   sodipodi:docname="menu-button-of-three-horizontal-lines.svg"><metadata
   id="metadata3112"><rdf:RDF><cc:Work
       rdf:about=""><dc:format>image/svg+xml</dc:format><dc:type
         rdf:resource="http://purl.org/dc/dcmitype/StillImage" /></cc:Work></rdf:RDF></metadata><defs
   id="defs3110" /><sodipodi:namedview
   pagecolor="#ffffff"
   bordercolor="#666666"
   borderopacity="1"
   objecttolerance="10"
   gridtolerance="10"
   guidetolerance="10"
   inkscape:pageopacity="0"
   inkscape:pageshadow="2"
   inkscape:window-width="806"
   inkscape:window-height="480"
   id="namedview3108"
   showgrid="false"
   inkscape:zoom="1.9032258"
   inkscape:cx="62"
   inkscape:cy="62"
   inkscape:window-x="0"
   inkscape:window-y="0"
   inkscape:window-maximized="0"
   inkscape:current-layer="g3070" />
<g
   id="g3070">
	<path
   d="M112,6H12C5.4,6,0,11.4,0,18s5.4,12,12,12h100c6.6,0,12-5.4,12-12S118.6,6,112,6z"
   id="path3072"
   style="fill:#ffffff;fill-opacity:1" />
	<path
   d="M112,50H12C5.4,50,0,55.4,0,62c0,6.6,5.4,12,12,12h100c6.6,0,12-5.4,12-12C124,55.4,118.6,50,112,50z"
   id="path3074"
   style="fill:#ffffff;fill-opacity:1" />
	<path
   d="M112,94H12c-6.6,0-12,5.4-12,12s5.4,12,12,12h100c6.6,0,12-5.4,12-12S118.6,94,112,94z"
   id="path3076"
   style="fill:#ffffff;fill-opacity:1" />
</g>
<g
   id="g3078">
</g>
<g
   id="g3080">
</g>
<g
   id="g3082">
</g>
<g
   id="g3084">
</g>
<g
   id="g3086">
</g>
<g
   id="g3088">
</g>
<g
   id="g3090">
</g>
<g
   id="g3092">
</g>
<g
   id="g3094">
</g>
<g
   id="g3096">
</g>
<g
   id="g3098">
</g>
<g
   id="g3100">
</g>
<g
   id="g3102">
</g>
<g
   id="g3104">
</g>
<g
   id="g3106">
</g>
</svg>