<?xml version="1.0" encoding="UTF-8" standalone="no"?>
<!-- Generator: Adobe Illustrator 16.0.0, SVG Export Plug-In . SVG Version: 6.00 Build 0)  -->

<svg
   xmlns:dc="http://purl.org/dc/elements/1.1/"
   xmlns:cc="http://creativecommons.org/ns#"
   xmlns:rdf="http://www.w3.org/1999/02/22-rdf-syntax-ns#"
   xmlns:svg="http://www.w3.org/2000/svg"
   xmlns="http://www.w3.org/2000/svg"
   xmlns:sodipodi="http://sodipodi.sourceforge.net/DTD/sodipodi-0.dtd"
   xmlns:inkscape="http://www.inkscape.org/namespaces/inkscape"
   version="1.1"
   id="Capa_1"
   x="0px"
   y="0px"
   width="948px"
   height="948px"
   viewBox="0 0 948 948"
   style="enable-background:new 0 0 948 948;"
   xml:space="preserve"
   inkscape:version="0.48.3.1 r9886"
   sodipodi:docname="pause.svg"><metadata
   id="metadata3155"><rdf:RDF><cc:Work
       rdf:about=""><dc:format>image/svg+xml</dc:format><dc:type
         rdf:resource="http://purl.org/dc/dcmitype/StillImage" /></cc:Work></rdf:RDF></metadata><defs
   id="defs3153" /><sodipodi:namedview
   pagecolor="#ffffff"
   bordercolor="#666666"
   borderopacity="1"
   objecttolerance="10"
   gridtolerance="10"
   guidetolerance="10"
   inkscape:pageopacity="0"
   inkscape:pageshadow="2"
   inkscape:window-width="806"
   inkscape:window-height="480"
   id="namedview3151"
   showgrid="false"
   inkscape:zoom="0.24894515"
   inkscape:cx="1301.4915"
   inkscape:cy="474"
   inkscape:window-x="0"
   inkscape:window-y="0"
   inkscape:window-maximized="0"
   inkscape:current-layer="g3115" />
<g
   id="g3115">
	<path
   d="M5,888c0,33.1,26.9,60,60,60h302c33.1,0,60-26.9,60-60V60c0-33.1-26.9-60-60-60H65C31.9,0,5,26.9,5,60V888z"
   id="path3117"
   style="fill:#ffffff;fill-opacity:1" />
	<path
   d="M581,948h302c33.1,0,60-26.9,60-60V60c0-33.1-26.9-60-60-60H581c-33.1,0-60,26.9-60,60v828C521,921.1,547.9,948,581,948z"
   id="path3119"
   style="fill:#ffffff;fill-opacity:1" />
</g>
<g
   id="g3121">
</g>
<g
   id="g3123">
</g>
<g
   id="g3125">
</g>
<g
   id="g3127">
</g>
<g
   id="g3129">
</g>
<g
   id="g3131">
</g>
<g
   id="g3133">
</g>
<g
   id="g3135">
</g>
<g
   id="g3137">
</g>
<g
   id="g3139">
</g>
<g
   id="g3141">
</g>
<g
   id="g3143">
</g>
<g
   id="g3145">
</g>
<g
   id="g3147">
</g>
<g
   id="g3149">
</g>
</svg>