<?xml version="1.0" encoding="UTF-8"?>
<!DOCTYPE svg PUBLIC "-//W3C//DTD SVG 1.1//EN" "http://www.w3.org/Graphics/SVG/1.1/DTD/svg11.dtd">
<!-- Creator: CorelDRAW X7 -->
<svg xmlns="http://www.w3.org/2000/svg" xml:space="preserve" width="8.5in" height="11in" version="1.1" style="shape-rendering:geometricPrecision; text-rendering:geometricPrecision; image-rendering:optimizeQuality; fill-rule:evenodd; clip-rule:evenodd"
viewBox="0 0 8500 11000"
 xmlns:xlink="http://www.w3.org/1999/xlink">
 <defs>
  <style type="text/css">
   <![CDATA[
    .str0 {stroke:#2B2A29;stroke-width:196.85}
    .fil0 {fill:#FEFEFE}
   ]]>
  </style>
 </defs>
 <g id="Слой_x0020_1">
  <metadata id="CorelCorpID_0Corel-Layer"/>
  <path class="fil0 str0" d="M7251 3321c12,158 -41,305 -198,469l-1628 1626c-276,266 -382,334 -618,313 -214,-19 -433,-178 -519,-395 -59,-148 -32,-346 49,-498l104 -108 754 -776 -824 -8c-643,100 -963,260 -1315,482 -527,334 -973,956 -1112,1635 -84,407 -37,933 107,1395 108,347 272,649 467,896 358,452 774,651 1219,809 915,326 2287,66 2910,-857 53,-78 147,-211 217,-334 166,-289 316,-592 577,-604 235,-11 484,40 618,305 162,318 -11,634 -157,906 -138,256 -263,376 -426,582 -564,711 -1578,1264 -2582,1316 -1394,72 -2200,-364 -3015,-1077 -121,-107 -318,-352 -525,-649 -208,-298 -346,-599 -445,-867 -149,-406 -195,-787 -196,-1240 -2,-592 42,-1028 295,-1583 182,-402 519,-889 911,-1260 203,-191 568,-426 965,-630 257,-131 415,-187 592,-240 195,-59 341,-108 800,-158l945 -18 -770 -772c-67,-67 -118,-142 -151,-221 -77,-182 -6,-482 138,-614 131,-119 250,-177 380,-184 232,-12 361,72 518,228l1700 1692c135,134 199,239 215,439z"/>
 </g>
</svg>
