<?xml version="1.0" encoding="UTF-8"?>
<!DOCTYPE svg PUBLIC "-//W3C//DTD SVG 1.1//EN" "http://www.w3.org/Graphics/SVG/1.1/DTD/svg11.dtd">
<!-- Creator: CorelDRAW X7 -->
<svg xmlns="http://www.w3.org/2000/svg" xml:space="preserve" width="8.5in" height="11in" version="1.1" style="shape-rendering:geometricPrecision; text-rendering:geometricPrecision; image-rendering:optimizeQuality; fill-rule:evenodd; clip-rule:evenodd"
viewBox="0 0 8500 11000"
 xmlns:xlink="http://www.w3.org/1999/xlink">
 <defs>
  <style type="text/css">
   <![CDATA[
    .str0 {stroke:#2B2A29;stroke-width:118.11}
    .str2 {stroke:#2B2A29;stroke-width:118.11}
    .str1 {stroke:#2B2A29;stroke-width:6.94488}
    .fil0 {fill:none}
    .fil1 {fill:#2B2A29}
    .fil2 {fill:white}
   ]]>
  </style>
 </defs>
 <g id="Слой_x0020_1">
  <metadata id="CorelCorpID_0Corel-Layer"/>
  <line class="fil0 str0" x1="4052" y1="536" x2="5493" y2= "528" />
  <line class="fil0 str0" x1="8141" y1="3136" x2="8144" y2= "4613" />
  <path class="fil1 str1" d="M7937 3389l-2443 0c-115,0 -209,-93 -209,-209l0 -2444c0,-125 102,-208 208,-208l-1441 8c221,37 389,229 389,462l0 2678c0,259 210,469 469,469l2766 0c258,0 467,208 468,466l0 0 -3 -1388c-19,90 -95,166 -204,166z"/>
 </g>
 <g id="Слой_x0020_1_0">
  <metadata id="CorelCorpID_1Corel-Layer"/>
  <g id="_1895848092560">
   <path class="fil2 str2" d="M3973 529l-2961 0c-347,0 -627,281 -627,627l0 8895c0,347 281,627 627,627l6505 0c347,0 627,-281 627,-627l0 -5438c0,-259 -209,-468 -468,-468l-2766 0c-259,0 -469,-210 -469,-469l0 -2678c0,-260 -209,-469 -468,-469z"/>
   <path class="fil2 str2" d="M7937 3389c186,0 278,-224 147,-355l-2444 -2445c-131,-131 -355,-38 -355,147l0 2444c0,116 94,209 209,209l2443 0 0 0z"/>
  </g>
  <g id="_1895848124912">
  </g>
  <g id="_1895848123824">
  </g>
  <g id="_1895848124528">
  </g>
  <g id="_1895848124848">
  </g>
  <g id="_1895848123376">
  </g>
  <g id="_1895848124464">
  </g>
  <g id="_1895848122288">
  </g>
  <g id="_1895848122224">
  </g>
  <g id="_1895848121168">
  </g>
  <g id="_1895848122960">
  </g>
  <g id="_1895848121616">
  </g>
  <g id="_1895848122096">
  </g>
  <g id="_1895848122448">
  </g>
  <g id="_1895848122992">
  </g>
  <g id="_1895848119280">
  </g>
 </g>
</svg>
