<?xml version="1.0" encoding="UTF-8"?>
<!DOCTYPE svg PUBLIC "-//W3C//DTD SVG 1.1//EN" "http://www.w3.org/Graphics/SVG/1.1/DTD/svg11.dtd">
<!-- Creator: CorelDRAW X7 -->
<svg xmlns="http://www.w3.org/2000/svg" xml:space="preserve" width="9.67011in" height="10.1646in" version="1.1" style="shape-rendering:geometricPrecision; text-rendering:geometricPrecision; image-rendering:optimizeQuality; fill-rule:evenodd; clip-rule:evenodd"
viewBox="0 0 9975 10486"
 xmlns:xlink="http://www.w3.org/1999/xlink">
 <defs>
  <style type="text/css">
   <![CDATA[
    .str0 {stroke:#2B2A29;stroke-width:121.84}
    .str1 {stroke:#2B2A29;stroke-width:7.16418}
    .str2 {stroke:#2B2A29;stroke-width:7.16418}
    .fil3 {fill:none}
    .fil1 {fill:none;fill-rule:nonzero}
    .fil2 {fill:#2B2A29}
    .fil4 {fill:#2B2A29}
    .fil5 {fill:#FEFEFE}
    .fil0 {fill:#FEFEFE;fill-rule:nonzero}
   ]]>
  </style>
 </defs>
 <g id="Слой_x0020_1">
  <metadata id="CorelCorpID_0Corel-Layer"/>
  <path class="fil0" d="M3192 8906l0 552c-73,0 -124,14 -151,41 -28,28 -45,82 -53,163 -24,269 -128,459 -313,570 -97,58 -236,87 -416,87l-73 0 0 -553 24 0c84,0 144,-18 180,-53 36,-34 56,-96 62,-183 7,-143 20,-244 40,-302 19,-58 58,-115 116,-172 103,-100 245,-150 426,-150l158 0z"/>
  <path id="1" class="fil0" d="M4140 9758l0 542c-43,7 -82,10 -118,10 -209,0 -384,-69 -524,-207 -140,-138 -209,-311 -209,-519 0,-202 70,-374 212,-515 141,-141 313,-211 515,-211 225,0 403,66 534,198 129,132 194,313 194,541l0 685 -524 0 0 -647c0,-73 -18,-132 -54,-176 -35,-44 -83,-66 -143,-66 -55,0 -102,21 -142,61 -39,40 -59,87 -59,142 0,58 18,106 54,143 36,37 82,56 137,56 46,0 88,-12 127,-37z"/>
  <polygon id="2" class="fil0" points="6096,8886 5444,10336 4801,8886 5300,8886 5448,9263 5611,8886 "/>
  <path id="3" class="fil0" d="M7523 9669l-793 0c-11,-41 -17,-77 -17,-110 0,-47 9,-92 24,-137l266 0c-18,-105 -77,-157 -174,-157 -66,0 -119,27 -160,83 -41,56 -62,127 -62,214 0,91 20,164 60,220 39,56 91,84 156,84 52,0 102,-26 151,-79l298 359c-139,110 -294,164 -464,164 -207,0 -381,-69 -522,-208 -141,-140 -212,-312 -212,-517 0,-205 72,-378 214,-519 143,-141 317,-211 525,-211 202,0 373,69 510,207 138,137 207,307 207,509 0,20 -2,53 -7,98z"/>
  <path id="4" class="fil1 str0" d="M3192 8906l0 552c-73,0 -124,14 -151,41 -28,28 -45,82 -53,163 -24,269 -128,459 -313,570 -97,58 -236,87 -416,87l-73 0 0 -553 24 0c84,0 144,-18 180,-53 36,-34 56,-96 62,-183 7,-143 20,-244 40,-302 19,-58 58,-115 116,-172 103,-100 245,-150 426,-150l158 0z"/>
  <path id="5" class="fil1 str0" d="M4140 9758l0 542c-43,7 -82,10 -118,10 -209,0 -384,-69 -524,-207 -140,-138 -209,-311 -209,-519 0,-202 70,-374 212,-515 141,-141 313,-211 515,-211 225,0 403,66 534,198 129,132 194,313 194,541l0 685 -524 0 0 -647c0,-73 -18,-132 -54,-176 -35,-44 -83,-66 -143,-66 -55,0 -102,21 -142,61 -39,40 -59,87 -59,142 0,58 18,106 54,143 36,37 82,56 137,56 46,0 88,-12 127,-37z"/>
  <polygon id="6" class="fil1 str0" points="6096,8886 5444,10336 4801,8886 5300,8886 5448,9263 5611,8886 "/>
  <path id="7" class="fil1 str0" d="M7523 9669l-793 0c-11,-41 -17,-77 -17,-110 0,-47 9,-92 24,-137l266 0c-18,-105 -77,-157 -174,-157 -66,0 -119,27 -160,83 -41,56 -62,127 -62,214 0,91 20,164 60,220 39,56 91,84 156,84 52,0 102,-26 151,-79l298 359c-139,110 -294,164 -464,164 -207,0 -381,-69 -522,-208 -141,-140 -212,-312 -212,-517 0,-205 72,-378 214,-519 143,-141 317,-211 525,-211 202,0 373,69 510,207 138,137 207,307 207,509 0,20 -2,53 -7,98z"/>
  <path class="fil2 str1" d="M8219 5398l-6461 0c-356,0 -645,289 -645,645l0 4318 7750 0 0 -4318c0,-356 -288,-645 -644,-645zm-5027 3508l0 552c-73,0 -124,14 -151,41 -28,28 -45,82 -53,163 -24,269 -128,459 -313,570 -97,58 -236,87 -416,87l-73 0 0 -553 24 0c84,0 144,-18 180,-53 36,-34 56,-96 62,-183 7,-143 20,-244 40,-302 19,-58 58,-115 116,-172 103,-100 245,-150 426,-150l158 0zm824 -48c225,0 403,66 534,198 129,132 194,313 194,541l0 685 -524 0 0 -647c0,-73 -18,-132 -54,-176 -35,-44 -83,-66 -143,-66 -55,0 -102,21 -142,61 -39,40 -59,87 -59,142 0,58 18,106 54,143 36,37 82,56 137,56 46,0 88,-12 127,-37l0 542c-43,7 -82,10 -118,10 -209,0 -384,-69 -524,-207 -140,-138 -209,-311 -209,-519 0,-202 70,-374 212,-515 141,-141 313,-211 515,-211zm1595 28l485 0 -652 1450 -643 -1450 499 0 148 377 163 -377zm677 180c143,-141 317,-211 525,-211 202,0 373,69 510,207 138,137 207,307 207,509 0,20 -2,53 -7,98l-793 0c-11,-41 -17,-77 -17,-110 0,-47 9,-92 24,-137l266 0c-18,-105 -77,-157 -174,-157 -66,0 -119,27 -160,83 -41,56 -62,127 -62,214 0,91 20,164 60,220 39,56 91,84 156,84 52,0 102,-26 151,-79l298 359c-139,110 -294,164 -464,164 -207,0 -381,-69 -522,-208 -141,-140 -212,-312 -212,-517 0,-205 72,-378 214,-519z"/>
 </g>
 <g id="Слой_x0020_1_0">
  <metadata id="CorelCorpID_1Corel-Layer"/>
  <line class="fil3 str0" x1="1113" y1="10361" x2="8863" y2= "10361" />
  <line class="fil3 str0" x1="1333" y1="61" x2="6643" y2= "61" />
  <path class="fil4 str2" d="M1978 3070l4021 0c356,0 644,-290 644,-645l0 -2364 -1031 0 0 1949c0,178 -145,322 -322,322l-693 0c-179,0 -323,-144 -323,-322l0 -1949 -2941 0 0 2364c0,355 289,645 645,645z"/>
 </g>
 <g id="Слой_x0020_1_0_1">
  <metadata id="CorelCorpID_2Corel-Layer"/>
  <g id="_2334550064192">
   <path class="fil5 str0" d="M9270 10361c356,0 645,-289 645,-645l0 -6553c0,-257 -103,-503 -284,-683l-2134 -2135c-182,-182 -428,-284 -683,-284l-171 0 0 2364c0,355 -288,645 -644,645l-4021 0c-356,0 -645,-290 -645,-645l0 -2364 -627 0c-356,0 -645,289 -645,645l0 3097 0 774 0 5139c0,356 289,645 645,645l407 0 0 -4318c0,-356 289,-645 645,-645l6461 0c356,0 644,289 644,645l0 4318 407 0 0 0z"/>
   <path class="fil5 str0" d="M5290 2332c177,0 322,-144 322,-322l0 -1949 -1338 0 0 1949c0,178 144,322 323,322l693 0z"/>
  </g>
  <g id="_2334550064576">
  </g>
  <g id="_2334550062944">
  </g>
  <g id="_2334550064288">
  </g>
  <g id="_2334550062432">
  </g>
  <g id="_2334550062368">
  </g>
  <g id="_2334550062528">
  </g>
  <g id="_2334550062208">
  </g>
  <g id="_2334550062720">
  </g>
  <g id="_2334550062688">
  </g>
  <g id="_2334550061696">
  </g>
  <g id="_2334550061536">
  </g>
  <g id="_2334550059488">
  </g>
  <g id="_2334550058784">
  </g>
  <g id="_2334550060672">
  </g>
  <g id="_2334550060576">
  </g>
 </g>
</svg>
