<?xml version="1.0" encoding="UTF-8"?>
<!DOCTYPE svg PUBLIC "-//W3C//DTD SVG 1.1//EN" "http://www.w3.org/Graphics/SVG/1.1/DTD/svg11.dtd">
<!-- Creator: CorelDRAW X7 -->
<svg xmlns="http://www.w3.org/2000/svg" xml:space="preserve" width="10.6749in" height="11.0208in" version="1.1" style="shape-rendering:geometricPrecision; text-rendering:geometricPrecision; image-rendering:optimizeQuality; fill-rule:evenodd; clip-rule:evenodd"
viewBox="0 0 10675 11021"
 xmlns:xlink="http://www.w3.org/1999/xlink">
 <defs>
  <style type="text/css">
   <![CDATA[
    .str0 {stroke:#2B2A29;stroke-width:196.85}
    .str1 {stroke:#2B2A29;stroke-width:6.94488}
    .fil2 {fill:#2B2A29}
    .fil0 {fill:#FEFEFE}
    .fil1 {fill:#2B2A29;fill-rule:nonzero}
   ]]>
  </style>
 </defs>
 <g id="Слой_x0020_1">
  <metadata id="CorelCorpID_0Corel-Layer"/>
  <path class="fil0 str0" d="M6711 6618c-524,-559 -1005,-1209 -1430,-1933 -177,-303 -362,-627 -508,-981 -18,-45 -35,-90 -53,-134l-891 0c-176,0 -319,143 -319,319l0 5814c0,176 143,319 319,319l3016 0c176,0 319,-143 319,-319l0 -2788c-21,-7 -43,-16 -63,-25 -148,-62 -280,-153 -390,-272z"/>
  <path class="fil0 str0" d="M342 9061l2216 872c108,43 226,-38 226,-154l0 -5947c0,-159 -97,-301 -245,-359l-2207 -869c-112,-44 -234,39 -234,160l0 5937c0,160 97,302 244,360z"/>
  <path class="fil0 str0" d="M9654 5001c-363,582 -791,1130 -1269,1627 -111,116 -241,205 -386,267 -36,16 -72,27 -109,40l0 2748c0,158 97,300 245,358l2207 869c112,44 234,-39 234,-160l0 -5939c0,-159 -97,-300 -244,-359l-290 -113c-123,232 -257,452 -388,662z"/>
  <path class="fil0 str0" d="M7192 6165c99,106 229,159 361,159 121,0 242,-46 337,-135 7,-6 13,-12 19,-17 446,-464 845,-974 1186,-1521 111,-177 225,-363 330,-555 277,-505 503,-1056 503,-1621 0,-1313 -1065,-2377 -2378,-2377 -1313,0 -2377,1064 -2377,2377 0,386 108,749 262,1096 120,269 269,529 416,781 374,637 810,1243 1314,1785 8,8 18,19 27,28zm-391 -2596c-385,-245 -640,-676 -640,-1164 -1,-760 617,-1378 1378,-1378 760,0 1377,618 1377,1378 0,521 -289,974 -715,1209 -97,53 -200,94 -311,123 -112,30 -229,45 -351,45 -149,0 -291,-23 -426,-67 -110,-34 -215,-85 -312,-146z"/>
  <path class="fil1" d="M1104 7589l423 0c0,56 11,95 32,116 21,21 63,35 125,40 207,20 353,99 438,240 45,76 67,183 67,321l0 56 -424 0 0 -19c0,-64 -15,-110 -41,-138 -27,-27 -75,-43 -141,-48 -110,-5 -187,-15 -232,-29 -45,-16 -88,-46 -132,-91 -77,-78 -115,-187 -115,-326l0 -122z"/>
  <path id="_1" class="fil1" d="M693 7099l411 0 0 -181 424 0 0 181c86,0 144,-14 177,-41 32,-26 48,-75 48,-146l423 0c0,21 0,36 0,46 0,91 -21,176 -64,257 -42,81 -99,145 -172,194 -92,62 -214,92 -367,92l-880 0 0 -402z"/>
  <path id="_2" class="fil1" d="M1759 6125l416 0c5,32 7,63 7,90 0,161 -52,295 -159,403 -106,107 -238,160 -399,160 -155,0 -287,-54 -395,-162 -108,-109 -163,-240 -163,-396 0,-173 51,-310 153,-410 101,-100 240,-150 416,-150l525 0 0 403 -496 0c-57,0 -102,14 -136,41 -33,28 -50,64 -50,110 0,42 16,79 46,109 31,30 68,46 110,46 44,0 81,-14 109,-42 29,-27 44,-63 44,-105 0,-35 -10,-67 -28,-97z"/>
  <path id="_3" class="fil1" d="M1078 4840l430 0c-15,27 -23,52 -23,75 0,73 56,109 167,109l508 0 0 403 -586 0c-154,0 -277,-42 -369,-126 -93,-85 -139,-198 -139,-339 0,-31 4,-73 12,-122z"/>
  <path id="_4" class="fil1" d="M693 4362l411 0 0 -181 424 0 0 181c86,0 144,-13 177,-40 32,-27 48,-76 48,-147l423 0c0,21 0,36 0,46 0,91 -21,177 -64,257 -42,81 -99,145 -172,194 -92,62 -214,93 -367,93l-880 0 0 -403z"/>
  <path class="fil2 str1" d="M6161 2405c0,488 255,919 640,1164 97,61 202,112 312,146 135,44 277,67 426,67 122,0 239,-15 351,-45 111,-29 214,-70 311,-123 426,-235 715,-688 715,-1209 0,-760 -617,-1378 -1377,-1378 -761,0 -1379,618 -1378,1378z"/>
 </g>
</svg>
