<?xml version="1.0" encoding="UTF-8" standalone="no"?>
<!-- Created with Inkscape (http://www.inkscape.org/) -->

<svg
   xmlns:dc="http://purl.org/dc/elements/1.1/"
   xmlns:cc="http://creativecommons.org/ns#"
   xmlns:rdf="http://www.w3.org/1999/02/22-rdf-syntax-ns#"
   xmlns:svg="http://www.w3.org/2000/svg"
   xmlns="http://www.w3.org/2000/svg"
   xmlns:sodipodi="http://sodipodi.sourceforge.net/DTD/sodipodi-0.dtd"
   xmlns:inkscape="http://www.inkscape.org/namespaces/inkscape"
   id="svg2"
   version="1.1"
   inkscape:version="0.48.3.1 r9886"
   width="500"
   height="500"
   xml:space="preserve"
   sodipodi:docname="robot2.svg"
   inkscape:export-filename="/home/karponter/Desktop/Karel/11/final/robot6.png"
   inkscape:export-xdpi="90"
   inkscape:export-ydpi="90"><metadata
     id="metadata8"><rdf:RDF><cc:Work
         rdf:about=""><dc:format>image/svg+xml</dc:format><dc:type
           rdf:resource="http://purl.org/dc/dcmitype/StillImage" /><dc:title></dc:title></cc:Work></rdf:RDF></metadata><defs
     id="defs6"><clipPath
       clipPathUnits="userSpaceOnUse"
       id="clipPath18"><path
         d="M 0,800 800,800 800,0 0,0 0,800 z"
         id="path20"
         inkscape:connector-curvature="0" /></clipPath><clipPath
       clipPathUnits="userSpaceOnUse"
       id="clipPath8388"><path
         transform="matrix(0.43466342,0,0,-0.43466342,-22.784037,492.25727)"
         d="m 748.30057,425.72284 a 311.3085,311.3085 0 1 1 -622.61701,0 311.3085,311.3085 0 1 1 622.61701,0 z"
         sodipodi:ry="311.3085"
         sodipodi:rx="311.3085"
         sodipodi:cy="425.72284"
         sodipodi:cx="436.99207"
         id="path8390"
         style="opacity:0.95999995;fill:#ffffff;fill-opacity:1;fill-rule:evenodd;stroke:none"
         sodipodi:type="arc" /></clipPath></defs><sodipodi:namedview
     pagecolor="#ffffff"
     bordercolor="#666666"
     borderopacity="1"
     objecttolerance="10"
     gridtolerance="10"
     guidetolerance="10"
     inkscape:pageopacity="0"
     inkscape:pageshadow="2"
     inkscape:window-width="1366"
     inkscape:window-height="735"
     id="namedview4"
     showgrid="false"
     inkscape:object-paths="true"
     inkscape:snap-intersection-paths="true"
     inkscape:snap-smooth-nodes="true"
     inkscape:object-nodes="true"
     inkscape:snap-midpoints="true"
     inkscape:snap-object-midpoints="true"
     inkscape:snap-center="true"
     inkscape:zoom="0.36569574"
     inkscape:cx="-94.639121"
     inkscape:cy="506.30352"
     inkscape:window-x="0"
     inkscape:window-y="0"
     inkscape:window-maximized="1"
     inkscape:current-layer="g10" /><g
     id="g10"
     inkscape:groupmode="layer"
     inkscape:label="11"
     transform="matrix(1.25,0,0,-1.25,0,500)"><path
       sodipodi:type="arc"
       style="fill:#ffffff;fill-opacity:1;fill-rule:evenodd;stroke:none;opacity:0.95999999999999996"
       id="path6141"
       sodipodi:cx="436.99207"
       sodipodi:cy="425.72284"
       sodipodi:rx="311.3085"
       sodipodi:ry="311.3085"
       d="m 748.30057,425.72284 a 311.3085,311.3085 0 1 1 -622.61701,0 311.3085,311.3085 0 1 1 622.61701,0 z"
       transform="matrix(0.62432129,0,0,-0.62432129,-72.82345,465.78783)" /><g
       id="g6026"
       transform="matrix(1.4363327,0,0,1.4363327,-40.097992,-241.25739)"
       clip-path="url(#clipPath8388)"><g
         transform="translate(223.42478,202.5283)"
         id="g110"><path
           inkscape:connector-curvature="0"
           id="path112"
           style="fill:#f6e9e2;fill-opacity:1;fill-rule:nonzero;stroke:none"
           d="M 0,0 2.782,4.793 0.076,-0.041 2.782,4.793 5.488,9.628 C 5.792,9.458 8.013,8.163 10.642,5.342 L 3.236,-2.971 C 1.595,-1.008 0.198,-0.121 0,0" /></g><g
         transform="translate(230.10158,193.8311)"
         id="g114"><path
           inkscape:connector-curvature="0"
           id="path116"
           style="fill:#f6e9e2;fill-opacity:1;fill-rule:nonzero;stroke:none"
           d="m 0,0 9.729,5.358 c 1.172,-2.531 2.188,-5.48 2.872,-8.906 L 1.804,-6.075 C 1.362,-3.732 0.729,-1.719 0,0" /></g><g
         transform="translate(237.04838,149.7314)"
         id="g118"><path
           inkscape:connector-curvature="0"
           id="path120"
           style="fill:#5b3420;fill-opacity:1;fill-rule:nonzero;stroke:none"
           d="m 0,0 -10.333,4.005 c 0.959,2.478 1.775,4.835 2.473,7.084 L 2.784,8.013 C 1.996,5.451 1.079,2.785 0,0" /></g><g
         transform="translate(226.66118,199.5576)"
         id="g122"><path
           inkscape:connector-curvature="0"
           id="path124"
           style="fill:#5b3420;fill-opacity:1;fill-rule:nonzero;stroke:none"
           d="m 0,0 7.405,8.313 c 1.9,-2.039 4.007,-4.893 5.764,-8.681 L 3.44,-5.727 C 2.381,-3.229 1.135,-1.355 0,0" /></g><g
         transform="translate(231.90528,187.7559)"
         id="g126"><path
           inkscape:connector-curvature="0"
           id="path128"
           style="fill:#5b3420;fill-opacity:1;fill-rule:nonzero;stroke:none"
           d="m 0,0 10.797,2.527 c 0.503,-2.524 0.83,-5.298 0.906,-8.35 L 0.635,-6.145 C 0.579,-3.879 0.347,-1.844 0,0" /></g><g
         transform="translate(241.78568,165.0908)"
         id="g130"><path
           inkscape:connector-curvature="0"
           id="path132"
           style="fill:#f6e9e2;fill-opacity:1;fill-rule:nonzero;stroke:none"
           d="m 0,0 c -0.525,-2.346 -1.167,-4.788 -1.954,-7.347 l -10.643,3.076 c 0.677,2.183 1.236,4.26 1.692,6.237 L 0,0 z" /></g><g
         transform="translate(232.24068,174.9551)"
         id="g134"><path
           inkscape:connector-curvature="0"
           id="path136"
           style="fill:#5b3420;fill-opacity:1;fill-rule:nonzero;stroke:none"
           d="M 0,0 11.068,-0.484 C 10.784,-3.408 10.292,-6.527 9.545,-9.864 L -1.36,-7.898 C -0.707,-5.062 -0.263,-2.433 0,0" /></g><g
         transform="translate(232.54058,181.6113)"
         id="g138"><path
           inkscape:connector-curvature="0"
           id="path140"
           style="fill:#f6e9e2;fill-opacity:1;fill-rule:nonzero;stroke:none"
           d="m 0,0 11.067,0.321 c 0.06,-2.322 -0.041,-4.816 -0.299,-7.462 L -0.3,-6.656 C -0.042,-4.254 0.05,-2.035 0,0" /></g><g
         transform="translate(238.96438,144.1875)"
         id="g142"><path
           inkscape:connector-curvature="0"
           id="path144"
           style="fill:#e34f41;fill-opacity:1;fill-rule:nonzero;stroke:none"
           d="m 0,0 c 0,5.785 -4.688,10.474 -10.474,10.474 -5.785,0 -10.474,-4.689 -10.474,-10.474 0,-5.785 4.689,-10.474 10.474,-10.474 C -4.688,-10.474 0,-5.785 0,0" /></g><g
         transform="translate(203.38088,212.5459)"
         id="g146"><path
           inkscape:connector-curvature="0"
           id="path148"
           style="fill:#e7594a;fill-opacity:1;fill-rule:nonzero;stroke:none"
           d="m 0,0 c 0,-6.781 5.497,-12.277 12.276,-12.277 6.781,0 12.278,5.496 12.278,12.277 0,6.779 -5.497,12.276 -12.278,12.276 C 5.497,12.276 0,6.779 0,0" /></g><path
         inkscape:connector-curvature="0"
         id="path282"
         style="fill:#4e2e1e;fill-opacity:1;fill-rule:nonzero;stroke:none"
         d="m 167.32038,373.9265 -3.357,0 0,-86.508 3.357,0 0,86.508 z" /><g
         transform="translate(140.30278,397.5303)"
         id="g284"><path
           inkscape:connector-curvature="0"
           id="path286"
           style="fill:#59b298;fill-opacity:1;fill-rule:nonzero;stroke:none"
           d="m 0,0 c -0.792,0.646 -0.911,1.814 -0.267,2.608 5.924,7.295 14.978,11.975 25.097,11.975 8.468,0 16.203,-3.279 21.971,-8.634 0.75,-0.692 0.793,-1.87 0.097,-2.623 C 46.2,2.578 45.024,2.534 44.273,3.232 39.159,7.974 32.333,10.87 24.83,10.87 15.872,10.87 7.873,6.739 2.612,0.269 2.246,-0.183 1.71,-0.417 1.172,-0.417 0.759,-0.417 0.345,-0.281 0,0" /></g><g
         transform="translate(145.28178,393.2461)"
         id="g288"><path
           inkscape:connector-curvature="0"
           id="path290"
           style="fill:#59b298;fill-opacity:1;fill-rule:nonzero;stroke:none"
           d="m 0,0 c -0.803,0.64 -0.929,1.807 -0.291,2.611 4.72,5.907 11.999,9.708 20.145,9.708 6.78,0 12.975,-2.637 17.579,-6.934 C 38.178,4.683 38.219,3.51 37.519,2.762 36.821,2.011 35.65,1.972 34.9,2.668 30.944,6.355 25.665,8.606 19.854,8.606 12.88,8.606 6.662,5.363 2.608,0.294 l 0,-0.004 C 2.242,-0.168 1.703,-0.406 1.158,-0.406 0.749,-0.406 0.341,-0.272 0,0" /></g><g
         transform="translate(150.37058,389.1201)"
         id="g292"><path
           inkscape:connector-curvature="0"
           id="path294"
           style="fill:#59b298;fill-opacity:1;fill-rule:nonzero;stroke:none"
           d="M 0,0 C -0.806,0.642 -0.936,1.81 -0.297,2.612 3.218,7.043 8.67,9.895 14.762,9.895 19.939,9.9 24.657,7.836 28.113,4.499 28.851,3.788 28.873,2.612 28.16,1.874 27.448,1.137 26.273,1.114 25.536,1.829 22.734,4.527 18.947,6.184 14.762,6.184 9.844,6.184 5.461,3.888 2.603,0.299 l 0.006,0 C 2.243,-0.162 1.701,-0.402 1.153,-0.402 0.749,-0.402 0.341,-0.271 0,0" /></g><g
         transform="translate(175.96928,379.7803)"
         id="g296"><path
           inkscape:connector-curvature="0"
           id="path298"
           style="fill:#4e2e1e;fill-opacity:1;fill-rule:nonzero;stroke:none"
           d="m 0,0 c 0,-5.983 -4.849,-10.833 -10.831,-10.833 -5.982,0 -10.833,4.85 -10.833,10.833 0,5.982 4.851,10.833 10.833,10.833 C -4.849,10.833 0,5.982 0,0" /></g><g
         transform="translate(153.33648,162.626)"
         id="g400"><path
           inkscape:connector-curvature="0"
           id="path402"
           style="fill:#4e341c;fill-opacity:1;fill-rule:nonzero;stroke:none"
           d="m 0,0 0,-5.233 0,-0.309 0,-5.08 0,-0.153 0,-5.08 0,-0.308 0,-5.08 0,-0.153 0,-5.081 0,-0.308 0,-5.234 20.937,0 0,5.234 0,0.308 0,5.081 0,0.153 0,5.08 0,0.308 0,5.08 0,0.153 0,5.08 0,0.309 0,5.233 L 0,0 z" /></g><g
         transform="translate(234.46878,108.2031)"
         id="g404"><path
           inkscape:connector-curvature="0"
           id="path406"
           style="fill:#eec125;fill-opacity:1;fill-rule:nonzero;stroke:none"
           d="m 0,0 c 0,-11.139 -9.031,-20.168 -20.168,-20.168 l -96.763,0 c -11.137,0 -20.168,9.029 -20.168,20.168 0,11.139 9.031,20.169 20.168,20.169 l 96.763,0 C -9.031,20.169 0,11.139 0,0" /></g><g
         transform="translate(234.46878,108.2031)"
         id="g408"><path
           inkscape:connector-curvature="0"
           id="path410"
           style="fill:none;stroke:#ee8349;stroke-width:3;stroke-linecap:butt;stroke-linejoin:miter;stroke-miterlimit:10;stroke-opacity:1;stroke-dasharray:none"
           d="m 0,0 c 0,-11.139 -9.031,-20.168 -20.168,-20.168 l -96.763,0 c -11.137,0 -20.168,9.029 -20.168,20.168 0,11.139 9.031,20.169 20.168,20.169 l 96.763,0 C -9.031,20.169 0,11.139 0,0 z" /></g><g
         transform="translate(165.26808,353.3633)"
         id="g412"><path
           inkscape:connector-curvature="0"
           id="path414"
           style="fill:#edc54d;fill-opacity:1;fill-rule:nonzero;stroke:none"
           d="m 0,0 c -29.033,0 -52.57,-23.537 -52.57,-52.57 l 0,-54.65 105.14,0 0,54.65 C 52.57,-23.537 29.033,0 0,0" /></g><g
         transform="translate(221.37888,238.2168)"
         id="g416"><path
           inkscape:connector-curvature="0"
           id="path418"
           style="fill:#ee8349;fill-opacity:1;fill-rule:nonzero;stroke:none"
           d="m 0,0 c 0,-4.081 -3.308,-7.39 -7.389,-7.39 l -97.597,0 c -4.081,0 -7.389,3.309 -7.389,7.39 l 0,3.386 c 0,4.081 3.308,7.389 7.389,7.389 l 97.597,0 C -3.308,10.775 0,7.467 0,3.386 L 0,0 z" /></g><g
         transform="translate(110.89598,202.5283)"
         id="g500"><path
           inkscape:connector-curvature="0"
           id="path502"
           style="fill:#f6e9e2;fill-opacity:1;fill-rule:nonzero;stroke:none"
           d="m 0,0 -2.782,4.793 2.706,-4.834 -2.706,4.834 -2.706,4.835 C -5.792,9.458 -8.013,8.163 -10.642,5.342 l 7.406,-8.313 C -1.595,-1.008 -0.199,-0.121 0,0" /></g><g
         transform="translate(104.21928,193.8311)"
         id="g504"><path
           inkscape:connector-curvature="0"
           id="path506"
           style="fill:#f6e9e2;fill-opacity:1;fill-rule:nonzero;stroke:none"
           d="m 0,0 -9.729,5.358 c -1.172,-2.531 -2.188,-5.48 -2.872,-8.906 L -1.804,-6.075 C -1.362,-3.732 -0.729,-1.719 0,0" /></g><g
         transform="translate(97.272477,149.7314)"
         id="g508"><path
           inkscape:connector-curvature="0"
           id="path510"
           style="fill:#5b3420;fill-opacity:1;fill-rule:nonzero;stroke:none"
           d="M 0,0 10.333,4.005 C 9.373,6.483 8.558,8.84 7.86,11.089 L -2.784,8.013 C -1.996,5.451 -1.079,2.785 0,0" /></g><g
         transform="translate(107.65968,199.5576)"
         id="g512"><path
           inkscape:connector-curvature="0"
           id="path514"
           style="fill:#5b3420;fill-opacity:1;fill-rule:nonzero;stroke:none"
           d="m 0,0 -7.405,8.313 c -1.9,-2.039 -4.007,-4.893 -5.764,-8.681 L -3.44,-5.727 C -2.381,-3.229 -1.135,-1.355 0,0" /></g><g
         transform="translate(102.41558,187.7559)"
         id="g516"><path
           inkscape:connector-curvature="0"
           id="path518"
           style="fill:#5b3420;fill-opacity:1;fill-rule:nonzero;stroke:none"
           d="m 0,0 -10.797,2.527 c -0.503,-2.524 -0.83,-5.298 -0.906,-8.35 L -0.635,-6.145 C -0.579,-3.879 -0.347,-1.844 0,0" /></g><g
         transform="translate(92.535177,165.0908)"
         id="g520"><path
           inkscape:connector-curvature="0"
           id="path522"
           style="fill:#f6e9e2;fill-opacity:1;fill-rule:nonzero;stroke:none"
           d="m 0,0 c 0.525,-2.346 1.167,-4.788 1.954,-7.347 l 10.643,3.076 c -0.677,2.183 -1.236,4.26 -1.692,6.237 L 0,0 z" /></g><g
         transform="translate(102.08008,174.9551)"
         id="g524"><path
           inkscape:connector-curvature="0"
           id="path526"
           style="fill:#5b3420;fill-opacity:1;fill-rule:nonzero;stroke:none"
           d="m 0,0 -11.067,-0.484 c 0.283,-2.924 0.775,-6.043 1.522,-9.38 L 1.36,-7.898 C 0.707,-5.062 0.263,-2.433 0,0" /></g><g
         transform="translate(101.78028,181.6113)"
         id="g528"><path
           inkscape:connector-curvature="0"
           id="path530"
           style="fill:#f6e9e2;fill-opacity:1;fill-rule:nonzero;stroke:none"
           d="m 0,0 -11.067,0.321 c -0.06,-2.322 0.041,-4.816 0.299,-7.462 L 0.3,-6.656 C 0.042,-4.254 -0.05,-2.035 0,0" /></g><g
         transform="translate(95.356477,144.1875)"
         id="g532"><path
           inkscape:connector-curvature="0"
           id="path534"
           style="fill:#e34f41;fill-opacity:1;fill-rule:nonzero;stroke:none"
           d="m 0,0 c 0,5.785 4.688,10.474 10.474,10.474 5.785,0 10.474,-4.689 10.474,-10.474 0,-5.785 -4.689,-10.474 -10.474,-10.474 C 4.688,-10.474 0,-5.785 0,0" /></g><g
         transform="translate(130.93998,212.5459)"
         id="g536"><path
           inkscape:connector-curvature="0"
           id="path538"
           style="fill:#e7594a;fill-opacity:1;fill-rule:nonzero;stroke:none"
           d="m 0,0 c 0,-6.781 -5.497,-12.277 -12.276,-12.277 -6.781,0 -12.278,5.496 -12.278,12.277 0,6.779 5.497,12.276 12.278,12.276 C -5.497,12.276 0,6.779 0,0" /></g><g
         transform="translate(122.85648,224.207)"
         id="g814"><path
           inkscape:connector-curvature="0"
           id="path816"
           style="fill:#1f7768;fill-opacity:1;fill-rule:nonzero;stroke:none"
           d="m 0,0 c 0,1.021 0.826,1.848 1.847,1.848 l 81.28,0 c 1.021,0 1.848,-0.827 1.848,-1.848 l 11.084,-60.037 c 0,-1.021 -0.827,-1.847 -1.848,-1.847 l -103.447,0 c -1.021,0 -1.848,0.826 -1.848,1.847 L 0,0 z" /></g><g
         transform="translate(175.76708,344.2617)"
         id="g912"><path
           inkscape:connector-curvature="0"
           id="path914"
           style="fill:#f1ebe6;fill-opacity:1;fill-rule:nonzero;stroke:none"
           d="m 0,0 c 0,0 24.888,-9.954 26.495,-34.744 1.606,-24.791 -0.689,-32.97 5.623,-32.191 6.312,0.78 3.673,10.514 3.673,17.654 0,7.138 -1.17,20.479 -4.82,27.259 C 27.154,-14.933 21.466,-2.076 0,0" /></g><g
         transform="translate(203.17868,266.8135)"
         id="g916"><path
           inkscape:connector-curvature="0"
           id="path918"
           style="fill:#f1ebe6;fill-opacity:1;fill-rule:nonzero;stroke:none"
           d="M 0,0 C 0,1.934 1.387,3.503 3.099,3.503 4.811,3.503 6.198,1.934 6.198,0 6.198,-1.937 4.811,-3.505 3.099,-3.505 1.387,-3.505 0,-1.937 0,0" /></g><g
         transform="translate(189.31148,303.0479)"
         id="g976"><path
           inkscape:connector-curvature="0"
           id="path978"
           style="fill:#f0984c;fill-opacity:1;fill-rule:nonzero;stroke:none"
           d="m 0,0 c 0,-13.403 -10.867,-24.272 -24.271,-24.272 -13.403,0 -24.272,10.869 -24.272,24.272 0,13.404 10.869,24.271 24.272,24.271 C -10.867,24.271 0,13.404 0,0" /></g><g
         transform="translate(179.16948,303.0479)"
         id="g980"><path
           inkscape:connector-curvature="0"
           id="path982"
           style="fill:#f1ebe6;fill-opacity:1;fill-rule:nonzero;stroke:none"
           d="m 0,0 c 0,-7.804 -6.325,-14.128 -14.129,-14.128 -7.802,0 -14.128,6.324 -14.128,14.128 0,7.803 6.326,14.127 14.128,14.127 C -6.325,14.127 0,7.803 0,0" /></g><g
         transform="translate(173.37498,303.0479)"
         id="g984"><path
           inkscape:connector-curvature="0"
           id="path986"
           style="fill:#4e341c;fill-opacity:1;fill-rule:nonzero;stroke:none"
           d="m 0,0 c 0,-4.604 -3.73,-8.33 -8.334,-8.33 -4.602,0 -8.331,3.726 -8.331,8.33 0,4.601 3.729,8.331 8.331,8.331 C -3.73,8.331 0,4.601 0,0" /></g><g
         transform="translate(146.67778,262.0957)"
         id="g988"><path
           inkscape:connector-curvature="0"
           id="path990"
           style="fill:#4e341c;fill-opacity:1;fill-rule:nonzero;stroke:none"
           d="m 0,0 c 0,-2.646 -2.145,-4.793 -4.793,-4.793 -2.648,0 -4.795,2.147 -4.795,4.793 0,2.648 2.147,4.794 4.795,4.794 C -2.145,4.794 0,2.648 0,0" /></g><g
         transform="translate(158.99898,262.0957)"
         id="g992"><path
           inkscape:connector-curvature="0"
           id="path994"
           style="fill:#4e341c;fill-opacity:1;fill-rule:nonzero;stroke:none"
           d="m 0,0 c 0,-2.646 -2.143,-4.793 -4.79,-4.793 -2.647,0 -4.794,2.147 -4.794,4.793 0,2.648 2.147,4.794 4.794,4.794 C -2.143,4.794 0,2.648 0,0" /></g><g
         transform="translate(171.32568,262.0957)"
         id="g996"><path
           inkscape:connector-curvature="0"
           id="path998"
           style="fill:#4e341c;fill-opacity:1;fill-rule:nonzero;stroke:none"
           d="m 0,0 c 0,-2.646 -2.143,-4.793 -4.792,-4.793 -2.647,0 -4.794,2.147 -4.794,4.793 0,2.648 2.147,4.794 4.794,4.794 C -2.143,4.794 0,2.648 0,0" /></g><g
         transform="translate(183.65038,262.0957)"
         id="g1000"><path
           inkscape:connector-curvature="0"
           id="path1002"
           style="fill:#4e341c;fill-opacity:1;fill-rule:nonzero;stroke:none"
           d="m 0,0 c 0,-2.646 -2.145,-4.793 -4.791,-4.793 -2.648,0 -4.795,2.147 -4.795,4.793 0,2.648 2.147,4.794 4.795,4.794 C -2.145,4.794 0,2.648 0,0" /></g><g
         transform="translate(195.97558,262.0957)"
         id="g1004"><path
           inkscape:connector-curvature="0"
           id="path1006"
           style="fill:#4e341c;fill-opacity:1;fill-rule:nonzero;stroke:none"
           d="m 0,0 c 0,-2.646 -2.147,-4.793 -4.793,-4.793 -2.647,0 -4.793,2.147 -4.793,4.793 0,2.648 2.146,4.794 4.793,4.794 C -2.147,4.794 0,2.648 0,0" /></g><g
         transform="translate(167.32468,200.2324)"
         id="g1008"><path
           inkscape:connector-curvature="0"
           id="path1010"
           style="fill:#f0984c;fill-opacity:1;fill-rule:nonzero;stroke:none"
           d="M 0,0 1.31,5.264 C 2.327,5.187 3.287,5.765 3.696,6.699 L 8.96,5.392 C 7.798,1.572 3.925,-0.762 0,0 M -6.191,9.153 -0.927,7.847 C -1.001,6.829 -0.422,5.87 0.512,5.46 L -0.794,0.194 C -4.618,1.359 -6.949,5.233 -6.191,9.153 M 2.965,15.348 1.66,10.086 C 0.642,10.159 -0.318,9.579 -0.727,8.646 l -5.266,1.308 c 1.162,3.82 5.037,6.155 8.958,5.394 M 9.159,6.19 3.895,7.501 C 3.97,8.518 3.391,9.478 2.455,9.886 l 1.308,5.263 C 7.587,13.989 9.92,10.112 9.159,6.19 m 2.904,-1.181 0.669,-0.165 c 0.219,-0.059 0.44,0.109 0.491,0.367 0.05,0.276 0.114,0.549 0.15,0.828 0.025,0.264 -0.137,0.494 -0.363,0.509 0,0 -0.303,0.032 -0.678,0.067 -0.375,0.037 -0.644,0.406 -0.635,0.827 0.007,0.423 0.294,0.784 0.673,0.805 l 0.687,0.04 c 0.231,0.011 0.388,0.231 0.362,0.496 -0.035,0.278 -0.052,0.56 -0.102,0.835 -0.052,0.26 -0.276,0.432 -0.496,0.387 0,0 -0.3,-0.066 -0.67,-0.145 -0.367,-0.072 -0.735,0.199 -0.851,0.605 -0.119,0.405 0.049,0.831 0.404,0.965 l 0.646,0.238 c 0.213,0.079 0.301,0.339 0.196,0.582 -0.113,0.26 -0.203,0.525 -0.346,0.768 -0.124,0.234 -0.386,0.333 -0.581,0.223 0,0 -0.268,-0.148 -0.6,-0.332 -0.329,-0.184 -0.762,-0.029 -0.993,0.324 -0.233,0.352 -0.2,0.813 0.105,1.039 l 0.543,0.419 c 0.18,0.137 0.191,0.415 0.023,0.621 -0.176,0.216 -0.355,0.429 -0.559,0.624 -0.185,0.189 -0.465,0.211 -0.618,0.046 0,0 -0.213,-0.219 -0.477,-0.49 -0.263,-0.274 -0.721,-0.256 -1.046,0.013 -0.325,0.27 -0.428,0.72 -0.207,1.026 l 0.397,0.558 c 0.127,0.182 0.059,0.453 -0.163,0.6 -0.226,0.165 -0.471,0.307 -0.72,0.435 -0.233,0.125 -0.503,0.063 -0.604,-0.139 0,0 -0.137,-0.274 -0.309,-0.613 -0.171,-0.339 -0.613,-0.455 -1.003,-0.296 -0.391,0.162 -0.622,0.56 -0.503,0.92 l 0.213,0.65 c 0.072,0.214 -0.074,0.451 -0.328,0.523 -0.266,0.09 -0.538,0.158 -0.816,0.202 -0.26,0.054 -0.498,-0.087 -0.536,-0.309 0,0 -0.05,-0.303 -0.113,-0.676 C 3.24,18.015 2.85,17.771 2.432,17.812 2.011,17.854 1.674,18.162 1.681,18.541 l 0.015,0.686 c 0.005,0.227 -0.206,0.407 -0.469,0.407 -0.282,0 -0.561,-0.009 -0.841,-0.047 -0.263,-0.028 -0.453,-0.234 -0.424,-0.456 0,0 0.041,-0.305 0.09,-0.68 0.052,-0.378 -0.251,-0.721 -0.662,-0.808 -0.411,-0.087 -0.828,0.112 -0.932,0.472 l -0.192,0.66 c -0.058,0.22 -0.314,0.329 -0.566,0.249 -0.273,-0.074 -0.531,-0.183 -0.788,-0.292 -0.246,-0.104 -0.367,-0.351 -0.271,-0.555 0,0 0.13,-0.281 0.289,-0.628 0.158,-0.343 -0.028,-0.763 -0.397,-0.967 -0.368,-0.202 -0.821,-0.138 -1.029,0.179 l -0.377,0.573 c -0.121,0.189 -0.398,0.222 -0.615,0.078 -0.241,-0.152 -0.447,-0.345 -0.665,-0.516 -0.206,-0.168 -0.248,-0.441 -0.098,-0.61 0,0 0.204,-0.229 0.46,-0.515 0.252,-0.283 0.199,-0.739 -0.096,-1.042 -0.294,-0.301 -0.744,-0.374 -1.033,-0.133 l -0.527,0.436 c -0.173,0.147 -0.451,0.1 -0.617,-0.106 -0.175,-0.22 -0.325,-0.462 -0.483,-0.692 -0.146,-0.221 -0.112,-0.49 0.086,-0.607 0,0 0.264,-0.162 0.592,-0.357 0.325,-0.199 0.408,-0.65 0.218,-1.025 C -7.84,11.868 -8.25,11.668 -8.6,11.811 l -0.629,0.261 c -0.209,0.088 -0.462,-0.04 -0.563,-0.285 -0.094,-0.264 -0.168,-0.534 -0.249,-0.801 -0.078,-0.253 0.04,-0.502 0.258,-0.555 0,0 0.299,-0.077 0.669,-0.166 0.368,-0.093 0.585,-0.498 0.51,-0.913 -0.07,-0.415 -0.403,-0.729 -0.779,-0.693 l -0.678,0.065 c -0.224,0.021 -0.429,-0.177 -0.449,-0.437 -0.029,-0.279 -0.008,-0.561 -0.011,-0.845 0.003,-0.262 0.189,-0.466 0.413,-0.454 0,0 0.309,0.018 0.688,0.04 0.378,0.022 0.705,-0.303 0.761,-0.725 0.054,-0.417 -0.175,-0.812 -0.542,-0.892 l -0.671,-0.14 c -0.22,-0.043 -0.353,-0.292 -0.299,-0.55 0.065,-0.271 0.161,-0.539 0.24,-0.807 0.077,-0.252 0.316,-0.393 0.532,-0.313 0,0 0.289,0.109 0.646,0.243 0.355,0.132 0.761,-0.081 0.938,-0.467 0.179,-0.383 0.078,-0.83 -0.252,-1.014 L -8.668,2.034 C -8.865,1.923 -8.926,1.648 -8.794,1.418 l 0.465,-0.697 c 0.144,-0.227 0.427,-0.278 0.606,-0.141 0,0 0.244,0.189 0.545,0.419 0.301,0.23 0.752,0.145 1.032,-0.17 0.283,-0.317 0.315,-0.771 0.056,-1.046 l -0.478,-0.494 c -0.154,-0.155 -0.143,-0.451 0.063,-0.621 l 0.649,-0.537 c 0.2,-0.172 0.493,-0.127 0.621,0.052 0,0 0.176,0.251 0.399,0.561 0.218,0.305 0.67,0.358 1.035,0.137 0.363,-0.216 0.53,-0.642 0.361,-0.982 l -0.309,-0.613 c -0.103,-0.194 -0.003,-0.475 0.246,-0.569 l 0.775,-0.325 c 0.248,-0.101 0.513,0.029 0.581,0.234 0,0 0.096,0.292 0.211,0.653 0.119,0.361 0.379,0.599 0.579,0.536 0.123,-0.035 0.249,-0.069 0.372,-0.099 0.123,-0.029 0.245,-0.058 0.371,-0.083 0.206,-0.043 0.325,-0.372 0.26,-0.747 l -0.115,-0.675 c -0.038,-0.215 0.137,-0.454 0.4,-0.476 l 0.841,-0.08 c 0.262,-0.032 0.48,0.17 0.483,0.39 0,0 0.006,0.309 0.015,0.685 0.005,0.379 0.355,0.679 0.777,0.701 0.421,0.025 0.8,-0.233 0.85,-0.607 l 0.09,-0.679 c 0.029,-0.219 0.265,-0.396 0.525,-0.339 l 0.824,0.174 c 0.262,0.049 0.41,0.307 0.347,0.52 0,0 -0.085,0.292 -0.191,0.656 -0.103,0.365 0.14,0.751 0.535,0.899 0.399,0.148 0.834,0.014 0.994,-0.33 L 6.31,-2.903 c 0.092,-0.202 0.366,-0.29 0.595,-0.159 l 0.74,0.399 c 0.224,0.142 0.3,0.415 0.177,0.602 0,0 -0.168,0.258 -0.377,0.574 -0.204,0.318 -0.085,0.758 0.252,1.017 0.334,0.253 0.792,0.253 1.045,-0.028 l 0.46,-0.517 c 0.15,-0.171 0.427,-0.158 0.613,0.03 0.199,0.194 0.406,0.389 0.592,0.598 0.168,0.202 0.166,0.484 -0.009,0.626 0,0 -0.236,0.198 -0.525,0.437 -0.29,0.24 -0.307,0.698 -0.061,1.043 0.243,0.344 0.684,0.481 1.008,0.285 l 0.59,-0.356 c 0.193,-0.117 0.453,-0.025 0.579,0.207 0.128,0.251 0.278,0.49 0.383,0.751 0.104,0.244 0.018,0.511 -0.19,0.596 0,0 -0.283,0.117 -0.633,0.261 -0.348,0.144 -0.496,0.577 -0.364,0.974 0.129,0.405 0.512,0.663 0.878,0.572" /></g><g
         transform="translate(192.40328,189.9893)"
         id="g1012"><path
           inkscape:connector-curvature="0"
           id="path1014"
           style="fill:#ffffff;fill-opacity:1;fill-rule:nonzero;stroke:none"
           d="M 0,0 0.516,-0.127 C 0.682,-0.17 0.855,-0.044 0.893,0.156 0.931,0.369 0.98,0.581 1.009,0.794 1.03,0.997 0.904,1.176 0.731,1.19 c 0,0 -0.235,0.024 -0.525,0.051 -0.289,0.027 -0.496,0.31 -0.491,0.639 0.007,0.324 0.227,0.602 0.52,0.62 l 0.532,0.025 c 0.175,0.011 0.299,0.184 0.278,0.386 -0.027,0.217 -0.04,0.434 -0.08,0.647 -0.041,0.2 -0.213,0.335 -0.382,0.296 0,0 -0.231,-0.049 -0.516,-0.109 -0.285,-0.057 -0.568,0.151 -0.658,0.465 -0.091,0.312 0.037,0.643 0.312,0.743 L 0.218,5.14 C 0.384,5.199 0.453,5.4 0.37,5.59 0.283,5.787 0.215,5.992 0.105,6.181 0.009,6.36 -0.193,6.437 -0.346,6.352 c 0,0 -0.206,-0.114 -0.462,-0.254 -0.253,-0.142 -0.587,-0.026 -0.767,0.248 -0.176,0.271 -0.153,0.625 0.08,0.803 l 0.422,0.323 c 0.139,0.104 0.146,0.317 0.018,0.476 -0.135,0.169 -0.274,0.335 -0.433,0.484 -0.142,0.147 -0.357,0.164 -0.476,0.04 0,0 -0.164,-0.174 -0.367,-0.383 C -2.534,7.878 -2.89,7.893 -3.139,8.1 -3.39,8.307 -3.469,8.653 -3.299,8.894 l 0.304,0.428 c 0.1,0.14 0.048,0.351 -0.122,0.462 -0.177,0.127 -0.364,0.236 -0.557,0.336 -0.181,0.094 -0.39,0.049 -0.466,-0.108 0,0 -0.108,-0.213 -0.238,-0.473 -0.132,-0.26 -0.473,-0.35 -0.774,-0.226 -0.301,0.124 -0.48,0.43 -0.388,0.707 l 0.165,0.504 c 0.055,0.163 -0.059,0.343 -0.255,0.405 -0.204,0.068 -0.415,0.118 -0.63,0.154 -0.2,0.04 -0.384,-0.068 -0.413,-0.241 0,0 -0.039,-0.232 -0.086,-0.518 -0.051,-0.289 -0.352,-0.474 -0.675,-0.446 -0.325,0.031 -0.583,0.271 -0.579,0.563 l 0.011,0.531 c 0.003,0.173 -0.157,0.313 -0.361,0.31 -0.219,0.003 -0.435,-0.004 -0.65,-0.036 -0.203,-0.018 -0.351,-0.179 -0.326,-0.349 0,0 0.03,-0.234 0.068,-0.524 0.04,-0.289 -0.192,-0.556 -0.512,-0.625 -0.316,-0.068 -0.636,0.083 -0.716,0.365 l -0.148,0.512 c -0.047,0.166 -0.244,0.251 -0.44,0.191 -0.209,-0.057 -0.408,-0.142 -0.608,-0.227 -0.189,-0.079 -0.28,-0.273 -0.207,-0.429 0,0 0.099,-0.215 0.221,-0.483 0.123,-0.264 -0.019,-0.587 -0.304,-0.747 -0.284,-0.156 -0.636,-0.109 -0.794,0.138 l -0.289,0.443 c -0.094,0.143 -0.308,0.173 -0.478,0.057 -0.184,-0.116 -0.345,-0.265 -0.512,-0.397 -0.161,-0.13 -0.193,-0.339 -0.076,-0.469 0,0 0.159,-0.177 0.355,-0.395 0.195,-0.218 0.154,-0.572 -0.075,-0.806 -0.224,-0.234 -0.574,-0.289 -0.798,-0.104 l -0.404,0.338 c -0.133,0.112 -0.35,0.076 -0.478,-0.083 -0.133,-0.17 -0.251,-0.355 -0.371,-0.534 -0.114,-0.171 -0.087,-0.379 0.066,-0.469 0,0 0.206,-0.123 0.457,-0.276 0.25,-0.149 0.314,-0.496 0.167,-0.788 -0.144,-0.292 -0.463,-0.445 -0.73,-0.336 l -0.487,0.202 c -0.161,0.069 -0.356,-0.032 -0.433,-0.222 -0.076,-0.202 -0.13,-0.409 -0.195,-0.617 -0.06,-0.196 0.031,-0.387 0.202,-0.427 0,0 0.231,-0.058 0.514,-0.13 0.285,-0.069 0.451,-0.386 0.397,-0.703 -0.054,-0.324 -0.314,-0.563 -0.602,-0.537 l -0.527,0.049 c -0.174,0.019 -0.327,-0.133 -0.345,-0.339 -0.023,-0.212 -0.003,-0.429 -0.009,-0.645 0.006,-0.206 0.146,-0.365 0.32,-0.354 0,0 0.237,0.014 0.531,0.033 0.293,0.014 0.544,-0.237 0.585,-0.56 0.041,-0.324 -0.131,-0.63 -0.417,-0.689 l -0.517,-0.108 c -0.17,-0.034 -0.273,-0.225 -0.231,-0.423 0.05,-0.213 0.122,-0.418 0.187,-0.624 0.06,-0.194 0.244,-0.302 0.41,-0.241 0,0 0.222,0.084 0.496,0.186 0.276,0.102 0.588,-0.064 0.725,-0.358 0.139,-0.294 0.06,-0.64 -0.197,-0.781 L -16,-2.295 c -0.153,-0.087 -0.198,-0.298 -0.097,-0.476 l 0.359,-0.54 c 0.11,-0.171 0.33,-0.21 0.469,-0.104 0,0 0.188,0.143 0.419,0.322 0.232,0.178 0.58,0.109 0.797,-0.131 0.219,-0.247 0.244,-0.597 0.042,-0.808 l -0.368,-0.381 c -0.12,-0.122 -0.11,-0.348 0.048,-0.48 l 0.5,-0.415 c 0.155,-0.133 0.384,-0.097 0.48,0.042 0,0 0.137,0.191 0.307,0.431 0.171,0.238 0.521,0.276 0.799,0.11 0.281,-0.17 0.411,-0.5 0.278,-0.759 l -0.237,-0.473 c -0.079,-0.149 -0.002,-0.364 0.19,-0.44 l 0.6,-0.25 c 0.19,-0.081 0.393,0.023 0.446,0.179 0,0 0.074,0.226 0.162,0.504 0.094,0.277 0.293,0.462 0.452,0.415 0.089,-0.029 0.187,-0.055 0.283,-0.078 0.095,-0.023 0.191,-0.043 0.286,-0.064 0.159,-0.032 0.251,-0.288 0.202,-0.575 l -0.09,-0.521 c -0.029,-0.166 0.105,-0.35 0.309,-0.368 l 0.649,-0.061 c 0.202,-0.025 0.372,0.131 0.374,0.301 0,0 0.003,0.236 0.01,0.528 0.004,0.293 0.274,0.52 0.601,0.538 0.325,0.022 0.617,-0.18 0.655,-0.465 l 0.069,-0.525 c 0.021,-0.17 0.205,-0.305 0.405,-0.258 l 0.637,0.13 c 0.2,0.041 0.316,0.238 0.267,0.401 0,0 -0.067,0.226 -0.146,0.506 -0.081,0.28 0.107,0.581 0.411,0.695 0.309,0.111 0.644,0.009 0.769,-0.256 l 0.22,-0.483 c 0.072,-0.156 0.285,-0.225 0.464,-0.124 l 0.566,0.311 c 0.175,0.107 0.233,0.317 0.137,0.462 0,0 -0.13,0.198 -0.29,0.443 -0.159,0.242 -0.063,0.585 0.194,0.783 0.259,0.197 0.612,0.197 0.807,-0.018 l 0.356,-0.4 c 0.117,-0.134 0.328,-0.124 0.474,0.019 0.152,0.153 0.312,0.302 0.454,0.464 0.132,0.157 0.129,0.375 -0.005,0.483 0,0 -0.182,0.152 -0.406,0.34 -0.225,0.184 -0.236,0.537 -0.047,0.803 0.188,0.265 0.525,0.371 0.78,0.218 l 0.454,-0.273 c 0.148,-0.092 0.348,-0.019 0.447,0.161 0.1,0.191 0.213,0.377 0.296,0.579 0.078,0.19 0.013,0.393 -0.148,0.458 0,0 -0.22,0.092 -0.488,0.203 -0.269,0.109 -0.387,0.445 -0.282,0.754 C -0.579,-0.13 -0.287,0.072 0,0" /></g><g
         transform="translate(187.88628,192.291)"
         id="g1016"><path
           inkscape:connector-curvature="0"
           id="path1018"
           style="fill:#58b1b2;fill-opacity:1;fill-rule:nonzero;stroke:none"
           d="M 0,0 C 0.137,-2.014 -1.385,-3.762 -3.4,-3.9 -5.419,-4.041 -7.166,-2.519 -7.302,-0.502 -7.443,1.516 -5.92,3.264 -3.905,3.4 -1.887,3.539 -0.141,2.019 0,0" /></g><g
         transform="translate(160.95658,191.3965)"
         id="g1020"><path
           inkscape:connector-curvature="0"
           id="path1022"
           style="fill:#f0984c;fill-opacity:1;fill-rule:nonzero;stroke:none"
           d="M 0,0 1.306,-5.265 C 0.374,-5.672 -0.206,-6.632 -0.13,-7.649 l -5.264,-1.31 C -6.155,-5.033 -3.821,-1.162 0,0 m -5.197,-9.753 5.265,1.307 c 0.408,-0.935 1.369,-1.516 2.386,-1.44 l 1.307,-5.264 c -3.92,-0.758 -7.795,1.573 -8.958,5.397 m 9.758,-5.199 -1.307,5.264 c 0.933,0.412 1.512,1.372 1.44,2.389 l 5.262,1.306 c 0.76,-3.922 -1.575,-7.797 -5.395,-8.959 m 5.195,9.756 -5.264,-1.31 C 4.084,-5.567 3.125,-4.99 2.107,-5.066 L 0.799,0.198 c 3.92,0.761 7.799,-1.569 8.957,-5.394 M -0.955,2.226 C -1.353,2.092 -1.786,2.24 -1.929,2.59 -2.073,2.94 -2.19,3.222 -2.19,3.222 -2.275,3.431 -2.543,3.518 -2.786,3.413 -3.049,3.309 -3.285,3.156 -3.536,3.03 -3.769,2.904 -3.86,2.645 -3.745,2.449 L -3.388,1.861 C -3.193,1.536 -3.33,1.097 -3.673,0.852 -4.018,0.605 -4.476,0.624 -4.716,0.912 -4.958,1.201 -5.152,1.439 -5.152,1.439 -5.295,1.612 -5.578,1.616 -5.778,1.446 -5.989,1.263 -6.182,1.053 -6.379,0.854 -6.565,0.671 -6.578,0.393 -6.406,0.241 l 0.516,-0.458 c 0.281,-0.253 0.281,-0.711 0.027,-1.046 -0.26,-0.336 -0.7,-0.455 -1.015,-0.253 -0.316,0.209 -0.574,0.379 -0.574,0.379 -0.188,0.122 -0.46,0.047 -0.605,-0.176 l -0.397,-0.741 c -0.131,-0.23 -0.043,-0.505 0.159,-0.594 l 0.628,-0.29 c 0.343,-0.162 0.476,-0.594 0.328,-0.995 -0.146,-0.393 -0.534,-0.638 -0.896,-0.534 -0.367,0.105 -0.659,0.192 -0.659,0.192 -0.212,0.06 -0.469,-0.087 -0.519,-0.347 l -0.173,-0.826 c -0.058,-0.26 0.119,-0.494 0.339,-0.524 l 0.678,-0.09 c 0.375,-0.05 0.632,-0.429 0.606,-0.851 -0.021,-0.422 -0.319,-0.773 -0.7,-0.775 -0.375,-0.012 -0.684,-0.015 -0.684,-0.015 -0.221,-0.004 -0.424,-0.224 -0.391,-0.484 l 0.079,-0.84 c 0.022,-0.264 0.264,-0.441 0.478,-0.401 l 0.675,0.115 c 0.374,0.065 0.704,-0.053 0.745,-0.259 0.027,-0.126 0.054,-0.249 0.085,-0.372 0.03,-0.122 0.065,-0.249 0.099,-0.371 0.061,-0.203 -0.176,-0.462 -0.536,-0.581 -0.36,-0.116 -0.653,-0.209 -0.653,-0.209 -0.207,-0.069 -0.335,-0.336 -0.234,-0.582 l 0.325,-0.775 c 0.092,-0.249 0.373,-0.351 0.57,-0.246 l 0.611,0.307 c 0.339,0.17 0.765,0.004 0.983,-0.361 0.219,-0.364 0.168,-0.815 -0.138,-1.035 -0.309,-0.221 -0.56,-0.397 -0.56,-0.397 -0.18,-0.13 -0.224,-0.422 -0.052,-0.62 l 0.537,-0.65 c 0.17,-0.206 0.464,-0.217 0.621,-0.065 l 0.494,0.48 c 0.273,0.26 0.729,0.227 1.045,-0.058 0.314,-0.278 0.402,-0.729 0.169,-1.032 -0.229,-0.299 -0.418,-0.545 -0.418,-0.545 -0.135,-0.176 -0.087,-0.462 0.141,-0.606 l 0.698,-0.465 c 0.229,-0.13 0.505,-0.069 0.615,0.126 l 0.33,0.603 c 0.182,0.328 0.63,0.429 1.012,0.253 0.386,-0.177 0.599,-0.585 0.469,-0.939 -0.133,-0.357 -0.245,-0.645 -0.245,-0.645 -0.08,-0.217 0.061,-0.455 0.314,-0.535 0.269,-0.079 0.537,-0.172 0.808,-0.238 0.258,-0.054 0.505,0.079 0.55,0.3 l 0.139,0.671 c 0.079,0.364 0.476,0.596 0.893,0.541 0.421,-0.058 0.745,-0.383 0.723,-0.761 -0.021,-0.379 -0.037,-0.689 -0.037,-0.689 -0.013,-0.224 0.191,-0.409 0.452,-0.411 0.285,0.002 0.567,-0.019 0.845,0.01 0.261,0.018 0.458,0.224 0.436,0.448 l -0.065,0.677 c -0.036,0.376 0.278,0.711 0.693,0.781 0.415,0.075 0.822,-0.142 0.915,-0.509 0.09,-0.372 0.164,-0.672 0.164,-0.672 0.054,-0.216 0.303,-0.335 0.557,-0.256 0.267,0.079 0.538,0.155 0.799,0.249 0.246,0.101 0.376,0.354 0.287,0.563 l -0.262,0.627 c -0.142,0.351 0.058,0.762 0.434,0.95 0.377,0.191 0.828,0.108 1.024,-0.217 0.197,-0.328 0.357,-0.592 0.357,-0.592 0.12,-0.198 0.388,-0.234 0.61,-0.086 0.229,0.158 0.469,0.307 0.689,0.484 0.206,0.166 0.253,0.443 0.109,0.616 l -0.437,0.527 c -0.242,0.288 -0.17,0.739 0.133,1.032 0.304,0.295 0.758,0.35 1.043,0.097 0.285,-0.256 0.513,-0.462 0.513,-0.462 0.169,-0.147 0.443,-0.107 0.609,0.098 0.173,0.219 0.366,0.426 0.516,0.668 0.145,0.216 0.112,0.494 -0.076,0.613 l -0.573,0.379 c -0.318,0.205 -0.383,0.66 -0.181,1.028 0.206,0.367 0.625,0.556 0.969,0.397 0.348,-0.159 0.626,-0.289 0.626,-0.289 0.206,-0.097 0.453,0.025 0.555,0.27 0.111,0.257 0.221,0.517 0.293,0.787 0.079,0.253 -0.029,0.509 -0.247,0.567 l -0.662,0.191 c -0.361,0.105 -0.559,0.523 -0.473,0.935 0.09,0.411 0.433,0.714 0.808,0.66 0.376,-0.047 0.682,-0.091 0.682,-0.091 0.22,-0.028 0.428,0.163 0.455,0.426 0.039,0.278 0.047,0.559 0.047,0.841 0,0.263 -0.181,0.472 -0.408,0.468 l -0.686,-0.013 c -0.378,-0.008 -0.685,0.328 -0.729,0.75 -0.039,0.419 0.203,0.808 0.574,0.873 0.376,0.061 0.678,0.112 0.678,0.112 0.221,0.039 0.363,0.277 0.309,0.537 -0.045,0.278 -0.114,0.549 -0.202,0.816 -0.074,0.252 -0.309,0.4 -0.525,0.328 l -0.649,-0.213 c -0.361,-0.118 -0.756,0.112 -0.918,0.502 -0.161,0.389 -0.044,0.833 0.295,1.003 0.337,0.173 0.612,0.31 0.612,0.31 0.202,0.101 0.265,0.371 0.14,0.603 -0.129,0.249 -0.27,0.494 -0.436,0.721 -0.148,0.22 -0.417,0.289 -0.599,0.163 l -0.559,-0.397 c -0.307,-0.221 -0.754,-0.119 -1.025,0.205 -0.271,0.325 -0.289,0.783 -0.014,1.047 0.27,0.263 0.49,0.476 0.49,0.476 0.166,0.155 0.145,0.433 -0.047,0.621 C 10.35,1.382 10.137,1.562 9.918,1.738 9.712,1.904 9.435,1.894 9.298,1.714 L 8.881,1.172 C 8.652,0.865 8.194,0.833 7.84,1.067 7.488,1.299 7.332,1.731 7.515,2.06 7.701,2.392 7.849,2.659 7.849,2.659 7.959,2.854 7.86,3.117 7.625,3.239 7.382,3.384 7.119,3.474 6.859,3.586 6.615,3.69 6.355,3.604 6.276,3.391 L 6.036,2.745 C 5.904,2.388 5.479,2.222 5.073,2.341 4.665,2.457 4.395,2.824 4.468,3.192 4.548,3.561 4.611,3.86 4.611,3.86 4.658,4.08 4.485,4.304 4.225,4.358 3.951,4.408 3.669,4.423 3.392,4.459 3.125,4.484 2.904,4.329 2.894,4.099 L 2.854,3.409 C 2.832,3.03 2.473,2.745 2.049,2.738 1.629,2.728 1.261,2.998 1.223,3.373 1.187,3.748 1.156,4.052 1.156,4.052 1.14,4.275 0.911,4.437 0.646,4.412 0.368,4.376 0.094,4.314 -0.181,4.265 -0.44,4.214 -0.606,3.99 -0.548,3.773 l 0.166,-0.67 c 0.09,-0.365 -0.17,-0.748 -0.573,-0.877" /></g><g
         transform="translate(144.88278,206.835)"
         id="g1024"><path
           inkscape:connector-curvature="0"
           id="path1026"
           style="fill:#ffffff;fill-opacity:1;fill-rule:nonzero;stroke:none"
           d="m 0,0 c -0.31,-0.105 -0.646,0.014 -0.754,0.281 -0.112,0.271 -0.202,0.49 -0.202,0.49 -0.065,0.16 -0.271,0.224 -0.458,0.149 -0.202,-0.083 -0.39,-0.198 -0.581,-0.296 -0.18,-0.102 -0.251,-0.3 -0.159,-0.447 l 0.273,-0.455 c 0.153,-0.256 0.045,-0.592 -0.219,-0.78 -0.265,-0.191 -0.62,-0.18 -0.804,0.047 -0.188,0.224 -0.338,0.405 -0.338,0.405 -0.11,0.133 -0.326,0.136 -0.483,0.006 -0.164,-0.143 -0.312,-0.302 -0.463,-0.454 -0.145,-0.148 -0.154,-0.357 -0.02,-0.476 l 0.398,-0.354 c 0.217,-0.194 0.217,-0.549 0.02,-0.808 -0.2,-0.256 -0.541,-0.354 -0.785,-0.195 -0.245,0.162 -0.442,0.292 -0.442,0.292 -0.144,0.094 -0.355,0.036 -0.463,-0.136 l -0.309,-0.567 c -0.101,-0.181 -0.032,-0.393 0.123,-0.466 l 0.481,-0.219 c 0.268,-0.123 0.371,-0.458 0.259,-0.769 -0.114,-0.303 -0.415,-0.491 -0.695,-0.411 -0.281,0.079 -0.507,0.147 -0.507,0.147 -0.164,0.047 -0.359,-0.068 -0.402,-0.266 l -0.13,-0.639 c -0.047,-0.198 0.09,-0.383 0.26,-0.404 l 0.523,-0.069 C -5.59,-6.434 -5.39,-6.726 -5.41,-7.051 -5.43,-7.375 -5.655,-7.646 -5.948,-7.649 -6.24,-7.656 -6.476,-7.66 -6.476,-7.66 -6.646,-7.664 -6.805,-7.833 -6.777,-8.035 l 0.059,-0.65 c 0.018,-0.202 0.202,-0.336 0.368,-0.306 l 0.523,0.09 c 0.285,0.047 0.541,-0.043 0.574,-0.203 0.022,-0.096 0.04,-0.191 0.065,-0.288 0.021,-0.093 0.049,-0.191 0.076,-0.281 0.047,-0.159 -0.138,-0.357 -0.415,-0.451 -0.276,-0.091 -0.502,-0.163 -0.502,-0.163 -0.158,-0.054 -0.26,-0.256 -0.18,-0.447 l 0.251,-0.599 c 0.074,-0.191 0.29,-0.271 0.438,-0.191 l 0.473,0.238 c 0.259,0.134 0.591,0.004 0.761,-0.277 0.166,-0.279 0.126,-0.628 -0.112,-0.802 -0.238,-0.169 -0.429,-0.307 -0.429,-0.307 -0.141,-0.094 -0.177,-0.324 -0.042,-0.479 l 0.415,-0.498 c 0.132,-0.159 0.357,-0.17 0.48,-0.051 l 0.381,0.368 c 0.209,0.202 0.561,0.177 0.808,-0.039 0.24,-0.217 0.308,-0.567 0.13,-0.798 -0.181,-0.23 -0.322,-0.418 -0.322,-0.418 -0.107,-0.142 -0.068,-0.361 0.105,-0.47 l 0.539,-0.36 c 0.179,-0.102 0.39,-0.055 0.475,0.098 l 0.256,0.461 c 0.141,0.256 0.487,0.336 0.783,0.199 0.294,-0.138 0.458,-0.451 0.358,-0.726 -0.101,-0.274 -0.186,-0.498 -0.186,-0.498 -0.063,-0.166 0.044,-0.349 0.239,-0.407 0.208,-0.065 0.412,-0.138 0.626,-0.188 0.197,-0.043 0.388,0.061 0.423,0.231 l 0.106,0.516 c 0.062,0.285 0.366,0.459 0.691,0.418 0.323,-0.042 0.574,-0.291 0.558,-0.584 -0.017,-0.296 -0.031,-0.534 -0.031,-0.534 -0.011,-0.173 0.148,-0.314 0.351,-0.318 0.217,0.004 0.435,-0.014 0.648,0.008 0.204,0.017 0.357,0.173 0.339,0.346 l -0.049,0.527 c -0.028,0.289 0.213,0.549 0.535,0.602 0.319,0.054 0.636,-0.112 0.703,-0.396 0.072,-0.285 0.13,-0.517 0.13,-0.517 0.04,-0.169 0.231,-0.259 0.429,-0.202 0.206,0.066 0.415,0.119 0.617,0.195 0.188,0.08 0.289,0.275 0.22,0.433 l -0.201,0.487 c -0.109,0.267 0.042,0.588 0.335,0.733 0.292,0.144 0.639,0.083 0.79,-0.17 0.151,-0.249 0.274,-0.454 0.274,-0.454 0.09,-0.156 0.3,-0.181 0.471,-0.069 0.179,0.122 0.363,0.238 0.532,0.372 0.161,0.129 0.197,0.346 0.083,0.48 l -0.335,0.403 c -0.188,0.224 -0.134,0.575 0.102,0.798 0.233,0.228 0.587,0.271 0.807,0.075 0.216,-0.198 0.393,-0.356 0.393,-0.356 0.13,-0.116 0.34,-0.083 0.471,0.075 0.132,0.17 0.282,0.328 0.395,0.513 0.116,0.169 0.088,0.386 -0.058,0.479 l -0.44,0.289 c -0.247,0.159 -0.296,0.509 -0.141,0.794 0.163,0.284 0.484,0.426 0.749,0.303 0.269,-0.123 0.484,-0.22 0.484,-0.22 0.156,-0.072 0.348,0.018 0.427,0.205 0.087,0.203 0.17,0.401 0.227,0.611 0.062,0.194 -0.025,0.392 -0.191,0.439 l -0.51,0.149 c -0.281,0.079 -0.435,0.4 -0.366,0.713 0.068,0.322 0.335,0.553 0.626,0.513 0.29,-0.036 0.524,-0.068 0.524,-0.068 0.17,-0.026 0.331,0.122 0.349,0.328 0.03,0.213 0.038,0.43 0.036,0.649 0.002,0.203 -0.138,0.365 -0.312,0.361 L 10.88,-7.332 c -0.292,-0.003 -0.532,0.253 -0.563,0.577 -0.03,0.325 0.157,0.625 0.446,0.675 0.285,0.047 0.517,0.087 0.517,0.087 0.172,0.029 0.282,0.213 0.241,0.415 -0.037,0.213 -0.087,0.426 -0.156,0.628 -0.059,0.198 -0.24,0.309 -0.404,0.256 L 10.456,-4.86 c -0.274,-0.09 -0.581,0.087 -0.704,0.389 -0.126,0.3 -0.036,0.643 0.226,0.773 0.26,0.13 0.473,0.238 0.473,0.238 0.156,0.075 0.202,0.284 0.106,0.465 C 10.456,-2.8 10.35,-2.612 10.222,-2.436 10.11,-2.267 9.9,-2.216 9.76,-2.313 L 9.331,-2.62 c -0.239,-0.169 -0.585,-0.09 -0.794,0.163 -0.206,0.249 -0.221,0.603 -0.011,0.808 0.209,0.202 0.382,0.364 0.382,0.364 0.127,0.119 0.109,0.336 -0.038,0.476 -0.147,0.16 -0.313,0.3 -0.483,0.433 -0.159,0.13 -0.372,0.123 -0.478,-0.018 L 7.588,-0.815 C 7.409,-1.047 7.054,-1.072 6.783,-0.896 6.511,-0.715 6.394,-0.379 6.534,-0.127 6.675,0.13 6.791,0.335 6.791,0.335 6.874,0.486 6.798,0.688 6.617,0.786 6.432,0.895 6.224,0.963 6.029,1.05 5.84,1.133 5.638,1.064 5.578,0.898 L 5.391,0.4 C 5.291,0.126 4.961,0 4.649,0.09 4.335,0.18 4.124,0.462 4.182,0.746 4.243,1.031 4.29,1.263 4.29,1.263 4.33,1.432 4.196,1.605 3.994,1.645 3.783,1.685 3.565,1.699 3.349,1.725 3.146,1.746 2.975,1.623 2.964,1.446 L 2.937,0.916 C 2.921,0.624 2.641,0.403 2.316,0.396 1.99,0.39 1.707,0.599 1.678,0.887 1.653,1.176 1.629,1.41 1.629,1.41 1.613,1.584 1.436,1.71 1.23,1.688 1.018,1.659 0.809,1.612 0.596,1.572 0.396,1.537 0.267,1.363 0.311,1.197 L 0.438,0.682 C 0.509,0.393 0.307,0.101 0,0" /></g><g
         transform="translate(147.62308,202.999)"
         id="g1028"><path
           inkscape:connector-curvature="0"
           id="path1030"
           style="fill:#58b1b2;fill-opacity:1;fill-rule:nonzero;stroke:none"
           d="m 0,0 c -2.015,0.138 -3.761,-1.385 -3.902,-3.402 -0.139,-2.017 1.382,-3.763 3.399,-3.9 2.019,-0.141 3.767,1.382 3.904,3.395 C 3.538,-1.887 2.019,-0.141 0,0" /></g><g
         transform="translate(118.16948,115.6826)"
         id="g1032"><path
           inkscape:connector-curvature="0"
           id="path1034"
           style="fill:#4e341c;fill-opacity:1;fill-rule:nonzero;stroke:none"
           d="M 0,0 C -0.31,-0.104 -0.646,0.011 -0.754,0.281 -0.866,0.549 -0.956,0.769 -0.956,0.769 -1.021,0.932 -1.227,0.996 -1.414,0.917 -1.616,0.834 -1.804,0.722 -1.995,0.621 -2.175,0.523 -2.246,0.321 -2.154,0.174 l 0.273,-0.455 c 0.153,-0.252 0.045,-0.592 -0.219,-0.78 -0.265,-0.187 -0.62,-0.176 -0.804,0.047 -0.188,0.224 -0.338,0.409 -0.338,0.409 -0.11,0.132 -0.326,0.136 -0.483,0.002 -0.164,-0.14 -0.312,-0.302 -0.463,-0.454 -0.145,-0.144 -0.154,-0.357 -0.02,-0.472 l 0.398,-0.358 c 0.217,-0.194 0.217,-0.549 0.02,-0.804 -0.2,-0.26 -0.541,-0.354 -0.785,-0.195 -0.245,0.158 -0.442,0.288 -0.442,0.288 -0.144,0.098 -0.355,0.04 -0.463,-0.136 L -5.789,-3.301 C -5.89,-3.478 -5.821,-3.69 -5.666,-3.763 l 0.481,-0.219 c 0.268,-0.127 0.371,-0.462 0.259,-0.769 -0.114,-0.307 -0.415,-0.495 -0.695,-0.412 -0.281,0.08 -0.507,0.144 -0.507,0.144 -0.164,0.051 -0.359,-0.064 -0.402,-0.266 L -6.66,-5.92 c -0.047,-0.202 0.09,-0.387 0.26,-0.408 l 0.523,-0.068 c 0.287,-0.037 0.487,-0.329 0.467,-0.654 -0.02,-0.328 -0.245,-0.598 -0.538,-0.602 -0.292,-0.007 -0.528,-0.011 -0.528,-0.011 -0.17,0 -0.328,-0.17 -0.301,-0.371 l 0.059,-0.65 c 0.018,-0.206 0.202,-0.339 0.368,-0.31 l 0.523,0.09 c 0.285,0.05 0.541,-0.043 0.574,-0.202 0.022,-0.094 0.04,-0.192 0.065,-0.286 0.021,-0.096 0.049,-0.194 0.076,-0.284 0.047,-0.159 -0.138,-0.357 -0.415,-0.451 -0.276,-0.087 -0.502,-0.163 -0.502,-0.163 -0.158,-0.05 -0.26,-0.256 -0.18,-0.443 l 0.251,-0.603 c 0.074,-0.191 0.29,-0.267 0.438,-0.187 l 0.473,0.234 c 0.259,0.134 0.591,0.004 0.761,-0.277 0.166,-0.279 0.126,-0.628 -0.112,-0.798 -0.238,-0.17 -0.429,-0.307 -0.429,-0.307 -0.141,-0.098 -0.177,-0.324 -0.042,-0.479 l 0.415,-0.502 c 0.132,-0.159 0.357,-0.166 0.48,-0.047 l 0.381,0.368 c 0.209,0.202 0.561,0.177 0.808,-0.043 0.24,-0.217 0.308,-0.564 0.13,-0.798 -0.18,-0.23 -0.322,-0.418 -0.322,-0.418 -0.107,-0.138 -0.068,-0.357 0.105,-0.47 l 0.539,-0.357 c 0.179,-0.101 0.39,-0.058 0.475,0.098 l 0.256,0.462 c 0.141,0.255 0.487,0.336 0.783,0.195 0.294,-0.138 0.458,-0.447 0.358,-0.726 -0.101,-0.274 -0.186,-0.494 -0.186,-0.494 -0.063,-0.166 0.044,-0.35 0.239,-0.411 0.208,-0.065 0.412,-0.138 0.626,-0.187 0.197,-0.041 0.388,0.06 0.423,0.23 l 0.106,0.52 c 0.061,0.285 0.366,0.458 0.691,0.415 0.323,-0.04 0.574,-0.292 0.558,-0.585 -0.017,-0.292 -0.031,-0.531 -0.031,-0.531 -0.011,-0.173 0.148,-0.313 0.351,-0.321 0.217,0.008 0.435,-0.014 0.648,0.012 0.204,0.017 0.357,0.169 0.339,0.343 l -0.049,0.526 c -0.028,0.289 0.213,0.549 0.535,0.602 0.319,0.054 0.636,-0.112 0.703,-0.396 0.072,-0.282 0.13,-0.513 0.13,-0.513 0.04,-0.173 0.231,-0.263 0.429,-0.202 0.206,0.066 0.415,0.119 0.617,0.195 0.188,0.076 0.289,0.271 0.22,0.433 l -0.201,0.487 c -0.109,0.267 0.042,0.584 0.335,0.729 0.292,0.147 0.639,0.083 0.79,-0.166 0.151,-0.253 0.274,-0.458 0.274,-0.458 0.09,-0.152 0.3,-0.181 0.471,-0.066 0.179,0.12 0.362,0.239 0.532,0.372 0.161,0.126 0.197,0.343 0.083,0.476 l -0.336,0.404 c -0.187,0.224 -0.133,0.575 0.103,0.798 0.233,0.231 0.587,0.271 0.807,0.075 0.216,-0.194 0.393,-0.353 0.393,-0.353 0.13,-0.119 0.34,-0.086 0.471,0.076 0.132,0.166 0.282,0.328 0.395,0.513 0.116,0.169 0.088,0.382 -0.058,0.475 l -0.44,0.289 c -0.247,0.159 -0.296,0.512 -0.14,0.794 0.162,0.285 0.483,0.429 0.748,0.307 0.269,-0.123 0.484,-0.224 0.484,-0.224 0.156,-0.072 0.348,0.018 0.427,0.209 0.087,0.199 0.17,0.397 0.227,0.607 0.062,0.198 -0.025,0.392 -0.191,0.439 l -0.51,0.149 c -0.282,0.079 -0.435,0.4 -0.366,0.717 0.068,0.318 0.335,0.552 0.626,0.513 0.29,-0.04 0.524,-0.069 0.524,-0.069 0.17,-0.025 0.331,0.123 0.349,0.325 0.03,0.217 0.038,0.433 0.036,0.649 0.002,0.206 -0.138,0.365 -0.312,0.361 L 10.88,-7.335 c -0.292,-0.003 -0.532,0.257 -0.563,0.581 -0.03,0.321 0.157,0.624 0.446,0.675 0.285,0.047 0.517,0.087 0.517,0.087 0.172,0.028 0.282,0.213 0.241,0.411 -0.037,0.217 -0.087,0.426 -0.156,0.631 -0.059,0.195 -0.24,0.31 -0.404,0.253 l -0.505,-0.162 c -0.274,-0.094 -0.581,0.086 -0.704,0.385 -0.126,0.303 -0.036,0.643 0.226,0.776 0.26,0.13 0.473,0.238 0.473,0.238 0.156,0.076 0.202,0.285 0.106,0.466 -0.101,0.191 -0.207,0.379 -0.335,0.556 C 10.11,-2.27 9.9,-2.215 9.76,-2.316 L 9.331,-2.619 c -0.239,-0.17 -0.585,-0.09 -0.794,0.159 -0.206,0.249 -0.221,0.606 -0.011,0.808 0.209,0.202 0.382,0.368 0.382,0.368 0.127,0.119 0.109,0.332 -0.037,0.476 -0.148,0.159 -0.314,0.296 -0.484,0.433 -0.159,0.126 -0.372,0.119 -0.478,-0.018 L 7.588,-0.815 C 7.409,-1.05 7.054,-1.071 6.783,-0.895 6.511,-0.714 6.394,-0.382 6.534,-0.13 6.675,0.127 6.791,0.332 6.791,0.332 6.874,0.487 6.797,0.689 6.617,0.783 6.431,0.896 6.224,0.964 6.029,1.05 5.84,1.133 5.638,1.064 5.578,0.898 L 5.391,0.4 C 5.292,0.127 4.961,-0.003 4.649,0.087 4.335,0.177 4.124,0.462 4.182,0.747 4.243,1.032 4.29,1.263 4.29,1.263 4.33,1.433 4.196,1.603 3.994,1.646 3.783,1.686 3.565,1.696 3.348,1.725 3.146,1.746 2.975,1.62 2.964,1.447 L 2.937,0.913 C 2.921,0.621 2.641,0.4 2.316,0.394 1.99,0.39 1.707,0.596 1.678,0.884 1.653,1.177 1.629,1.411 1.629,1.411 1.613,1.584 1.436,1.711 1.23,1.688 1.018,1.66 0.808,1.609 0.596,1.573 0.395,1.533 0.267,1.36 0.311,1.194 L 0.438,0.679 C 0.509,0.394 0.307,0.102 0,0" /></g><g
         transform="translate(120.90968,111.8438)"
         id="g1036"><path
           inkscape:connector-curvature="0"
           id="path1038"
           style="fill:#ffffff;fill-opacity:1;fill-rule:nonzero;stroke:none"
           d="M 0,0 C -2.015,0.138 -3.761,-1.385 -3.902,-3.398 -4.041,-5.419 -2.52,-7.165 -0.503,-7.302 1.516,-7.443 3.264,-5.92 3.401,-3.903 3.538,-1.887 2.019,-0.141 0,0" /></g><g
         transform="translate(140.56788,115.6826)"
         id="g1040"><path
           inkscape:connector-curvature="0"
           id="path1042"
           style="fill:#4e341c;fill-opacity:1;fill-rule:nonzero;stroke:none"
           d="M 0,0 C -0.31,-0.104 -0.646,0.011 -0.754,0.281 -0.866,0.549 -0.956,0.769 -0.956,0.769 -1.021,0.932 -1.227,0.996 -1.415,0.917 -1.616,0.834 -1.804,0.722 -1.995,0.621 -2.176,0.523 -2.246,0.321 -2.154,0.174 l 0.273,-0.455 c 0.153,-0.252 0.045,-0.592 -0.219,-0.78 -0.265,-0.187 -0.62,-0.176 -0.804,0.047 -0.188,0.224 -0.338,0.409 -0.338,0.409 -0.11,0.132 -0.326,0.136 -0.483,0.002 -0.164,-0.14 -0.312,-0.302 -0.464,-0.454 -0.144,-0.144 -0.153,-0.357 -0.019,-0.472 l 0.398,-0.358 c 0.216,-0.194 0.216,-0.549 0.02,-0.804 -0.2,-0.26 -0.542,-0.354 -0.785,-0.195 -0.245,0.158 -0.442,0.288 -0.442,0.288 -0.144,0.098 -0.355,0.04 -0.463,-0.136 L -5.789,-3.301 C -5.89,-3.478 -5.821,-3.69 -5.667,-3.763 l 0.482,-0.219 c 0.268,-0.127 0.37,-0.462 0.258,-0.769 -0.114,-0.307 -0.415,-0.495 -0.694,-0.412 -0.282,0.08 -0.507,0.144 -0.507,0.144 -0.164,0.051 -0.359,-0.064 -0.402,-0.266 L -6.66,-5.92 c -0.047,-0.202 0.09,-0.387 0.26,-0.408 l 0.523,-0.068 c 0.287,-0.037 0.487,-0.329 0.467,-0.654 -0.02,-0.328 -0.245,-0.598 -0.538,-0.602 -0.292,-0.007 -0.528,-0.011 -0.528,-0.011 -0.17,0 -0.329,-0.17 -0.301,-0.371 l 0.059,-0.65 c 0.018,-0.206 0.202,-0.339 0.368,-0.31 l 0.523,0.09 c 0.285,0.05 0.541,-0.043 0.574,-0.202 0.022,-0.094 0.04,-0.192 0.065,-0.286 0.021,-0.096 0.048,-0.194 0.076,-0.284 0.047,-0.159 -0.138,-0.357 -0.415,-0.451 -0.276,-0.087 -0.502,-0.163 -0.502,-0.163 -0.158,-0.05 -0.26,-0.256 -0.18,-0.443 l 0.251,-0.603 c 0.073,-0.191 0.29,-0.267 0.438,-0.187 l 0.473,0.234 c 0.259,0.134 0.591,0.004 0.761,-0.277 0.166,-0.279 0.126,-0.628 -0.112,-0.798 -0.238,-0.17 -0.43,-0.307 -0.43,-0.307 -0.14,-0.098 -0.176,-0.324 -0.041,-0.479 l 0.415,-0.502 c 0.132,-0.159 0.357,-0.166 0.48,-0.047 l 0.38,0.368 c 0.21,0.202 0.561,0.177 0.809,-0.043 0.24,-0.217 0.308,-0.564 0.13,-0.798 -0.181,-0.23 -0.322,-0.418 -0.322,-0.418 -0.108,-0.138 -0.068,-0.357 0.105,-0.47 l 0.539,-0.357 c 0.179,-0.101 0.39,-0.058 0.475,0.098 l 0.256,0.462 c 0.141,0.255 0.487,0.336 0.783,0.195 0.294,-0.138 0.458,-0.447 0.357,-0.726 -0.101,-0.274 -0.185,-0.494 -0.185,-0.494 -0.064,-0.166 0.044,-0.35 0.239,-0.411 0.208,-0.065 0.411,-0.138 0.626,-0.187 0.197,-0.041 0.388,0.06 0.423,0.23 l 0.106,0.52 c 0.061,0.285 0.366,0.458 0.691,0.415 0.323,-0.04 0.573,-0.292 0.557,-0.585 -0.016,-0.292 -0.031,-0.531 -0.031,-0.531 -0.01,-0.173 0.148,-0.313 0.352,-0.321 0.217,0.008 0.435,-0.014 0.648,0.012 0.204,0.017 0.357,0.169 0.339,0.343 l -0.049,0.526 c -0.028,0.289 0.213,0.549 0.535,0.602 0.319,0.054 0.636,-0.112 0.703,-0.396 0.072,-0.282 0.13,-0.513 0.13,-0.513 0.04,-0.173 0.231,-0.263 0.429,-0.202 0.206,0.066 0.415,0.119 0.617,0.195 0.188,0.076 0.289,0.271 0.22,0.433 l -0.202,0.487 c -0.108,0.267 0.043,0.584 0.335,0.729 0.293,0.147 0.639,0.083 0.791,-0.166 0.151,-0.253 0.274,-0.458 0.274,-0.458 0.09,-0.152 0.299,-0.181 0.471,-0.066 0.178,0.12 0.362,0.239 0.532,0.372 0.161,0.126 0.197,0.343 0.083,0.476 l -0.336,0.404 c -0.187,0.224 -0.133,0.575 0.103,0.798 0.233,0.231 0.587,0.271 0.807,0.075 0.216,-0.194 0.393,-0.353 0.393,-0.353 0.13,-0.119 0.339,-0.086 0.471,0.076 0.132,0.166 0.281,0.328 0.395,0.513 0.115,0.169 0.088,0.382 -0.058,0.475 l -0.44,0.289 c -0.247,0.159 -0.296,0.512 -0.141,0.794 0.163,0.285 0.484,0.429 0.749,0.307 0.269,-0.123 0.483,-0.224 0.483,-0.224 0.157,-0.072 0.349,0.018 0.428,0.209 0.087,0.199 0.169,0.397 0.227,0.607 0.061,0.198 -0.025,0.392 -0.191,0.439 l -0.511,0.149 c -0.281,0.079 -0.434,0.4 -0.366,0.717 0.069,0.318 0.336,0.552 0.626,0.513 0.291,-0.04 0.525,-0.069 0.525,-0.069 0.17,-0.025 0.331,0.123 0.349,0.325 0.03,0.217 0.037,0.433 0.036,0.649 10e-4,0.206 -0.138,0.365 -0.313,0.361 L 10.88,-7.335 c -0.293,-0.003 -0.532,0.257 -0.563,0.581 -0.031,0.321 0.157,0.624 0.446,0.675 0.284,0.047 0.517,0.087 0.517,0.087 0.172,0.028 0.282,0.213 0.24,0.411 -0.036,0.217 -0.086,0.426 -0.155,0.631 -0.059,0.195 -0.24,0.31 -0.404,0.253 l -0.505,-0.162 c -0.274,-0.094 -0.581,0.086 -0.704,0.385 -0.126,0.303 -0.036,0.643 0.226,0.776 0.26,0.13 0.473,0.238 0.473,0.238 0.156,0.076 0.201,0.285 0.106,0.466 -0.101,0.191 -0.207,0.379 -0.336,0.556 C 10.109,-2.27 9.9,-2.215 9.76,-2.316 L 9.33,-2.619 c -0.238,-0.17 -0.584,-0.09 -0.793,0.159 -0.206,0.249 -0.221,0.606 -0.011,0.808 0.209,0.202 0.382,0.368 0.382,0.368 0.126,0.119 0.108,0.332 -0.038,0.476 -0.148,0.159 -0.314,0.296 -0.483,0.433 -0.159,0.126 -0.372,0.119 -0.478,-0.018 L 7.587,-0.815 C 7.409,-1.05 7.054,-1.071 6.783,-0.895 6.511,-0.714 6.393,-0.382 6.534,-0.13 6.675,0.127 6.79,0.332 6.79,0.332 6.873,0.487 6.797,0.689 6.617,0.783 6.431,0.896 6.224,0.964 6.029,1.05 5.839,1.133 5.637,1.064 5.578,0.898 L 5.39,0.4 C 5.291,0.127 4.961,-0.003 4.649,0.087 4.335,0.177 4.124,0.462 4.182,0.747 4.243,1.032 4.29,1.263 4.29,1.263 4.33,1.433 4.196,1.603 3.994,1.646 3.783,1.686 3.564,1.696 3.348,1.725 3.146,1.746 2.975,1.62 2.964,1.447 L 2.937,0.913 C 2.92,0.621 2.641,0.4 2.316,0.394 1.99,0.39 1.707,0.596 1.678,0.884 1.652,1.177 1.629,1.411 1.629,1.411 1.613,1.584 1.436,1.711 1.23,1.688 1.018,1.66 0.808,1.609 0.595,1.573 0.395,1.533 0.267,1.36 0.31,1.194 L 0.438,0.679 C 0.509,0.394 0.307,0.102 0,0" /></g><g
         transform="translate(143.30808,111.8438)"
         id="g1044"><path
           inkscape:connector-curvature="0"
           id="path1046"
           style="fill:#ffffff;fill-opacity:1;fill-rule:nonzero;stroke:none"
           d="M 0,0 C -2.015,0.138 -3.761,-1.385 -3.902,-3.398 -4.041,-5.419 -2.52,-7.165 -0.503,-7.302 1.515,-7.443 3.263,-5.92 3.4,-3.903 3.538,-1.887 2.019,-0.141 0,0" /></g><g
         transform="translate(162.96628,115.6826)"
         id="g1048"><path
           inkscape:connector-curvature="0"
           id="path1050"
           style="fill:#4e341c;fill-opacity:1;fill-rule:nonzero;stroke:none"
           d="M 0,0 C -0.311,-0.104 -0.646,0.011 -0.754,0.281 -0.866,0.549 -0.957,0.769 -0.957,0.769 -1.021,0.932 -1.227,0.996 -1.415,0.917 -1.617,0.834 -1.804,0.722 -1.996,0.621 -2.176,0.523 -2.246,0.321 -2.154,0.174 l 0.272,-0.455 c 0.153,-0.252 0.046,-0.592 -0.218,-0.78 -0.265,-0.187 -0.621,-0.176 -0.805,0.047 -0.187,0.224 -0.337,0.409 -0.337,0.409 -0.11,0.132 -0.326,0.136 -0.484,0.002 -0.164,-0.14 -0.312,-0.302 -0.463,-0.454 -0.144,-0.144 -0.153,-0.357 -0.02,-0.472 l 0.399,-0.358 c 0.216,-0.194 0.216,-0.549 0.019,-0.804 -0.2,-0.26 -0.541,-0.354 -0.784,-0.195 -0.245,0.158 -0.442,0.288 -0.442,0.288 -0.145,0.098 -0.356,0.04 -0.463,-0.136 L -5.789,-3.301 C -5.89,-3.478 -5.822,-3.69 -5.667,-3.763 l 0.482,-0.219 c 0.267,-0.127 0.37,-0.462 0.258,-0.769 -0.114,-0.307 -0.415,-0.495 -0.695,-0.412 -0.281,0.08 -0.506,0.144 -0.506,0.144 -0.164,0.051 -0.359,-0.064 -0.403,-0.266 l -0.13,-0.635 c -0.047,-0.202 0.091,-0.387 0.26,-0.408 l 0.524,-0.068 c 0.286,-0.037 0.486,-0.329 0.467,-0.654 -0.02,-0.328 -0.246,-0.598 -0.538,-0.602 -0.292,-0.007 -0.529,-0.011 -0.529,-0.011 -0.169,0 -0.328,-0.17 -0.301,-0.371 l 0.06,-0.65 c 0.018,-0.206 0.202,-0.339 0.368,-0.31 l 0.523,0.09 c 0.285,0.05 0.541,-0.043 0.574,-0.202 0.021,-0.094 0.039,-0.192 0.065,-0.286 0.021,-0.096 0.048,-0.194 0.075,-0.284 0.047,-0.159 -0.137,-0.357 -0.415,-0.451 -0.276,-0.087 -0.501,-0.163 -0.501,-0.163 -0.159,-0.05 -0.26,-0.256 -0.18,-0.443 l 0.251,-0.603 c 0.073,-0.191 0.29,-0.267 0.437,-0.187 l 0.473,0.234 c 0.26,0.134 0.592,0.004 0.761,-0.277 0.166,-0.279 0.127,-0.628 -0.111,-0.798 -0.238,-0.17 -0.43,-0.307 -0.43,-0.307 -0.14,-0.098 -0.176,-0.324 -0.041,-0.479 l 0.415,-0.502 c 0.131,-0.159 0.357,-0.166 0.48,-0.047 l 0.38,0.368 c 0.21,0.202 0.561,0.177 0.808,-0.043 0.241,-0.217 0.309,-0.564 0.13,-0.798 -0.18,-0.23 -0.321,-0.418 -0.321,-0.418 -0.108,-0.138 -0.068,-0.357 0.105,-0.47 l 0.539,-0.357 c 0.179,-0.101 0.39,-0.058 0.475,0.098 l 0.256,0.462 c 0.141,0.255 0.487,0.336 0.783,0.195 0.294,-0.138 0.458,-0.447 0.357,-0.726 -0.101,-0.274 -0.186,-0.494 -0.186,-0.494 -0.063,-0.166 0.045,-0.35 0.24,-0.411 0.207,-0.065 0.411,-0.138 0.626,-0.187 0.197,-0.041 0.388,0.06 0.422,0.23 l 0.107,0.52 c 0.061,0.285 0.366,0.458 0.69,0.415 0.323,-0.04 0.574,-0.292 0.558,-0.585 -0.016,-0.292 -0.031,-0.531 -0.031,-0.531 -0.01,-0.173 0.148,-0.313 0.352,-0.321 0.217,0.008 0.435,-0.014 0.648,0.012 0.203,0.017 0.357,0.169 0.339,0.343 l -0.049,0.526 c -0.029,0.289 0.213,0.549 0.534,0.602 0.319,0.054 0.637,-0.112 0.704,-0.396 0.072,-0.282 0.13,-0.513 0.13,-0.513 0.039,-0.173 0.231,-0.263 0.429,-0.202 0.206,0.066 0.415,0.119 0.617,0.195 0.187,0.076 0.289,0.271 0.22,0.433 l -0.202,0.487 c -0.108,0.267 0.043,0.584 0.335,0.729 0.293,0.147 0.639,0.083 0.791,-0.166 0.151,-0.253 0.274,-0.458 0.274,-0.458 0.09,-0.152 0.299,-0.181 0.471,-0.066 0.178,0.12 0.362,0.239 0.532,0.372 0.161,0.126 0.197,0.343 0.083,0.476 l -0.336,0.404 c -0.187,0.224 -0.133,0.575 0.103,0.798 0.233,0.231 0.586,0.271 0.807,0.075 0.216,-0.194 0.393,-0.353 0.393,-0.353 0.13,-0.119 0.339,-0.086 0.471,0.076 0.131,0.166 0.281,0.328 0.395,0.513 0.115,0.169 0.088,0.382 -0.058,0.475 l -0.44,0.289 c -0.247,0.159 -0.296,0.512 -0.141,0.794 0.162,0.285 0.484,0.429 0.749,0.307 0.268,-0.123 0.483,-0.224 0.483,-0.224 0.157,-0.072 0.348,0.018 0.428,0.209 0.086,0.199 0.169,0.397 0.227,0.607 0.061,0.198 -0.025,0.392 -0.191,0.439 l -0.511,0.149 c -0.281,0.079 -0.434,0.4 -0.366,0.717 0.068,0.318 0.336,0.552 0.626,0.513 0.291,-0.04 0.525,-0.069 0.525,-0.069 0.169,-0.025 0.33,0.123 0.348,0.325 0.031,0.217 0.038,0.433 0.036,0.649 0.002,0.206 -0.137,0.365 -0.312,0.361 l -0.529,-0.011 c -0.292,-0.003 -0.531,0.257 -0.562,0.581 -0.031,0.321 0.157,0.624 0.445,0.675 0.285,0.047 0.518,0.087 0.518,0.087 0.172,0.028 0.282,0.213 0.24,0.411 -0.036,0.217 -0.086,0.426 -0.155,0.631 -0.06,0.195 -0.24,0.31 -0.404,0.253 l -0.505,-0.162 c -0.274,-0.094 -0.581,0.086 -0.704,0.385 -0.126,0.303 -0.036,0.643 0.226,0.776 0.259,0.13 0.472,0.238 0.472,0.238 0.157,0.076 0.202,0.285 0.107,0.466 -0.101,0.191 -0.208,0.379 -0.336,0.556 C 10.109,-2.27 9.9,-2.215 9.759,-2.316 L 9.33,-2.619 c -0.238,-0.17 -0.584,-0.09 -0.794,0.159 -0.205,0.249 -0.22,0.606 -0.011,0.808 0.21,0.202 0.383,0.368 0.383,0.368 0.126,0.119 0.108,0.332 -0.038,0.476 -0.148,0.159 -0.314,0.296 -0.483,0.433 -0.159,0.126 -0.372,0.119 -0.478,-0.018 L 7.587,-0.815 C 7.409,-1.05 7.053,-1.071 6.783,-0.895 6.51,-0.714 6.393,-0.382 6.534,-0.13 6.674,0.127 6.79,0.332 6.79,0.332 6.873,0.487 6.797,0.689 6.617,0.783 6.431,0.896 6.224,0.964 6.029,1.05 5.839,1.133 5.637,1.064 5.578,0.898 L 5.39,0.4 C 5.291,0.127 4.961,-0.003 4.649,0.087 4.335,0.177 4.124,0.462 4.182,0.747 4.243,1.032 4.29,1.263 4.29,1.263 4.33,1.433 4.196,1.603 3.994,1.646 3.783,1.686 3.564,1.696 3.348,1.725 3.146,1.746 2.975,1.62 2.964,1.447 L 2.937,0.913 C 2.92,0.621 2.641,0.4 2.316,0.394 1.99,0.39 1.707,0.596 1.678,0.884 1.652,1.177 1.629,1.411 1.629,1.411 1.613,1.584 1.436,1.711 1.23,1.688 1.017,1.66 0.808,1.609 0.595,1.573 0.395,1.533 0.267,1.36 0.31,1.194 L 0.438,0.679 C 0.508,0.394 0.307,0.102 0,0" /></g><g
         transform="translate(165.70658,111.8438)"
         id="g1052"><path
           inkscape:connector-curvature="0"
           id="path1054"
           style="fill:#ffffff;fill-opacity:1;fill-rule:nonzero;stroke:none"
           d="M 0,0 C -2.015,0.138 -3.761,-1.385 -3.902,-3.398 -4.041,-5.419 -2.521,-7.165 -0.503,-7.302 1.515,-7.443 3.263,-5.92 3.4,-3.903 3.538,-1.887 2.019,-0.141 0,0" /></g><g
         transform="translate(185.36428,115.6826)"
         id="g1056"><path
           inkscape:connector-curvature="0"
           id="path1058"
           style="fill:#4e341c;fill-opacity:1;fill-rule:nonzero;stroke:none"
           d="M 0,0 C -0.31,-0.104 -0.646,0.011 -0.754,0.281 -0.866,0.549 -0.956,0.769 -0.956,0.769 -1.021,0.932 -1.227,0.996 -1.414,0.917 -1.616,0.834 -1.804,0.722 -1.995,0.621 -2.175,0.523 -2.246,0.321 -2.154,0.174 l 0.273,-0.455 c 0.153,-0.252 0.045,-0.592 -0.219,-0.78 -0.265,-0.187 -0.62,-0.176 -0.804,0.047 -0.188,0.224 -0.338,0.409 -0.338,0.409 -0.11,0.132 -0.326,0.136 -0.483,0.002 -0.164,-0.14 -0.312,-0.302 -0.463,-0.454 -0.145,-0.144 -0.154,-0.357 -0.02,-0.472 l 0.398,-0.358 c 0.217,-0.194 0.217,-0.549 0.02,-0.804 -0.2,-0.26 -0.541,-0.354 -0.785,-0.195 -0.245,0.158 -0.442,0.288 -0.442,0.288 -0.144,0.098 -0.355,0.04 -0.463,-0.136 L -5.789,-3.301 C -5.89,-3.478 -5.821,-3.69 -5.666,-3.763 l 0.481,-0.219 c 0.268,-0.127 0.371,-0.462 0.258,-0.769 -0.113,-0.307 -0.414,-0.495 -0.694,-0.412 -0.281,0.08 -0.507,0.144 -0.507,0.144 -0.164,0.051 -0.359,-0.064 -0.402,-0.266 L -6.66,-5.92 c -0.047,-0.202 0.09,-0.387 0.26,-0.408 l 0.523,-0.068 c 0.287,-0.037 0.487,-0.329 0.467,-0.654 -0.02,-0.328 -0.245,-0.598 -0.538,-0.602 -0.292,-0.007 -0.528,-0.011 -0.528,-0.011 -0.17,0 -0.329,-0.17 -0.301,-0.371 l 0.059,-0.65 c 0.018,-0.206 0.202,-0.339 0.368,-0.31 l 0.523,0.09 c 0.285,0.05 0.541,-0.043 0.574,-0.202 0.022,-0.094 0.04,-0.192 0.065,-0.286 0.021,-0.096 0.048,-0.194 0.076,-0.284 0.047,-0.159 -0.138,-0.357 -0.415,-0.451 -0.276,-0.087 -0.502,-0.163 -0.502,-0.163 -0.158,-0.05 -0.26,-0.256 -0.18,-0.443 l 0.251,-0.603 c 0.074,-0.191 0.29,-0.267 0.438,-0.187 l 0.473,0.234 c 0.259,0.134 0.591,0.004 0.761,-0.277 0.166,-0.279 0.126,-0.628 -0.112,-0.798 -0.238,-0.17 -0.429,-0.307 -0.429,-0.307 -0.141,-0.098 -0.177,-0.324 -0.042,-0.479 l 0.415,-0.502 c 0.132,-0.159 0.357,-0.166 0.48,-0.047 l 0.381,0.368 c 0.209,0.202 0.561,0.177 0.808,-0.043 0.24,-0.217 0.308,-0.564 0.13,-0.798 -0.181,-0.23 -0.322,-0.418 -0.322,-0.418 -0.107,-0.138 -0.068,-0.357 0.105,-0.47 l 0.539,-0.357 c 0.179,-0.101 0.39,-0.058 0.475,0.098 l 0.256,0.462 c 0.141,0.255 0.487,0.336 0.783,0.195 0.294,-0.138 0.458,-0.447 0.357,-0.726 -0.1,-0.274 -0.185,-0.494 -0.185,-0.494 -0.063,-0.166 0.044,-0.35 0.239,-0.411 0.208,-0.065 0.412,-0.138 0.626,-0.187 0.197,-0.041 0.388,0.06 0.423,0.23 l 0.106,0.52 c 0.061,0.285 0.366,0.458 0.691,0.415 0.323,-0.04 0.574,-0.292 0.557,-0.585 -0.016,-0.292 -0.03,-0.531 -0.03,-0.531 -0.011,-0.173 0.148,-0.313 0.351,-0.321 0.217,0.008 0.435,-0.014 0.648,0.012 0.204,0.017 0.357,0.169 0.339,0.343 l -0.049,0.526 c -0.028,0.289 0.213,0.549 0.535,0.602 0.319,0.054 0.636,-0.112 0.703,-0.396 0.072,-0.282 0.13,-0.513 0.13,-0.513 0.04,-0.173 0.231,-0.263 0.429,-0.202 0.206,0.066 0.415,0.119 0.617,0.195 0.188,0.076 0.289,0.271 0.22,0.433 l -0.201,0.487 c -0.109,0.267 0.042,0.584 0.335,0.729 0.292,0.147 0.639,0.083 0.79,-0.166 0.151,-0.253 0.274,-0.458 0.274,-0.458 0.09,-0.152 0.3,-0.181 0.471,-0.066 0.178,0.12 0.362,0.239 0.532,0.372 0.161,0.126 0.197,0.343 0.083,0.476 l -0.336,0.404 c -0.187,0.224 -0.133,0.575 0.103,0.798 0.233,0.231 0.587,0.271 0.807,0.075 0.216,-0.194 0.393,-0.353 0.393,-0.353 0.13,-0.119 0.339,-0.086 0.471,0.076 0.132,0.166 0.282,0.328 0.395,0.513 0.116,0.169 0.088,0.382 -0.058,0.475 l -0.44,0.289 c -0.247,0.159 -0.296,0.512 -0.141,0.794 0.163,0.285 0.484,0.429 0.749,0.307 0.269,-0.123 0.484,-0.224 0.484,-0.224 0.156,-0.072 0.348,0.018 0.427,0.209 0.087,0.199 0.17,0.397 0.227,0.607 0.061,0.198 -0.025,0.392 -0.191,0.439 l -0.51,0.149 c -0.282,0.079 -0.435,0.4 -0.366,0.717 0.068,0.318 0.335,0.552 0.626,0.513 0.29,-0.04 0.524,-0.069 0.524,-0.069 0.17,-0.025 0.331,0.123 0.349,0.325 0.03,0.217 0.038,0.433 0.036,0.649 0.002,0.206 -0.138,0.365 -0.312,0.361 L 10.88,-7.335 c -0.292,-0.003 -0.532,0.257 -0.563,0.581 -0.03,0.321 0.157,0.624 0.446,0.675 0.285,0.047 0.517,0.087 0.517,0.087 0.172,0.028 0.282,0.213 0.241,0.411 -0.037,0.217 -0.087,0.426 -0.156,0.631 -0.059,0.195 -0.24,0.31 -0.404,0.253 l -0.505,-0.162 c -0.274,-0.094 -0.581,0.086 -0.704,0.385 -0.126,0.303 -0.036,0.643 0.226,0.776 0.26,0.13 0.473,0.238 0.473,0.238 0.156,0.076 0.202,0.285 0.106,0.466 -0.101,0.191 -0.207,0.379 -0.335,0.556 C 10.11,-2.27 9.9,-2.215 9.76,-2.316 L 9.33,-2.619 c -0.238,-0.17 -0.584,-0.09 -0.793,0.159 -0.206,0.249 -0.221,0.606 -0.011,0.808 0.209,0.202 0.382,0.368 0.382,0.368 0.127,0.119 0.109,0.332 -0.038,0.476 -0.148,0.159 -0.313,0.296 -0.483,0.433 -0.159,0.126 -0.372,0.119 -0.478,-0.018 L 7.588,-0.815 C 7.409,-1.05 7.054,-1.071 6.783,-0.895 6.511,-0.714 6.394,-0.382 6.534,-0.13 6.675,0.127 6.791,0.332 6.791,0.332 6.873,0.487 6.797,0.689 6.617,0.783 6.431,0.896 6.224,0.964 6.029,1.05 5.84,1.133 5.638,1.064 5.578,0.898 L 5.391,0.4 C 5.291,0.127 4.961,-0.003 4.649,0.087 4.335,0.177 4.124,0.462 4.182,0.747 4.243,1.032 4.29,1.263 4.29,1.263 4.33,1.433 4.196,1.603 3.994,1.646 3.783,1.686 3.565,1.696 3.348,1.725 3.146,1.746 2.975,1.62 2.964,1.447 L 2.937,0.913 C 2.921,0.621 2.641,0.4 2.316,0.394 1.99,0.39 1.707,0.596 1.678,0.884 1.652,1.177 1.629,1.411 1.629,1.411 1.613,1.584 1.436,1.711 1.23,1.688 1.018,1.66 0.808,1.609 0.595,1.573 0.395,1.533 0.267,1.36 0.311,1.194 L 0.438,0.679 C 0.509,0.394 0.307,0.102 0,0" /></g><g
         transform="translate(188.10448,111.8438)"
         id="g1060"><path
           inkscape:connector-curvature="0"
           id="path1062"
           style="fill:#ffffff;fill-opacity:1;fill-rule:nonzero;stroke:none"
           d="M 0,0 C -2.015,0.138 -3.761,-1.385 -3.902,-3.398 -4.041,-5.419 -2.52,-7.165 -0.503,-7.302 1.516,-7.443 3.264,-5.92 3.401,-3.903 3.538,-1.887 2.019,-0.141 0,0" /></g><g
         transform="translate(207.76268,115.6826)"
         id="g1064"><path
           inkscape:connector-curvature="0"
           id="path1066"
           style="fill:#4e341c;fill-opacity:1;fill-rule:nonzero;stroke:none"
           d="M 0,0 C -0.311,-0.104 -0.646,0.011 -0.754,0.281 -0.866,0.549 -0.956,0.769 -0.956,0.769 -1.021,0.932 -1.227,0.996 -1.415,0.917 -1.616,0.834 -1.804,0.722 -1.995,0.621 -2.176,0.523 -2.246,0.321 -2.154,0.174 l 0.272,-0.455 c 0.153,-0.252 0.046,-0.592 -0.218,-0.78 -0.265,-0.187 -0.621,-0.176 -0.804,0.047 -0.188,0.224 -0.338,0.409 -0.338,0.409 -0.11,0.132 -0.326,0.136 -0.483,0.002 -0.165,-0.14 -0.312,-0.302 -0.464,-0.454 -0.144,-0.144 -0.153,-0.357 -0.02,-0.472 l 0.399,-0.358 c 0.216,-0.194 0.216,-0.549 0.02,-0.804 -0.2,-0.26 -0.542,-0.354 -0.785,-0.195 -0.245,0.158 -0.442,0.288 -0.442,0.288 -0.144,0.098 -0.355,0.04 -0.463,-0.136 L -5.789,-3.301 C -5.89,-3.478 -5.821,-3.69 -5.667,-3.763 l 0.482,-0.219 c 0.267,-0.127 0.37,-0.462 0.258,-0.769 -0.114,-0.307 -0.415,-0.495 -0.694,-0.412 -0.282,0.08 -0.507,0.144 -0.507,0.144 -0.164,0.051 -0.359,-0.064 -0.402,-0.266 L -6.66,-5.92 c -0.047,-0.202 0.09,-0.387 0.26,-0.408 l 0.523,-0.068 c 0.286,-0.037 0.486,-0.329 0.467,-0.654 -0.02,-0.328 -0.246,-0.598 -0.538,-0.602 -0.292,-0.007 -0.529,-0.011 -0.529,-0.011 -0.169,0 -0.328,-0.17 -0.301,-0.371 l 0.06,-0.65 c 0.018,-0.206 0.202,-0.339 0.368,-0.31 l 0.523,0.09 c 0.285,0.05 0.541,-0.043 0.574,-0.202 0.022,-0.094 0.04,-0.192 0.065,-0.286 0.021,-0.096 0.048,-0.194 0.076,-0.284 0.047,-0.159 -0.138,-0.357 -0.415,-0.451 -0.277,-0.087 -0.502,-0.163 -0.502,-0.163 -0.158,-0.05 -0.26,-0.256 -0.18,-0.443 l 0.251,-0.603 c 0.073,-0.191 0.29,-0.267 0.438,-0.187 l 0.472,0.234 c 0.26,0.134 0.592,0.004 0.762,-0.277 0.166,-0.279 0.126,-0.628 -0.112,-0.798 -0.238,-0.17 -0.43,-0.307 -0.43,-0.307 -0.14,-0.098 -0.176,-0.324 -0.041,-0.479 l 0.415,-0.502 c 0.132,-0.159 0.357,-0.166 0.48,-0.047 l 0.38,0.368 c 0.21,0.202 0.561,0.177 0.809,-0.043 0.24,-0.217 0.308,-0.564 0.13,-0.798 -0.181,-0.23 -0.322,-0.418 -0.322,-0.418 -0.108,-0.138 -0.068,-0.357 0.105,-0.47 l 0.539,-0.357 c 0.179,-0.101 0.39,-0.058 0.475,0.098 l 0.256,0.462 c 0.141,0.255 0.487,0.336 0.783,0.195 0.294,-0.138 0.458,-0.447 0.357,-0.726 -0.101,-0.274 -0.185,-0.494 -0.185,-0.494 -0.064,-0.166 0.044,-0.35 0.239,-0.411 0.208,-0.065 0.411,-0.138 0.626,-0.187 0.197,-0.041 0.388,0.06 0.423,0.23 l 0.106,0.52 c 0.061,0.285 0.366,0.458 0.69,0.415 0.324,-0.04 0.574,-0.292 0.558,-0.585 -0.016,-0.292 -0.031,-0.531 -0.031,-0.531 -0.01,-0.173 0.148,-0.313 0.352,-0.321 0.217,0.008 0.435,-0.014 0.648,0.012 0.204,0.017 0.357,0.169 0.339,0.343 l -0.049,0.526 c -0.028,0.289 0.213,0.549 0.534,0.602 0.319,0.054 0.637,-0.112 0.704,-0.396 0.072,-0.282 0.13,-0.513 0.13,-0.513 0.04,-0.173 0.231,-0.263 0.429,-0.202 0.206,0.066 0.415,0.119 0.617,0.195 0.187,0.076 0.289,0.271 0.22,0.433 l -0.202,0.487 c -0.108,0.267 0.043,0.584 0.335,0.729 0.293,0.147 0.639,0.083 0.791,-0.166 0.151,-0.253 0.274,-0.458 0.274,-0.458 0.09,-0.152 0.299,-0.181 0.471,-0.066 0.178,0.12 0.362,0.239 0.532,0.372 0.161,0.126 0.197,0.343 0.083,0.476 l -0.336,0.404 c -0.187,0.224 -0.133,0.575 0.103,0.798 0.233,0.231 0.586,0.271 0.807,0.075 0.216,-0.194 0.393,-0.353 0.393,-0.353 0.13,-0.119 0.339,-0.086 0.471,0.076 0.131,0.166 0.281,0.328 0.395,0.513 0.115,0.169 0.088,0.382 -0.058,0.475 l -0.44,0.289 c -0.247,0.159 -0.296,0.512 -0.141,0.794 0.162,0.285 0.484,0.429 0.749,0.307 0.269,-0.123 0.483,-0.224 0.483,-0.224 0.157,-0.072 0.348,0.018 0.428,0.209 0.086,0.199 0.169,0.397 0.227,0.607 0.061,0.198 -0.025,0.392 -0.191,0.439 l -0.511,0.149 c -0.281,0.079 -0.434,0.4 -0.366,0.717 0.069,0.318 0.336,0.552 0.626,0.513 0.291,-0.04 0.525,-0.069 0.525,-0.069 0.17,-0.025 0.331,0.123 0.349,0.325 0.03,0.217 0.037,0.433 0.035,0.649 0.002,0.206 -0.137,0.365 -0.312,0.361 L 10.88,-7.335 c -0.293,-0.003 -0.532,0.257 -0.563,0.581 -0.031,0.321 0.157,0.624 0.446,0.675 0.284,0.047 0.517,0.087 0.517,0.087 0.172,0.028 0.282,0.213 0.24,0.411 -0.036,0.217 -0.086,0.426 -0.155,0.631 -0.059,0.195 -0.24,0.31 -0.404,0.253 l -0.505,-0.162 c -0.274,-0.094 -0.581,0.086 -0.704,0.385 -0.126,0.303 -0.036,0.643 0.226,0.776 0.259,0.13 0.472,0.238 0.472,0.238 0.157,0.076 0.202,0.285 0.107,0.466 -0.101,0.191 -0.207,0.379 -0.336,0.556 C 10.109,-2.27 9.9,-2.215 9.76,-2.316 L 9.33,-2.619 c -0.238,-0.17 -0.584,-0.09 -0.794,0.159 -0.205,0.249 -0.22,0.606 -0.011,0.808 0.21,0.202 0.383,0.368 0.383,0.368 0.126,0.119 0.108,0.332 -0.038,0.476 -0.148,0.159 -0.314,0.296 -0.483,0.433 -0.159,0.126 -0.372,0.119 -0.478,-0.018 L 7.587,-0.815 C 7.409,-1.05 7.054,-1.071 6.783,-0.895 6.511,-0.714 6.393,-0.382 6.534,-0.13 6.675,0.127 6.79,0.332 6.79,0.332 6.873,0.487 6.797,0.689 6.617,0.783 6.431,0.896 6.224,0.964 6.029,1.05 5.839,1.133 5.637,1.064 5.578,0.898 L 5.39,0.4 C 5.291,0.127 4.961,-0.003 4.649,0.087 4.335,0.177 4.124,0.462 4.182,0.747 4.243,1.032 4.29,1.263 4.29,1.263 4.33,1.433 4.196,1.603 3.994,1.646 3.783,1.686 3.564,1.696 3.348,1.725 3.146,1.746 2.975,1.62 2.964,1.447 L 2.937,0.913 C 2.92,0.621 2.641,0.4 2.316,0.394 1.99,0.39 1.707,0.596 1.678,0.884 1.652,1.177 1.629,1.411 1.629,1.411 1.613,1.584 1.436,1.711 1.23,1.688 1.018,1.66 0.808,1.609 0.595,1.573 0.395,1.533 0.267,1.36 0.31,1.194 L 0.438,0.679 C 0.509,0.394 0.307,0.102 0,0" /></g><g
         transform="translate(210.50298,111.8438)"
         id="g1068"><path
           inkscape:connector-curvature="0"
           id="path1070"
           style="fill:#ffffff;fill-opacity:1;fill-rule:nonzero;stroke:none"
           d="M 0,0 C -2.015,0.138 -3.761,-1.385 -3.902,-3.398 -4.041,-5.419 -2.52,-7.165 -0.503,-7.302 1.515,-7.443 3.263,-5.92 3.4,-3.903 3.538,-1.887 2.019,-0.141 0,0" /></g></g><rect
       style="fill:#ffffff;fill-opacity:1;fill-rule:evenodd;stroke:none"
       id="rect6959"
       width="303.53101"
       height="114.84957"
       x="-881.88068"
       y="181.42915"
       transform="matrix(0.8,0,0,-0.8,0,400)" /></g></svg>