<?xml version="1.0" encoding="UTF-8" standalone="no"?>
<!-- Created with Inkscape (http://www.inkscape.org/) -->

<svg
   xmlns:dc="http://purl.org/dc/elements/1.1/"
   xmlns:cc="http://creativecommons.org/ns#"
   xmlns:rdf="http://www.w3.org/1999/02/22-rdf-syntax-ns#"
   xmlns:svg="http://www.w3.org/2000/svg"
   xmlns="http://www.w3.org/2000/svg"
   xmlns:sodipodi="http://sodipodi.sourceforge.net/DTD/sodipodi-0.dtd"
   xmlns:inkscape="http://www.inkscape.org/namespaces/inkscape"
   id="svg2"
   version="1.1"
   inkscape:version="0.48.3.1 r9886"
   width="500"
   height="500"
   xml:space="preserve"
   sodipodi:docname="robot1.svg"
   inkscape:export-filename="/home/karponter/Desktop/Karel/11/final/robot6.png"
   inkscape:export-xdpi="90"
   inkscape:export-ydpi="90"><metadata
     id="metadata8"><rdf:RDF><cc:Work
         rdf:about=""><dc:format>image/svg+xml</dc:format><dc:type
           rdf:resource="http://purl.org/dc/dcmitype/StillImage" /><dc:title></dc:title></cc:Work></rdf:RDF></metadata><defs
     id="defs6"><clipPath
       clipPathUnits="userSpaceOnUse"
       id="clipPath18"><path
         d="M 0,800 800,800 800,0 0,0 0,800 z"
         id="path20"
         inkscape:connector-curvature="0" /></clipPath><clipPath
       clipPathUnits="userSpaceOnUse"
       id="clipPath7767"><path
         transform="matrix(0.62432129,0,0,-0.62432129,-72.82345,465.78783)"
         d="m 748.30057,425.72284 a 311.3085,311.3085 0 1 1 -622.61701,0 311.3085,311.3085 0 1 1 622.61701,0 z"
         sodipodi:ry="311.3085"
         sodipodi:rx="311.3085"
         sodipodi:cy="425.72284"
         sodipodi:cx="436.99207"
         id="path7769"
         style="opacity:0.95999995;fill:#ffffff;fill-opacity:1;fill-rule:evenodd;stroke:none"
         sodipodi:type="arc" /></clipPath><clipPath
       clipPathUnits="userSpaceOnUse"
       id="clipPath8365"><path
         transform="matrix(0.62432129,0,0,-0.62432129,-72.82345,465.78783)"
         d="m 748.30057,425.72284 a 311.3085,311.3085 0 1 1 -622.61701,0 311.3085,311.3085 0 1 1 622.61701,0 z"
         sodipodi:ry="311.3085"
         sodipodi:rx="311.3085"
         sodipodi:cy="425.72284"
         sodipodi:cx="436.99207"
         id="path8367"
         style="opacity:0.95999995;fill:#ffffff;fill-opacity:1;fill-rule:evenodd;stroke:none"
         sodipodi:type="arc" /></clipPath></defs><sodipodi:namedview
     pagecolor="#ffffff"
     bordercolor="#666666"
     borderopacity="1"
     objecttolerance="10"
     gridtolerance="10"
     guidetolerance="10"
     inkscape:pageopacity="0"
     inkscape:pageshadow="2"
     inkscape:window-width="1366"
     inkscape:window-height="735"
     id="namedview4"
     showgrid="false"
     inkscape:object-paths="true"
     inkscape:snap-intersection-paths="true"
     inkscape:snap-smooth-nodes="true"
     inkscape:object-nodes="true"
     inkscape:snap-midpoints="true"
     inkscape:snap-object-midpoints="true"
     inkscape:snap-center="true"
     inkscape:zoom="0.36569574"
     inkscape:cx="-94.639121"
     inkscape:cy="506.30352"
     inkscape:window-x="0"
     inkscape:window-y="0"
     inkscape:window-maximized="1"
     inkscape:current-layer="g10" /><g
     id="g10"
     inkscape:groupmode="layer"
     inkscape:label="11"
     transform="matrix(1.25,0,0,-1.25,0,500)"><path
       sodipodi:type="arc"
       style="fill:#ffffff;fill-opacity:1;fill-rule:evenodd;stroke:none;opacity:0.95999999999999996"
       id="path6141"
       sodipodi:cx="436.99207"
       sodipodi:cy="425.72284"
       sodipodi:rx="311.3085"
       sodipodi:ry="311.3085"
       d="m 748.30057,425.72284 a 311.3085,311.3085 0 1 1 -622.61701,0 311.3085,311.3085 0 1 1 622.61701,0 z"
       transform="matrix(0.62432129,0,0,-0.62432129,-72.82345,465.78783)" /><g
       id="g8230"
       clip-path="url(#clipPath8365)"><g
         transform="matrix(-0.39888279,0.55656819,-0.55656819,-0.39888279,599.34022,177.38585)"
         id="g5957"><g
           id="g278"
           transform="translate(457.72948,185.7227)"><path
             d="m 0,0 c 0,-6.121 -4.963,-11.084 -11.083,-11.084 l -107.605,0 c -6.12,0 -11.083,4.963 -11.083,11.084 l 0,63.038 c 0,6.121 4.963,11.084 11.083,11.084 l 107.605,0 C -4.963,74.122 0,69.159 0,63.038 L 0,0 z"
             style="fill:#5ab196;fill-opacity:1;fill-rule:nonzero;stroke:none"
             id="path280"
             inkscape:connector-curvature="0" /></g><path
           d="m 395.03438,349.3225 -4.965,0 0,27.017 4.965,0 0,-27.017 z"
           style="fill:#e78152;fill-opacity:1;fill-rule:nonzero;stroke:none"
           id="path300"
           inkscape:connector-curvature="0" /><g
           id="g302"
           transform="translate(387.35648,380.6104)"><path
             d="m 0,0 c 0,2.87 2.325,5.195 5.195,5.195 2.87,0 5.197,-2.325 5.197,-5.195 0,-2.87 -2.327,-5.195 -5.197,-5.195 C 2.325,-5.195 0,-2.87 0,0"
             style="fill:#edc54d;fill-opacity:1;fill-rule:nonzero;stroke:none"
             id="path304"
             inkscape:connector-curvature="0" /></g><g
           id="g306"
           transform="translate(402.68358,344.127)"><path
             d="m 0,0 c 0,-4.272 -4.626,-7.735 -10.334,-7.735 -5.708,0 -10.333,3.463 -10.333,7.735 0,4.271 4.625,7.735 10.333,7.735 C -4.626,7.735 0,4.271 0,0"
             style="fill:#317d6b;fill-opacity:1;fill-rule:nonzero;stroke:none"
             id="path308"
             inkscape:connector-curvature="0" /></g><g
           id="g314"
           transform="translate(319.94138,220.7383)"><path
             d="m 0,0 c 0,-2.376 -1.927,-4.303 -4.302,-4.303 -2.376,0 -4.303,1.927 -4.303,4.303 l 0,25.326 c 0,2.374 1.927,4.301 4.303,4.301 C -1.927,29.627 0,27.7 0,25.326 L 0,0 z"
             style="fill:#ed8551;fill-opacity:1;fill-rule:nonzero;stroke:none"
             id="path316"
             inkscape:connector-curvature="0" /></g><g
           id="g318"
           transform="translate(319.94138,175.2812)"><path
             d="m 0,0 c 0,-2.376 -1.927,-4.303 -4.302,-4.303 -2.376,0 -4.303,1.927 -4.303,4.303 l 0,25.326 c 0,2.374 1.927,4.301 4.303,4.301 C -1.927,29.627 0,27.7 0,25.326 L 0,0 z"
             style="fill:#ed8551;fill-opacity:1;fill-rule:nonzero;stroke:none"
             id="path320"
             inkscape:connector-curvature="0" /></g><g
           id="g322"
           transform="translate(309.06348,211.2402)"><path
             d="m 0,0 c 0,3.319 2.69,6.007 6.007,6.007 3.318,0 6.008,-2.688 6.008,-6.007 0,-3.316 -2.69,-6.006 -6.008,-6.006 C 2.69,-6.006 0,-3.316 0,0"
             style="fill:#4c2c1d;fill-opacity:1;fill-rule:nonzero;stroke:none"
             id="path324"
             inkscape:connector-curvature="0" /></g><g
           id="g326"
           transform="translate(306.30518,169.5176)"><path
             d="m 0,0 c 0,0 -0.164,13.638 8.116,13.638 8.28,0 10.391,-6.494 10.391,-15.099 0,0 -0.812,-3.085 -2.923,-3.085 -2.11,0 0.244,5.764 -1.298,7.306 C 12.744,4.303 11.19,0.981 11.19,-3.076 11.19,-7.133 6.5,-6.424 3.252,-6.424 0.005,-6.424 0,-4.707 0,0"
             style="fill:#65b2a6;fill-opacity:1;fill-rule:nonzero;stroke:none"
             id="path328"
             inkscape:connector-curvature="0" /></g><g
           id="g330"
           transform="translate(327.61038,236.3115)"><path
             d="m 0,0 c 0,-2.282 -1.849,-4.131 -4.133,-4.131 -2.28,0 -4.131,1.849 -4.131,4.131 l 0,11.28 c 0,2.283 1.851,4.133 4.131,4.133 C -1.849,15.413 0,13.563 0,11.28 L 0,0 z"
             style="fill:#e55347;fill-opacity:1;fill-rule:nonzero;stroke:none"
             id="path332"
             inkscape:connector-curvature="0" /></g><path
           d="m 445.36138,266.0795 -108.065,0 0,79.202 108.065,0 0,-79.202 z"
           style="fill:#5ab196;fill-opacity:1;fill-rule:nonzero;stroke:none"
           id="path398"
           inkscape:connector-curvature="0" /><g
           id="g572"
           transform="translate(369.06938,216.1768)"><path
             d="m 0,0 c -0.126,0.163 -2.159,2.797 -0.59,6 l 0.243,0.501 c 1.891,3.931 6.322,13.134 22.19,13.279 l 0.364,0 C 38.075,19.635 42.505,10.432 44.397,6.501 L 44.64,6 C 46.208,2.797 44.177,0.163 44.089,0.052 L 36.336,-11.087 22.027,-11.054 7.714,-11.087 0,0 z"
             style="fill:#5b3420;fill-opacity:1;fill-rule:nonzero;stroke:none"
             id="path574"
             inkscape:connector-curvature="0" /></g><g
           id="g576"
           transform="translate(391.28568,236.9717)"><path
             d="M 0,0 C -0.067,0 -0.125,-0.007 -0.191,-0.007 -0.258,-0.007 -0.316,0 -0.383,0 l 0,-0.015 c -17.192,-0.158 -21.467,-10.552 -23.322,-14.34 -1.883,-3.845 0.668,-7.011 0.668,-7.011 l 8.013,-11.517 14.833,0.034 14.832,-0.034 8.013,11.517 c 0,0 2.551,3.166 0.668,7.011 C 21.467,-10.567 17.192,-0.173 0,-0.015 L 0,0 z m -0.241,-2.013 0.222,-0.002 c 15.247,-0.14 19.335,-8.631 21.299,-12.713 l 0.245,-0.507 c 1.279,-2.612 -0.37,-4.801 -0.428,-4.876 l -0.045,-0.055 -0.039,-0.058 -7.415,-10.657 -13.794,0.032 -13.785,-0.032 -7.415,10.657 -0.04,0.058 -0.043,0.055 c -0.018,0.021 -1.738,2.205 -0.429,4.876 l 0.245,0.507 c 1.965,4.082 6.053,12.573 21.299,12.713 l 0.123,0.002"
             style="fill:#f4c35d;fill-opacity:1;fill-rule:nonzero;stroke:none"
             id="path578"
             inkscape:connector-curvature="0" /></g><g
           id="g596"
           transform="translate(386.91798,206.9971)"><path
             d="M 0,0 -3.749,14.363 7.721,-0.108"
             style="fill:#f4c35d;fill-opacity:1;fill-rule:nonzero;stroke:none"
             id="path598"
             inkscape:connector-curvature="0" /></g><path
           d="m 372.39438,93.127498 -24.938,0 0,76.893002 24.938,0 0,-76.893002 z"
           style="fill:#347f70;fill-opacity:1;fill-rule:nonzero;stroke:none"
           id="path716"
           inkscape:connector-curvature="0" /><g
           id="g718"
           transform="translate(432.43068,311.3379)"><path
             d="m 0,0 c 0,-6.121 -4.963,-11.084 -11.084,-11.084 l -60.729,0 c -6.121,0 -11.083,4.963 -11.083,11.084 l 0,3.925 c 0,6.121 4.962,11.084 11.083,11.084 l 60.729,0 C -4.963,15.009 0,10.046 0,3.925 L 0,0 z"
             style="fill:#317d6d;fill-opacity:1;fill-rule:nonzero;stroke:none"
             id="path720"
             inkscape:connector-curvature="0" /></g><g
           id="g722"
           transform="translate(378.08938,135.8477)"><path
             d="m 0,0 c 0,-4.763 -3.859,-8.621 -8.621,-8.621 l -19.703,0 c -4.763,0 -8.622,3.858 -8.622,8.621 0,4.761 3.859,8.619 8.622,8.619 l 19.703,0 C -3.859,8.619 0,4.761 0,0"
             style="fill:#f4c154;fill-opacity:1;fill-rule:nonzero;stroke:none"
             id="path724"
             inkscape:connector-curvature="0" /></g><g
           id="g858"
           transform="translate(360.04248,101.8301)"><path
             d="m 0,0 c 10.952,0 19.828,-7.239 19.828,-18.189 l -39.654,0 C -19.826,-7.239 -10.95,0 0,0"
             style="fill:#e34f41;fill-opacity:1;fill-rule:nonzero;stroke:none"
             id="path860"
             inkscape:connector-curvature="0" /></g><path
           d="m 438.69938,93.127498 -24.937,0 0,76.893002 24.937,0 0,-76.893002 z"
           style="fill:#347f70;fill-opacity:1;fill-rule:nonzero;stroke:none"
           id="path862"
           inkscape:connector-curvature="0" /><g
           id="g864"
           transform="translate(444.39458,135.8477)"><path
             d="m 0,0 c 0,-4.763 -3.858,-8.621 -8.621,-8.621 l -19.703,0 c -4.762,0 -8.621,3.858 -8.621,8.621 0,4.761 3.859,8.619 8.621,8.619 l 19.703,0 C -3.858,8.619 0,4.761 0,0"
             style="fill:#f4c154;fill-opacity:1;fill-rule:nonzero;stroke:none"
             id="path866"
             inkscape:connector-curvature="0" /></g><g
           id="g868"
           transform="translate(426.34768,101.8301)"><path
             d="m 0,0 c 10.952,0 19.828,-7.239 19.828,-18.189 l -39.654,0 C -19.826,-7.239 -10.95,0 0,0"
             style="fill:#e34f41;fill-opacity:1;fill-rule:nonzero;stroke:none"
             id="path870"
             inkscape:connector-curvature="0" /></g><g
           id="g872"
           transform="translate(355.32328,312.7969)"><path
             d="m 0,0 c 0,5.205 4.221,9.424 9.426,9.424 5.204,0 9.426,-4.219 9.426,-9.424 0,-5.206 -4.222,-9.424 -9.426,-9.424 C 4.221,-9.424 0,-5.206 0,0"
             style="fill:#f4c859;fill-opacity:1;fill-rule:nonzero;stroke:none"
             id="path874"
             inkscape:connector-curvature="0" /></g><g
           id="g876"
           transform="translate(357.89358,312.6885)"><path
             d="m 0,0 c 0,3.935 3.188,7.122 7.124,7.122 3.933,0 7.122,-3.187 7.122,-7.122 0,-3.933 -3.189,-7.122 -7.122,-7.122 C 3.188,-7.122 0,-3.933 0,0"
             style="fill:#d34d45;fill-opacity:1;fill-rule:nonzero;stroke:none"
             id="path878"
             inkscape:connector-curvature="0" /></g><g
           id="g880"
           transform="translate(362.33888,312.9033)"><path
             d="M 0,0 C 0,1.539 1.247,2.783 2.783,2.783 4.322,2.783 5.569,1.539 5.569,0 5.569,-1.539 4.322,-2.783 2.783,-2.783 1.247,-2.783 0,-1.539 0,0"
             style="fill:#45271f;fill-opacity:1;fill-rule:nonzero;stroke:none"
             id="path882"
             inkscape:connector-curvature="0" /></g><g
           id="g884"
           transform="translate(365.82028,313.4395)"><path
             d="M 0,0 C 0,1.035 0.839,1.874 1.875,1.874 2.908,1.874 3.747,1.035 3.747,0 3.747,-1.036 2.908,-1.873 1.875,-1.873 0.839,-1.873 0,-1.036 0,0"
             style="fill:#fffdfc;fill-opacity:1;fill-rule:nonzero;stroke:none"
             id="path886"
             inkscape:connector-curvature="0" /></g><g
           id="g888"
           transform="translate(398.08498,312.7988)"><path
             d="m 0,0 c 0,9.794 7.944,17.735 17.738,17.735 9.794,0 17.739,-7.941 17.739,-17.735 0,-9.798 -7.945,-17.738 -17.739,-17.738 C 7.944,-17.738 0,-9.798 0,0"
             style="fill:#f4c859;fill-opacity:1;fill-rule:nonzero;stroke:none"
             id="path890"
             inkscape:connector-curvature="0" /></g><g
           id="g892"
           transform="translate(402.92288,312.5947)"><path
             d="m 0,0 c 0,7.403 5.999,13.403 13.405,13.403 7.403,0 13.405,-6 13.405,-13.403 0,-7.403 -6.002,-13.403 -13.405,-13.403 C 5.999,-13.403 0,-7.403 0,0"
             style="fill:#d34d45;fill-opacity:1;fill-rule:nonzero;stroke:none"
             id="path894"
             inkscape:connector-curvature="0" /></g><g
           id="g896"
           transform="translate(411.28808,312.9971)"><path
             d="m 0,0 c 0,2.896 2.345,5.241 5.239,5.241 2.895,0 5.24,-2.345 5.24,-5.241 0,-2.896 -2.345,-5.24 -5.24,-5.24 C 2.345,-5.24 0,-2.896 0,0"
             style="fill:#45271f;fill-opacity:1;fill-rule:nonzero;stroke:none"
             id="path898"
             inkscape:connector-curvature="0" /></g><g
           id="g900"
           transform="translate(417.83988,314.0059)"><path
             d="M 0,0 C 0,1.948 1.579,3.528 3.527,3.528 5.474,3.528 7.05,1.948 7.05,0 7.05,-1.948 5.474,-3.525 3.527,-3.525 1.579,-3.525 0,-1.948 0,0"
             style="fill:#fffdfc;fill-opacity:1;fill-rule:nonzero;stroke:none"
             id="path902"
             inkscape:connector-curvature="0" /></g><path
           d="m 368.38938,276.9775 -7.858,0 0,7.857 7.858,0 0,-7.857 z"
           style="fill:#f4c859;fill-opacity:1;fill-rule:nonzero;stroke:none"
           id="path1072"
           inkscape:connector-curvature="0" /><path
           d="m 381.32038,276.9775 -7.858,0 0,7.857 7.858,0 0,-7.857 z"
           style="fill:#f4c859;fill-opacity:1;fill-rule:nonzero;stroke:none"
           id="path1074"
           inkscape:connector-curvature="0" /><path
           d="m 394.25138,276.9775 -7.858,0 0,7.857 7.858,0 0,-7.857 z"
           style="fill:#f4c859;fill-opacity:1;fill-rule:nonzero;stroke:none"
           id="path1076"
           inkscape:connector-curvature="0" /><path
           d="m 407.18138,276.9775 -7.857,0 0,7.857 7.857,0 0,-7.857 z"
           style="fill:#f4c859;fill-opacity:1;fill-rule:nonzero;stroke:none"
           id="path1078"
           inkscape:connector-curvature="0" /><path
           d="m 420.11338,276.9775 -7.858,0 0,7.857 7.858,0 0,-7.857 z"
           style="fill:#f4c859;fill-opacity:1;fill-rule:nonzero;stroke:none"
           id="path1080"
           inkscape:connector-curvature="0" /><g
           id="g1082"
           transform="translate(464.00388,264.8037)"><path
             d="M 0,0 C 0,2.374 1.927,4.301 4.303,4.301 6.679,4.301 8.605,2.374 8.605,0 l 0,-25.326 c 0,-2.376 -1.926,-4.303 -4.302,-4.303 -2.376,0 -4.303,1.927 -4.303,4.303 L 0,0 z"
             style="fill:#ed8551;fill-opacity:1;fill-rule:nonzero;stroke:none"
             id="path1084"
             inkscape:connector-curvature="0" /></g><g
           id="g1086"
           transform="translate(464.00388,310.2607)"><path
             d="M 0,0 C 0,2.374 1.927,4.301 4.303,4.301 6.679,4.301 8.605,2.374 8.605,0 l 0,-25.326 c 0,-2.376 -1.926,-4.303 -4.302,-4.303 -2.376,0 -4.303,1.927 -4.303,4.303 L 0,0 z"
             style="fill:#ed8551;fill-opacity:1;fill-rule:nonzero;stroke:none"
             id="path1088"
             inkscape:connector-curvature="0" /></g><g
           id="g1090"
           transform="translate(474.88188,274.2998)"><path
             d="m 0,0 c 0,-3.317 -2.689,-6.007 -6.007,-6.007 -3.317,0 -6.008,2.69 -6.008,6.007 0,3.317 2.691,6.008 6.008,6.008 C -2.689,6.008 0,3.317 0,0"
             style="fill:#4c2c1d;fill-opacity:1;fill-rule:nonzero;stroke:none"
             id="path1092"
             inkscape:connector-curvature="0" /></g><g
           id="g1094"
           transform="translate(477.64058,316.0225)"><path
             d="m 0,0 c 0,0 0.164,-13.638 -8.116,-13.638 -8.28,0 -10.392,6.494 -10.392,15.099 0,0 0.813,3.085 2.923,3.085 2.11,0 -0.243,-5.762 1.299,-7.306 1.543,-1.541 3.096,1.779 3.096,5.837 0,4.058 4.69,3.349 7.937,3.349 C -0.006,6.426 0,4.708 0,0"
             style="fill:#65b2a6;fill-opacity:1;fill-rule:nonzero;stroke:none"
             id="path1096"
             inkscape:connector-curvature="0" /></g><g
           id="g1098"
           transform="translate(456.33498,249.2285)"><path
             d="M 0,0 C 0,2.283 1.85,4.133 4.134,4.133 6.413,4.133 8.265,2.283 8.265,0 l 0,-11.279 c 0,-2.284 -1.852,-4.133 -4.131,-4.133 C 1.85,-15.412 0,-13.563 0,-11.279 L 0,0 z"
             style="fill:#e55347;fill-opacity:1;fill-rule:nonzero;stroke:none"
             id="path1100"
             inkscape:connector-curvature="0" /></g></g><g
         transform="matrix(1.3821631,0,0,1.3821631,-359.12539,-740.62425)"
         id="g5712"><g
           id="g22"
           transform="translate(466.69728,654.9268)"><path
             d="m 0,0 c 0,0 -1.906,-2.227 -4.259,-4.974 -2.352,-2.749 -1.198,-4.296 0.567,-5.805 1.763,-1.51 3.468,-2.411 5.821,0.336 L 6.387,-5.468 0,0 z"
             style="fill:#4e341c;fill-opacity:1;fill-rule:nonzero;stroke:none"
             id="path24"
             inkscape:connector-curvature="0" /></g><g
           id="g26"
           transform="translate(481.40138,659.1753)"><path
             d="M 0,0 -6.388,5.468 -14.906,-4.483 -8.519,-9.951 0,0 z"
             style="fill:#ffffff;fill-opacity:1;fill-rule:nonzero;stroke:none"
             id="path28"
             inkscape:connector-curvature="0" /></g><g
           id="g30"
           transform="translate(489.91988,669.126)"><path
             d="M 0,0 -6.388,5.468 -14.906,-4.483 -8.519,-9.951 0,0 z"
             style="fill:#4e341c;fill-opacity:1;fill-rule:nonzero;stroke:none"
             id="path32"
             inkscape:connector-curvature="0" /></g><g
           id="g34"
           transform="translate(483.94138,664.4033)"><path
             d="m 0,0 c 3.681,-3.151 9.215,-2.721 12.365,0.958 l 3.72,4.345 c 0.896,1.048 1.048,2.396 0.333,3.008 -0.716,0.612 -1.998,0.283 -2.87,-0.735 L 11.968,5.731 C 11.358,5.019 10.29,4.936 9.576,5.547 L 9.336,5.752 C 8.627,6.359 8.544,7.429 9.153,8.142 l 2.412,2.817 c 0.901,1.051 0.777,2.634 -0.275,3.534 L 5.934,19.079 C 4.882,19.978 3.3,19.855 2.399,18.805 L -2.202,13.428 C -5.353,9.749 -4.923,4.214 -1.242,1.062 L 0,0 z"
             style="fill:#58b1b2;fill-opacity:1;fill-rule:nonzero;stroke:none"
             id="path36"
             inkscape:connector-curvature="0" /></g><g
           id="g38"
           transform="translate(451.07518,641.0317)"><path
             d="m 0,0 c 0,-4.074 3.303,-7.376 7.376,-7.376 4.073,0 7.377,3.302 7.377,7.376 0,4.074 -3.304,7.376 -7.377,7.376 C 3.303,7.376 0,4.074 0,0"
             style="fill:#32786b;fill-opacity:1;fill-rule:nonzero;stroke:none"
             id="path40"
             inkscape:connector-curvature="0" /></g><g
           id="g42"
           transform="translate(320.78028,654.9268)"><path
             d="m 0,0 c 0,0 1.907,-2.227 4.259,-4.974 2.353,-2.749 1.198,-4.296 -0.566,-5.805 -1.764,-1.51 -3.469,-2.411 -5.821,0.336 L -6.386,-5.468 0,0 z"
             style="fill:#4e341c;fill-opacity:1;fill-rule:nonzero;stroke:none"
             id="path44"
             inkscape:connector-curvature="0" /></g><g
           id="g46"
           transform="translate(306.07618,659.1753)"><path
             d="M 0,0 6.388,5.468 14.906,-4.483 8.519,-9.951 0,0 z"
             style="fill:#ffffff;fill-opacity:1;fill-rule:nonzero;stroke:none"
             id="path48"
             inkscape:connector-curvature="0" /></g><g
           id="g50"
           transform="translate(297.55758,669.126)"><path
             d="M 0,0 6.388,5.468 14.906,-4.483 8.519,-9.951 0,0 z"
             style="fill:#4e341c;fill-opacity:1;fill-rule:nonzero;stroke:none"
             id="path52"
             inkscape:connector-curvature="0" /></g><g
           id="g54"
           transform="translate(303.53618,664.4033)"><path
             d="m 0,0 c -3.68,-3.151 -9.215,-2.721 -12.364,0.958 l -3.72,4.345 c -0.897,1.048 -1.048,2.396 -0.334,3.008 0.716,0.612 1.999,0.283 2.87,-0.735 l 1.58,-1.845 c 0.61,-0.712 1.678,-0.795 2.392,-0.184 l 0.241,0.205 c 0.709,0.607 0.791,1.677 0.182,2.39 l -2.412,2.817 c -0.9,1.051 -0.776,2.634 0.276,3.534 l 5.356,4.586 c 1.051,0.899 2.634,0.776 3.534,-0.274 L 2.203,13.428 C 5.353,9.749 4.923,4.214 1.243,1.062 L 0,0 z"
             style="fill:#58b1b2;fill-opacity:1;fill-rule:nonzero;stroke:none"
             id="path56"
             inkscape:connector-curvature="0" /></g><g
           id="g58"
           transform="translate(336.40288,641.0317)"><path
             d="m 0,0 c 0,-4.074 -3.303,-7.376 -7.376,-7.376 -4.074,0 -7.377,3.302 -7.377,7.376 0,4.074 3.303,7.376 7.377,7.376 C -3.303,7.376 0,4.074 0,0"
             style="fill:#32786b;fill-opacity:1;fill-rule:nonzero;stroke:none"
             id="path60"
             inkscape:connector-curvature="0" /></g><g
           id="g150"
           transform="matrix(0.91336039,0.40715206,-0.40715206,0.91336039,374.76804,726.20405)"><path
             d="m 0,0 c -5.221,0 -9.468,4.247 -9.468,9.467 0,5.221 4.247,9.468 9.468,9.468 5.221,0 9.468,-4.247 9.468,-9.468 C 9.468,4.247 5.221,0 0,0 m -37.176,9.467 c 0,5.221 4.246,9.468 9.467,9.468 5.221,0 9.467,-4.247 9.467,-9.468 0,-5.22 -4.246,-9.467 -9.467,-9.467 -5.221,0 -9.467,4.247 -9.467,9.467 M 0,26.324 c -5.738,0 -10.81,-2.887 -13.854,-7.28 -3.045,4.393 -8.117,7.28 -13.855,7.28 -9.294,0 -16.856,-7.562 -16.856,-16.857 0,-9.295 7.562,-16.856 16.856,-16.856 0.397,0 0.785,0.033 1.176,0.059 l 9.215,0 0,-17.378 7.389,0 0,17.378 8.753,0 c 0.392,-0.026 0.78,-0.059 1.176,-0.059 9.294,0 16.856,7.561 16.856,16.856 0,9.295 -7.562,16.857 -16.856,16.857"
             style="fill:#f2c357;fill-opacity:1;fill-rule:nonzero;stroke:none"
             id="path152"
             inkscape:connector-curvature="0" /></g><g
           id="g420"
           transform="translate(346.37548,465.2158)"><path
             d="m 0,0 c 0,7.201 5.839,13.039 13.041,13.039 7.201,0 13.041,-5.838 13.041,-13.039 0,-7.204 -5.84,-13.043 -13.041,-13.043 C 5.839,-13.043 0,-7.204 0,0"
             style="fill:#e75650;fill-opacity:1;fill-rule:nonzero;stroke:none"
             id="path422"
             inkscape:connector-curvature="0" /></g><g
           id="g424"
           transform="translate(351.24418,465.7656)"><path
             d="m 0,0 c 0,4.312 3.495,7.806 7.806,7.806 4.312,0 7.806,-3.494 7.806,-7.806 0,-4.312 -3.494,-7.806 -7.806,-7.806 C 3.495,-7.806 0,-4.312 0,0"
             style="fill:#e3c53e;fill-opacity:1;fill-rule:nonzero;stroke:none"
             id="path426"
             inkscape:connector-curvature="0" /></g><g
           id="g428"
           transform="translate(354.27488,465.7656)"><path
             d="M 0,0 C 0,2.638 2.138,4.775 4.775,4.775 7.413,4.775 9.55,2.638 9.55,0 9.55,-2.638 7.413,-4.775 4.775,-4.775 2.138,-4.775 0,-2.638 0,0"
             style="fill:#472d20;fill-opacity:1;fill-rule:nonzero;stroke:none"
             id="path430"
             inkscape:connector-curvature="0" /></g><g
           id="g432"
           transform="translate(378.93168,465.2158)"><path
             d="m 0,0 c 0,7.201 5.84,13.039 13.041,13.039 7.201,0 13.041,-5.838 13.041,-13.039 0,-7.204 -5.84,-13.043 -13.041,-13.043 C 5.84,-13.043 0,-7.204 0,0"
             style="fill:#e75650;fill-opacity:1;fill-rule:nonzero;stroke:none"
             id="path434"
             inkscape:connector-curvature="0" /></g><g
           id="g436"
           transform="translate(383.80078,465.7656)"><path
             d="m 0,0 c 0,4.312 3.494,7.806 7.806,7.806 4.311,0 7.805,-3.494 7.805,-7.806 0,-4.312 -3.494,-7.806 -7.805,-7.806 C 3.494,-7.806 0,-4.312 0,0"
             style="fill:#e3c53e;fill-opacity:1;fill-rule:nonzero;stroke:none"
             id="path438"
             inkscape:connector-curvature="0" /></g><g
           id="g440"
           transform="translate(386.83158,465.7656)"><path
             d="M 0,0 C 0,2.638 2.138,4.775 4.775,4.775 7.413,4.775 9.55,2.638 9.55,0 9.55,-2.638 7.413,-4.775 4.775,-4.775 2.138,-4.775 0,-2.638 0,0"
             style="fill:#472d20;fill-opacity:1;fill-rule:nonzero;stroke:none"
             id="path442"
             inkscape:connector-curvature="0" /></g><g
           id="g444"
           transform="translate(411.48828,465.2158)"><path
             d="m 0,0 c 0,7.201 5.84,13.039 13.041,13.039 7.201,0 13.041,-5.838 13.041,-13.039 0,-7.204 -5.84,-13.043 -13.041,-13.043 C 5.84,-13.043 0,-7.204 0,0"
             style="fill:#e75650;fill-opacity:1;fill-rule:nonzero;stroke:none"
             id="path446"
             inkscape:connector-curvature="0" /></g><g
           id="g448"
           transform="translate(416.35738,465.7656)"><path
             d="m 0,0 c 0,4.312 3.494,7.806 7.806,7.806 4.311,0 7.805,-3.494 7.805,-7.806 0,-4.312 -3.494,-7.806 -7.805,-7.806 C 3.494,-7.806 0,-4.312 0,0"
             style="fill:#e3c53e;fill-opacity:1;fill-rule:nonzero;stroke:none"
             id="path450"
             inkscape:connector-curvature="0" /></g><g
           id="g452"
           transform="translate(419.38768,465.7656)"><path
             d="M 0,0 C 0,2.638 2.138,4.775 4.775,4.775 7.413,4.775 9.551,2.638 9.551,0 9.551,-2.638 7.413,-4.775 4.775,-4.775 2.138,-4.775 0,-2.638 0,0"
             style="fill:#472d20;fill-opacity:1;fill-rule:nonzero;stroke:none"
             id="path454"
             inkscape:connector-curvature="0" /></g><g
           id="g468"
           transform="translate(405.78028,559.4297)"><path
             d="m 0,0 c 0,0 -8.3,-7.66 -16.806,-8.249 -8.506,-0.59 -11.745,0.492 -11.745,3.143 0,2.649 11.264,5.205 23.413,-0.883 5.51,-2.761 5.844,-5.087 4.184,-7.043 0,0 -7.346,-6.411 -15.852,-7.001 -8.506,-0.59 -11.745,0.492 -11.745,3.143 0,2.65 11.388,5.276 23.538,-0.812 6.128,-3.07 5.916,-6.032 3.81,-7.649 -3.522,-2.568 -7.097,-4.707 -15.603,-5.296 -8.506,-0.59 -11.745,0.491 -11.745,3.142 0,2.651 11.264,5.206 23.413,-0.883 5.51,-2.76 5.844,-5.086 4.184,-7.042 0,0 -7.346,-6.411 -15.852,-7.001 -8.506,-0.59 -11.745,0.493 -11.745,3.143 0,2.65 11.441,4.712 23.59,-1.377 6.128,-3.07 5.999,-5.226 3.902,-7.055 -3.159,-2.759 -7.706,-5.23 -15.747,-5.787 -8.506,-0.59 -11.745,0.492 -11.745,3.142 0,2.65 11.264,5.205 23.413,-0.882 5.51,-2.76 5.844,-5.087 4.184,-7.043 0,0 -7.346,-6.411 -15.852,-7.001 -8.506,-0.59 -11.745,0.493 -11.745,3.143 0,2.65 11.441,4.711 23.59,-1.377 6.128,-3.07 5.987,-5.733 4.13,-7.804"
             style="fill:none;stroke:#aa6548;stroke-width:1;stroke-linecap:butt;stroke-linejoin:miter;stroke-miterlimit:10;stroke-opacity:1;stroke-dasharray:none"
             id="path470"
             inkscape:connector-curvature="0" /></g><g
           id="g588"
           transform="translate(446.74898,649.0054)"><path
             d="m 0,0 c 0.007,0.384 0.028,0.766 0.028,1.152 0,29.066 -23.563,52.629 -52.629,52.629 -29.066,0 -52.629,-23.563 -52.629,-52.629 0,-0.386 0.022,-0.768 0.029,-1.152 l -12.706,0 0,-90.276 129.844,0 L 11.937,0 0,0 z"
             style="fill:#ee824b;fill-opacity:1;fill-rule:nonzero;stroke:none"
             id="path590"
             inkscape:connector-curvature="0" /></g><g
           id="g592"
           transform="translate(340.02878,473.665)"><path
             d="m 0,0 c 13.162,13.16 32.38,19.629 52.455,19.629 18.883,0 37.522,-5.117 49.912,-17.507 5.614,-5.614 -23.449,-5.158 -52.12,-5.589 C 22.274,-3.886 -5.327,-5.325 0,0"
             style="fill:#378076;fill-opacity:1;fill-rule:nonzero;stroke:none"
             id="path594"
             inkscape:connector-curvature="0" /></g><g
           id="g600"
           transform="translate(369.06938,594.8691)"><path
             d="m 0,0 c -0.126,0.163 -2.159,2.797 -0.59,6 l 0.243,0.503 c 1.892,3.93 6.324,13.132 22.19,13.278 l 0.364,0 C 38.073,19.635 42.505,10.433 44.396,6.503 L 44.64,6 C 46.225,2.764 44.113,0.083 44.092,0.056 L 36.336,-11.087 22.027,-11.054 7.714,-11.087 0,0 z"
             style="fill:#f4c35d;fill-opacity:1;fill-rule:nonzero;stroke:none"
             id="path602"
             inkscape:connector-curvature="0" /></g><g
           id="g604"
           transform="translate(391.28568,615.665)"><path
             d="M 0,0 C -0.067,0 -0.125,-0.007 -0.191,-0.007 -0.258,-0.007 -0.316,0 -0.383,0 l 0,-0.015 c -17.192,-0.158 -21.467,-10.554 -23.322,-14.341 -1.883,-3.845 0.668,-7.011 0.668,-7.011 l 8.013,-11.518 14.833,0.035 14.832,-0.035 8.013,11.518 c 0,0 2.551,3.166 0.668,7.011 C 21.467,-10.569 17.192,-0.173 0,-0.015 L 0,0 z m -0.241,-2.013 0.222,-0.002 c 15.245,-0.14 19.333,-8.631 21.298,-12.712 l 0.246,-0.508 c 1.279,-2.613 -0.37,-4.802 -0.428,-4.877 l -0.045,-0.055 -0.039,-0.058 -7.416,-10.657 -13.793,0.032 -13.784,-0.032 -7.416,10.657 -0.04,0.058 -0.043,0.055 c -0.018,0.021 -1.738,2.205 -0.43,4.876 l 0.247,0.509 c 1.965,4.081 6.053,12.572 21.298,12.712 l 0.123,0.002"
             style="fill:#5b3420;fill-opacity:1;fill-rule:nonzero;stroke:none"
             id="path606"
             inkscape:connector-curvature="0" /></g><g
           id="g608"
           transform="translate(386.91798,585.689)"><path
             d="M 0,0 -3.749,14.363 7.721,-0.108"
             style="fill:#4a2d1e;fill-opacity:1;fill-rule:nonzero;stroke:none"
             id="path610"
             inkscape:connector-curvature="0" /></g><g
           id="g620"
           transform="translate(374.04838,665.9819)"><path
             d="m 0,0 c 0,10.781 8.74,19.521 19.523,19.521 10.782,0 19.522,-8.74 19.522,-19.521 0,-10.782 -8.74,-19.522 -19.522,-19.522 C 8.74,-19.522 0,-10.782 0,0"
             style="fill:#e75059;fill-opacity:1;fill-rule:nonzero;stroke:none"
             id="path622"
             inkscape:connector-curvature="0" /></g><g
           id="g624"
           transform="translate(381.19388,666.3643)"><path
             d="m 0,0 c 0,6.482 5.255,11.738 11.739,11.738 6.483,0 11.738,-5.256 11.738,-11.738 0,-6.482 -5.255,-11.739 -11.738,-11.739 C 5.255,-11.739 0,-6.482 0,0"
             style="fill:#e4efe7;fill-opacity:1;fill-rule:nonzero;stroke:none"
             id="path626"
             inkscape:connector-curvature="0" /></g><g
           id="g628"
           transform="translate(386.55368,666.3643)"><path
             d="m 0,0 c 0,3.523 2.855,6.38 6.379,6.38 3.522,0 6.379,-2.857 6.379,-6.38 0,-3.523 -2.857,-6.38 -6.379,-6.38 C 2.855,-6.38 0,-3.523 0,0"
             style="fill:#4f2f1e;fill-opacity:1;fill-rule:nonzero;stroke:none"
             id="path630"
             inkscape:connector-curvature="0" /></g><g
           id="g762"
           transform="translate(346.27638,690.0747)"><path
             d="m 0,0 c -7.214,0 -13.061,-5.848 -13.061,-13.061 0,-5.487 3.388,-10.178 8.185,-12.111 C -2.51,-16.611 1.961,-8.93 7.95,-2.715 5.747,-1.019 2.996,0 0,0"
             style="fill:#32786b;fill-opacity:1;fill-rule:nonzero;stroke:none"
             id="path764"
             inkscape:connector-curvature="0" /></g><g
           id="g766"
           transform="translate(455.73148,676.874)"><path
             d="m 0,0 c 0,7.213 -5.847,13.061 -13.062,13.061 -3.091,0 -5.929,-1.081 -8.166,-2.876 C -15.302,3.959 -10.886,-3.71 -8.563,-12.249 -3.57,-10.414 0,-5.63 0,0"
             style="fill:#32786b;fill-opacity:1;fill-rule:nonzero;stroke:none"
             id="path768"
             inkscape:connector-curvature="0" /></g></g></g><rect
       style="fill:#ffffff;fill-opacity:1;fill-rule:evenodd;stroke:none"
       id="rect6959"
       width="303.53101"
       height="114.84957"
       x="-881.88068"
       y="181.42915"
       transform="matrix(0.8,0,0,-0.8,0,400)" /></g></svg>